<?xml version="1.0" encoding="UTF-8"?> <svg xmlns="http://www.w3.org/2000/svg" width="920" height="200" viewBox="0 0 920 200" fill="none"> <path fill-rule="evenodd" clip-rule="evenodd" d="M782.405 91.4686C782.319 91.403 782.235 91.3401 782.152 91.2787L781.963 91.1408C781.657 90.9173 781.368 90.7065 781.113 90.4611C779.645 89.0561 779.434 87.3104 779.88 85.4432C780.333 83.5445 781.576 82.1457 782.991 80.905C784.86 79.2618 787.084 78.4403 789.549 78.1959C792.176 77.936 794.717 78.3242 797.212 79.1253C797.239 79.1342 797.266 79.144 797.293 79.1542C797.324 79.166 797.355 79.1787 797.386 79.1918L797.479 79.2316L797.482 79.2331C797.554 79.2645 797.63 79.2978 797.716 79.3306C797.631 79.5085 797.549 79.6854 797.467 79.8613C797.25 80.3272 797.036 80.7854 796.8 81.2326C796.75 81.3261 796.492 81.3785 796.356 81.3466C794.707 80.9707 793.047 80.6534 791.348 80.7222C788.985 80.8188 786.829 81.4668 785.219 83.3319C784.576 84.0753 784.084 84.901 783.954 85.9178C783.732 87.677 784.397 89.0234 785.97 89.8768C787.214 90.5505 788.576 90.7558 789.959 90.8658C790.127 90.8792 790.297 90.8658 790.562 90.8658L790.309 91.3689L790.085 91.8123L789.683 92.6116C787.539 92.5335 785.472 92.8171 783.561 93.7752C780.159 95.4841 778.045 98.1913 777.462 101.991C777.184 103.792 778.034 105.414 779.56 106.209C780.404 106.649 781.333 106.655 782.257 106.603C784.947 106.464 787.412 105.552 789.826 104.436L789.852 104.424L789.91 104.398C789.962 104.375 790.022 104.349 790.098 104.316L790.251 104.248C790.196 104.386 790.142 104.52 790.087 104.652C790.044 104.755 790.001 104.858 789.958 104.958C789.755 105.44 789.563 105.894 789.429 106.365C789.176 107.268 788.607 107.757 787.775 108.141C785.292 109.289 782.728 110.117 780.003 110.409C778.165 110.608 776.392 110.409 774.744 109.485C772.741 108.365 771.825 106.609 771.673 104.371C771.511 102.015 772.443 99.9885 773.557 98.03C775.22 95.1092 777.523 92.9053 780.793 91.8579C781.122 91.7539 781.459 91.6801 781.817 91.602C782.006 91.5604 782.202 91.5178 782.405 91.4686ZM835.63 109.369C836.143 108.279 836.659 107.186 837.178 106.091C838.561 103.171 839.951 100.254 841.321 97.3276C841.512 96.9283 841.653 96.5067 841.74 96.0726C841.866 95.4092 841.466 94.9778 840.787 95.0034C840.532 95.0063 840.28 95.0627 840.048 95.1688C838.831 95.785 837.617 96.4105 836.428 97.078C836.143 97.2609 835.911 97.5168 835.758 97.8195C833.773 101.487 831.801 105.162 829.842 108.845C829.624 109.256 829.383 109.386 828.933 109.374C828.071 109.351 827.208 109.355 826.321 109.359C825.964 109.361 825.603 109.363 825.236 109.363C825.28 109.211 825.332 109.061 825.391 108.915C828.062 103.525 830.734 98.133 833.407 92.74C833.563 92.4246 833.73 92.2882 834.098 92.2953C835.428 92.32 836.759 92.3045 838.159 92.3045C837.772 93.159 837.416 93.9477 836.996 94.8802C837.24 94.7447 837.377 94.6748 837.509 94.5967C839.583 93.2617 841.798 92.249 844.218 91.7571C844.952 91.6083 845.746 91.6247 846.496 91.7109C847.293 91.8024 847.783 92.4431 847.801 93.2515C847.809 93.6209 847.775 93.9909 847.74 94.3801C847.726 94.5427 847.711 94.7087 847.698 94.8793C847.859 94.7765 848.006 94.681 848.154 94.5844C849.797 93.5009 851.47 92.4801 853.411 91.9923C854.352 91.7562 855.237 91.9194 856.088 92.3005C856.958 92.6897 857.334 93.5328 857.115 94.5803C857.013 95.0649 856.857 95.5367 856.649 95.9863C855.652 98.1295 854.651 100.271 853.649 102.411C852.955 103.893 852.262 105.375 851.57 106.858C851.238 107.57 850.905 108.283 850.574 108.996C850.415 109.338 850.237 109.471 849.849 109.462C848.499 109.435 847.149 109.452 845.712 109.452L845.83 109.19L845.86 109.123C845.973 108.87 846.078 108.636 846.19 108.403L846.504 107.754L846.515 107.729L846.527 107.704L846.539 107.68L846.551 107.655C848.279 104.088 850.006 100.524 851.717 96.9496C851.914 96.5004 852.052 96.0275 852.128 95.5427C852.195 95.174 851.969 94.9645 851.579 94.9911C851.393 94.9891 851.208 95.0145 851.03 95.0661C849.445 95.6751 847.911 96.393 846.55 97.4199C846.201 97.6877 845.911 98.0253 845.7 98.411C843.804 101.895 841.925 105.387 840.063 108.886C839.882 109.224 839.694 109.384 839.282 109.372C838.476 109.355 837.668 109.359 836.838 109.364C836.532 109.366 836.223 109.368 835.91 109.369L835.63 109.369ZM815.684 107.507C815.864 107.419 816.044 107.332 816.225 107.247C816.195 107.387 816.145 107.601 816.101 107.815C815.842 109.168 816.474 109.892 817.847 109.808L817.929 109.802L818.002 109.795C818.029 109.793 818.056 109.79 818.083 109.787L818.144 109.78C818.236 109.769 818.327 109.756 818.417 109.74C818.48 109.73 818.542 109.718 818.605 109.705C820.369 109.341 822.08 108.829 823.608 107.836L823.653 107.806L823.686 107.786L823.734 107.754C823.757 107.739 823.78 107.723 823.803 107.706C823.827 107.689 823.851 107.671 823.873 107.653C823.955 107.587 824.022 107.515 824.053 107.432C824.303 106.754 824.527 106.064 824.769 105.318L824.932 104.816C823.986 105.462 823.015 105.617 822.035 105.753C821.577 105.817 821.232 105.537 821.276 105.084C821.314 104.712 821.411 104.348 821.564 104.006C823.28 100.185 824.995 96.3646 826.711 92.5449C826.723 92.517 826.735 92.4886 826.746 92.4595C826.766 92.4086 826.784 92.3553 826.803 92.2984C826.82 92.2489 826.837 92.1965 826.858 92.1403C826.4 92.1164 825.947 92.0963 825.497 92.0764L825.486 92.0759C824.505 92.0325 823.54 91.9899 822.577 91.9092C820.905 91.7695 819.259 91.7756 817.597 92.1064C810.554 93.5123 805.381 99.0662 804.555 106.185C804.277 108.564 806.037 110.387 808.4 110.057C809.647 109.895 810.874 109.599 812.059 109.176C813.057 108.806 814.017 108.331 814.976 107.856C815.212 107.739 815.448 107.622 815.684 107.507ZM816.615 105.154C815.185 106.288 813.626 107.131 811.834 107.227C811.617 107.224 811.401 107.209 811.186 107.182C809.581 106.878 808.986 106.427 809.123 104.336C809.226 102.765 809.927 101.367 810.689 100.032C812.386 97.0533 814.715 94.7602 818.053 93.7002C818.952 93.4148 819.918 93.2883 820.863 93.2155C821.693 93.1519 821.935 93.5996 821.59 94.3596C820.023 97.8151 818.452 101.269 816.877 104.722L816.851 104.779C816.821 104.847 816.79 104.917 816.753 104.981C816.715 105.048 816.671 105.108 816.615 105.154ZM807.612 83.153C806.681 85.285 805.795 87.3164 804.876 89.4249H808.127C808.06 89.6508 807.995 89.8731 807.93 90.0925L807.928 90.1011L807.925 90.1104C807.709 90.8449 807.503 91.546 807.274 92.2398C807.236 92.3549 807.002 92.4699 806.856 92.4719C805.761 92.4915 804.665 92.4946 803.57 92.4719C803.246 92.4657 803.09 92.5808 802.953 92.8674C801.105 96.6645 799.248 100.458 797.384 104.247C797.126 104.773 797.025 105.31 797.239 105.874C797.454 106.438 797.788 106.703 798.346 106.519C799.212 106.225 800.054 105.867 800.866 105.447C801.212 105.273 801.524 105.038 801.867 104.781L801.869 104.779L801.879 104.772C801.961 104.71 802.045 104.647 802.132 104.583C802.216 104.521 802.302 104.459 802.392 104.396C802.047 105.514 801.739 106.534 801.407 107.547C801.366 107.67 801.206 107.768 801.081 107.845L801.076 107.848C799.256 108.956 797.36 109.87 795.217 110.161C793.985 110.328 793.146 109.731 792.532 108.758C791.703 107.443 791.82 106.062 792.464 104.738C794.514 100.525 796.582 96.3209 798.651 92.1166C799.337 90.7214 800.024 89.3262 800.709 87.9307L801.11 87.1148L801.119 87.0963C801.706 85.9014 802.293 84.706 802.893 83.5146C802.97 83.3625 803.164 83.1684 803.304 83.1663C804.705 83.1428 806.103 83.153 807.612 83.153ZM817.307 118.734L816.743 117.541C817.921 117.033 818.359 115.898 817.775 114.809C817.629 114.532 817.315 114.172 817.056 114.155C816.253 114.102 815.445 114.11 814.624 114.118L814.153 114.122C814.008 114.123 813.862 114.124 813.715 114.124C813.715 116.005 813.711 117.833 813.728 119.66C813.728 119.726 813.787 119.792 813.854 119.857L813.889 119.89C813.927 119.925 813.964 119.961 813.994 119.996L814.155 119.904V117.47C814.331 117.47 814.501 117.472 814.668 117.474H814.671C814.95 117.478 815.217 117.481 815.481 117.474C815.569 117.472 815.657 117.468 815.744 117.463C816.102 117.441 816.301 117.553 816.443 117.892C816.693 118.491 816.975 119.077 817.283 119.649C817.34 119.757 817.456 119.833 817.572 119.909L817.573 119.91C817.626 119.945 817.678 119.979 817.726 120.017L817.854 119.884L817.56 119.267L817.307 118.734ZM816.781 116.897C815.932 116.936 815.08 116.908 814.203 116.908V114.648C814.464 114.648 814.724 114.645 814.982 114.642C815.6 114.635 816.21 114.627 816.819 114.662C817.319 114.69 817.591 115.151 817.584 115.767C817.577 116.408 817.287 116.873 816.781 116.897ZM828.125 114.79L827.845 115.151C827.282 114.629 826.637 114.355 825.904 114.5C825.539 114.572 825.132 114.727 824.87 114.976C824.275 115.546 824.549 116.404 825.358 116.56C825.79 116.644 826.241 116.632 826.684 116.643C827.575 116.666 828.224 117.129 828.363 117.862C828.547 118.825 828.139 119.586 827.261 119.926C826.066 120.388 824.829 120.096 824.033 119.187C823.823 118.946 823.828 118.781 824.136 118.596C824.912 119.571 825.921 119.829 827.096 119.444C827.734 119.232 828.056 118.749 827.99 118.174C827.961 117.926 827.85 117.694 827.676 117.514C827.502 117.334 827.273 117.217 827.026 117.179C826.937 117.168 826.848 117.158 826.759 117.149C826.627 117.137 826.494 117.127 826.362 117.12C826.244 117.114 826.126 117.11 826.007 117.108C824.775 117.096 824.206 116.698 824.173 115.811C824.135 114.778 824.869 114.029 826 113.941C826.823 113.878 827.501 114.175 828.125 114.79ZM803.437 114.109H800.444L800.444 115.476C800.444 116.103 800.444 116.724 800.445 117.343C800.446 118.116 800.448 118.884 800.452 119.652C800.452 119.686 800.465 119.719 800.485 119.753C800.505 119.785 800.531 119.818 800.557 119.851C800.582 119.883 800.608 119.915 800.628 119.949C800.64 119.93 800.653 119.911 800.668 119.892C800.68 119.876 800.693 119.86 800.706 119.843C800.738 119.804 800.769 119.764 800.792 119.724C800.812 119.689 800.824 119.654 800.824 119.619C800.831 119.352 800.834 119.086 800.835 118.821C800.836 118.559 800.835 118.298 800.834 118.043C800.833 117.867 800.833 117.694 800.833 117.524C800.862 117.505 800.882 117.49 800.896 117.48C800.918 117.464 800.927 117.458 800.935 117.458C801.091 117.456 801.247 117.454 801.402 117.453L801.713 117.451L801.973 117.449C802.346 117.446 802.719 117.443 803.092 117.435C803.877 117.419 804.291 117.056 804.463 116.252C804.655 115.367 804.335 114.456 803.731 114.179C803.639 114.136 803.539 114.112 803.437 114.109ZM802.383 116.885C802.131 116.885 801.878 116.882 801.621 116.88C801.468 116.878 801.314 116.876 801.159 116.875C801.062 116.875 800.964 116.874 800.865 116.874V114.635C801.116 114.635 801.365 114.632 801.613 114.629C802.204 114.622 802.788 114.614 803.367 114.65C803.851 114.679 804.092 115.127 804.079 115.785C804.066 116.444 803.818 116.838 803.305 116.864C802.999 116.879 802.692 116.884 802.383 116.885ZM806.584 119.867C807.303 118.018 808.022 116.17 808.751 114.331C808.775 114.268 808.843 114.197 808.911 114.154C808.953 114.128 808.995 114.113 809.028 114.117C809.072 114.123 809.115 114.135 809.155 114.154C809.177 114.164 809.199 114.176 809.219 114.19C809.277 114.228 809.325 114.279 809.36 114.338C810.085 116.187 810.797 118.036 811.51 119.891C811.202 120.04 811.063 119.938 810.962 119.655C810.799 119.169 810.609 118.693 810.391 118.229C810.36 118.175 810.321 118.127 810.277 118.084C810.251 118.059 810.223 118.036 810.193 118.015C810.167 117.997 810.141 117.982 810.113 117.968C810.053 117.938 809.989 117.917 809.922 117.905C809.792 117.897 809.662 117.892 809.532 117.889C809.335 117.886 809.138 117.887 808.941 117.889C808.686 117.891 808.431 117.893 808.177 117.884C807.878 117.871 807.755 118 807.663 118.26C807.626 118.365 807.589 118.471 807.55 118.576C807.504 118.7 807.458 118.824 807.409 118.947C807.317 119.181 807.219 119.412 807.114 119.64C807.065 119.743 806.965 119.821 806.864 119.9C806.817 119.937 806.769 119.973 806.728 120.013L806.584 119.867ZM810.038 117.306L809.052 114.773L808.652 115.812L808.076 117.306H810.038ZM821.221 118.32C821.221 117.89 821.219 117.46 821.219 117.029C821.219 116.822 821.22 116.615 821.22 116.409C821.222 115.76 821.223 115.111 821.211 114.461C821.209 114.342 821.102 114.223 821.044 114.105C821.025 114.142 821.002 114.179 820.978 114.216C820.926 114.297 820.874 114.379 820.874 114.46C820.863 116.171 820.863 117.883 820.874 119.595C820.875 119.714 820.983 119.831 821.042 119.949C821.06 119.912 821.084 119.876 821.108 119.839C821.159 119.758 821.211 119.678 821.211 119.597C821.218 119.171 821.22 118.746 821.221 118.32Z" fill="#A6A6A6"></path> <path fill-rule="evenodd" clip-rule="evenodd" d="M479.408 84.5646V86.9235H479.893V86.1479H480.022L480.765 86.9235H481.347L480.603 86.1479C480.776 86.1307 480.931 86.0488 481.069 85.9024C481.211 85.7516 481.282 85.5749 481.282 85.3724C481.282 85.1441 481.202 84.9523 481.043 84.7972C480.883 84.6421 480.683 84.5646 480.442 84.5646H479.408ZM477.954 85.7602C477.954 86.4237 478.176 86.9773 478.619 87.4211C479.063 87.8649 479.617 88.0868 480.28 88.0868C480.944 88.0868 481.497 87.8649 481.941 87.4211C482.385 86.9773 482.607 86.4237 482.607 85.7602C482.607 85.0967 482.385 84.543 481.941 84.0993C481.497 83.6555 480.944 83.4336 480.28 83.4336C479.617 83.4336 479.063 83.6555 478.619 84.0993C478.176 84.543 477.954 85.0967 477.954 85.7602ZM481.573 87.0786C481.228 87.4276 480.797 87.6021 480.28 87.6021C479.759 87.6021 479.326 87.4276 478.981 87.0786C478.641 86.7296 478.471 86.2901 478.471 85.7602C478.471 85.2302 478.641 84.7908 478.981 84.4418C479.326 84.0928 479.759 83.9183 480.28 83.9183C480.797 83.9183 481.228 84.0928 481.573 84.4418C481.918 84.7908 482.09 85.2302 482.09 85.7602C482.09 86.2901 481.918 86.7296 481.573 87.0786ZM480.442 85.7602H479.893V84.9846H480.442C480.541 84.9846 480.625 85.0213 480.694 85.0945C480.763 85.1678 480.797 85.2604 480.797 85.3724C480.797 85.4844 480.763 85.5771 480.694 85.6503C480.625 85.7236 480.541 85.7602 480.442 85.7602ZM457.644 84.0983H446.711V106.035H457.644H469.015C475.053 106.035 479.948 101.124 479.948 95.0665C479.948 89.0089 475.053 84.0983 469.015 84.0983H457.644ZM457.644 106.035V84.0983C463.682 84.0983 468.577 89.0089 468.577 95.0665C468.577 101.124 463.682 106.035 457.644 106.035ZM529.503 95.8641L530.55 94.9667L529.353 93.7701C528.735 93.1519 528.306 92.5736 528.067 92.0352C527.828 91.4768 527.708 90.7589 527.708 89.8814C527.708 88.4256 528.227 87.2191 529.264 86.2619C530.32 85.2848 531.696 84.7962 533.392 84.7962C535.007 84.7962 536.353 85.3147 537.43 86.3517C538.527 87.3687 539.075 88.5952 539.075 90.031C539.075 91.6862 538.228 93.132 536.532 94.3684L534.887 95.5649L539.075 100.052C539.275 99.5932 539.444 99.1844 539.584 98.8255C539.943 97.8682 540.122 96.9808 540.122 96.1632H543.263C543.263 97.619 542.914 99.0648 542.216 100.501C541.857 101.179 541.508 101.727 541.169 102.146L544.908 106.035H540.87L539.075 104.09C538.557 104.529 538.018 104.908 537.46 105.227C536.104 105.965 534.748 106.334 533.392 106.334C531.298 106.334 529.652 105.815 528.456 104.778C527.259 103.741 526.661 102.415 526.661 100.8C526.661 99.683 526.89 98.7656 527.349 98.0477C527.808 97.3298 528.526 96.6019 529.503 95.8641ZM533.092 93.471L534.289 92.5736C534.887 92.1149 535.306 91.7161 535.545 91.3771C535.805 91.0381 535.934 90.5894 535.934 90.031C535.934 89.2732 535.695 88.665 535.216 88.2063C534.758 87.7277 534.149 87.4884 533.392 87.4884C532.614 87.4884 531.996 87.7476 531.537 88.2661C531.078 88.7846 530.849 89.3729 530.849 90.031C530.849 90.6891 531.198 91.3871 531.896 92.1249L533.092 93.471ZM537.28 102.295L532.494 97.0606L531.597 97.8084C530.999 98.2272 530.55 98.656 530.251 99.0947C529.952 99.5334 529.802 100.102 529.802 100.8C529.802 101.538 530.121 102.196 530.759 102.774C531.397 103.352 532.275 103.642 533.392 103.642C535.087 103.642 536.383 103.193 537.28 102.295ZM498.827 103.043H494.639V88.0866H498.827C500.801 88.0866 502.436 88.7846 503.732 90.1806C505.049 91.5566 505.707 93.3514 505.707 95.5649C505.707 97.7785 505.049 99.5833 503.732 100.979C502.436 102.355 500.801 103.043 498.827 103.043ZM491.498 85.0953V106.035H498.827C501.678 106.035 504.061 105.047 505.976 103.073C507.89 101.099 508.847 98.5961 508.847 95.5649C508.847 92.5337 507.89 90.031 505.976 88.0567C504.061 86.0824 501.678 85.0953 498.827 85.0953H491.498ZM522.314 97.3597H513.49C513.729 96.1233 514.228 95.1461 514.986 94.4282C515.743 93.6904 516.74 93.3214 517.977 93.3214C519.153 93.3214 520.131 93.6904 520.908 94.4282C521.686 95.1661 522.155 96.1433 522.314 97.3597ZM524.707 101.697H521.566C521.307 102.275 520.849 102.774 520.19 103.193C519.552 103.592 518.814 103.791 517.977 103.791C516.78 103.791 515.773 103.412 514.956 102.654C514.138 101.897 513.649 100.88 513.49 99.6032H525.007L525.066 99.1844C525.126 98.646 525.156 98.287 525.156 98.1076C525.156 96.0136 524.468 94.2687 523.092 92.8727C521.716 91.4768 520.011 90.7788 517.977 90.7788C515.803 90.7788 514.008 91.4967 512.592 92.9326C511.197 94.3684 510.499 96.243 510.499 98.5563C510.499 100.87 511.197 102.744 512.592 104.18C514.008 105.616 515.803 106.334 517.977 106.334C519.732 106.334 521.178 105.865 522.314 104.928C523.471 103.971 524.269 102.894 524.707 101.697ZM553.273 103.043H549.086V88.0866H553.273C555.248 88.0866 556.883 88.7846 558.179 90.1806C559.495 91.5566 560.153 93.3514 560.153 95.5649C560.153 97.7785 559.495 99.5833 558.179 100.979C556.883 102.355 555.248 103.043 553.273 103.043ZM545.945 85.0953V106.035H553.273C556.125 106.035 558.508 105.047 560.423 103.073C562.337 101.099 563.294 98.5961 563.294 95.5649C563.294 92.5337 562.337 90.031 560.423 88.0567C558.508 86.0824 556.125 85.0953 553.273 85.0953H545.945ZM567.937 97.3597H576.761C576.602 96.1433 576.133 95.1661 575.355 94.4282C574.578 93.6904 573.6 93.3214 572.424 93.3214C571.187 93.3214 570.19 93.6904 569.432 94.4282C568.675 95.1461 568.176 96.1233 567.937 97.3597ZM576.013 101.697H579.154C578.716 102.894 577.918 103.971 576.761 104.928C575.624 105.865 574.179 106.334 572.424 106.334C570.25 106.334 568.455 105.616 567.039 104.18C565.643 102.744 564.945 100.87 564.945 98.5563C564.945 96.243 565.643 94.3684 567.039 92.9326C568.455 91.4967 570.25 90.7788 572.424 90.7788C574.458 90.7788 576.163 91.4768 577.539 92.8727C578.915 94.2687 579.603 96.0136 579.603 98.1076C579.603 98.287 579.573 98.646 579.513 99.1844L579.453 99.6032H567.937C568.096 100.88 568.585 101.897 569.403 102.654C570.22 103.412 571.227 103.791 572.424 103.791C573.261 103.791 573.999 103.592 574.637 103.193C575.295 102.774 575.754 102.275 576.013 101.697ZM591.887 99.6032H588.746C588.746 101.538 589.484 103.143 590.96 104.419C592.436 105.696 594.44 106.334 596.973 106.334C599.505 106.334 601.46 105.765 602.836 104.629C604.212 103.472 604.9 101.996 604.9 100.201C604.9 98.5463 604.401 97.26 603.404 96.3427C602.427 95.4054 600.881 94.7473 598.767 94.3684L595.477 93.7701C593.383 93.3514 592.336 92.4041 592.336 90.9284C592.336 90.0509 592.715 89.3131 593.473 88.7148C594.25 88.0966 595.317 87.7875 596.673 87.7875C598.109 87.7875 599.266 88.1564 600.143 88.8943C601.021 89.6321 601.46 90.5096 601.46 91.5266H604.6C604.6 89.5723 603.902 87.967 602.506 86.7106C601.13 85.4343 599.186 84.7962 596.673 84.7962C594.4 84.7962 592.585 85.3845 591.229 86.5611C589.873 87.7177 589.195 89.1735 589.195 90.9284C589.195 92.4041 589.604 93.6206 590.422 94.5778C591.259 95.535 592.495 96.1632 594.131 96.4623L598.169 97.2102C600.562 97.6688 601.759 98.6659 601.759 100.201C601.759 101.159 601.37 101.926 600.592 102.505C599.814 103.063 598.608 103.342 596.973 103.342C595.477 103.342 594.25 102.973 593.293 102.236C592.356 101.498 591.887 100.62 591.887 99.6032ZM607.905 102.894V93.9197H605.512V91.078H607.905V86.8901H610.896V91.078H614.336V93.9197H610.896V102.445C610.896 103.043 611.195 103.342 611.794 103.342H614.336V106.035H611.195C610.138 106.035 609.321 105.755 608.742 105.197C608.184 104.639 607.905 103.871 607.905 102.894ZM619.143 91.078H616.152V100.052C616.152 101.986 616.691 103.522 617.767 104.659C618.864 105.775 620.32 106.334 622.135 106.334C623.331 106.334 624.408 106.035 625.365 105.436C625.764 105.177 626.133 104.878 626.472 104.539H626.622L626.921 106.035H629.613V91.078H626.622V100.052C626.622 101.029 626.243 101.877 625.485 102.595C624.747 103.293 623.83 103.642 622.733 103.642C621.716 103.642 620.858 103.293 620.16 102.595C619.482 101.877 619.143 101.029 619.143 100.052V91.078ZM643.824 106.035L643.525 104.24H643.376C642.319 105.636 640.773 106.334 638.739 106.334C636.745 106.334 635.1 105.626 633.803 104.21C632.507 102.794 631.859 100.909 631.859 98.5563C631.859 96.2031 632.507 94.3185 633.803 92.9027C635.1 91.4868 636.745 90.7788 638.739 90.7788C639.616 90.7788 640.414 90.9384 641.132 91.2574C641.87 91.5566 642.349 91.8158 642.568 92.0352C642.787 92.2346 643.056 92.5138 643.376 92.8727H643.525V85.0953H646.516V106.035H643.824ZM636.077 102.236C636.914 103.173 637.951 103.642 639.188 103.642C640.424 103.642 641.451 103.173 642.269 102.236C643.106 101.298 643.525 100.072 643.525 98.5563C643.525 97.0407 643.106 95.8142 642.269 94.8769C641.451 93.9396 640.424 93.471 639.188 93.471C637.951 93.471 636.914 93.9396 636.077 94.8769C635.259 95.8142 634.85 97.0407 634.85 98.5563C634.85 100.072 635.259 101.298 636.077 102.236ZM652.637 91.078H649.646V106.035H652.637V91.078ZM649.496 85.0953V88.2362H652.787V85.0953H649.496ZM659.142 102.265C660 103.183 661.077 103.642 662.373 103.642C663.669 103.642 664.736 103.183 665.574 102.265C666.431 101.328 666.86 100.092 666.86 98.5563C666.86 97.0207 666.431 95.7943 665.574 94.8769C664.736 93.9396 663.669 93.471 662.373 93.471C661.077 93.471 660 93.9396 659.142 94.8769C658.305 95.7943 657.886 97.0207 657.886 98.5563C657.886 100.092 658.305 101.328 659.142 102.265ZM667.727 104.18C666.331 105.616 664.546 106.334 662.373 106.334C660.199 106.334 658.404 105.616 656.988 104.18C655.592 102.744 654.894 100.87 654.894 98.5563C654.894 96.243 655.592 94.3684 656.988 92.9326C658.404 91.4967 660.199 90.7788 662.373 90.7788C664.546 90.7788 666.331 91.4967 667.727 92.9326C669.143 94.3684 669.851 96.243 669.851 98.5563C669.851 100.87 669.143 102.744 667.727 104.18Z" fill="#A6A6A6"></path> <path fill-rule="evenodd" clip-rule="evenodd" d="M246.343 83.4343C246.111 83.4346 245.877 83.435 245.642 83.435V106.034H249.117V90.2481C249.433 90.1211 249.587 90.2747 249.748 90.4822C253.718 95.5925 257.685 100.704 261.649 105.816C261.701 105.898 261.774 105.964 261.861 106.008C261.948 106.052 262.045 106.072 262.142 106.065C262.679 106.053 263.216 106.055 263.753 106.057C263.954 106.058 264.155 106.059 264.356 106.059H264.785V83.4516H261.336V99.0017C261.046 99.0913 260.884 99.0125 260.715 98.7975C259.816 97.6181 258.904 96.4442 257.993 95.2707C257.683 94.8719 257.374 94.4732 257.064 94.0742C254.374 90.5967 251.68 87.1217 248.981 83.6491C248.907 83.5553 248.775 83.4441 248.669 83.4441C247.896 83.432 247.126 83.4331 246.343 83.4343ZM317.1 90.3211V91.8051C317.016 91.7711 316.936 91.7441 316.86 91.7188C316.711 91.6689 316.58 91.6252 316.479 91.5453C314.965 90.3494 313.221 89.9228 311.327 90.112C309.501 90.2946 307.92 91.0474 306.571 92.2815C304.044 94.5921 303.25 98.2556 304.671 101.371C305.896 104.056 308.046 105.666 311.009 106.143C313.017 106.465 314.855 106.012 316.475 104.767C316.578 104.688 316.709 104.646 316.862 104.597C316.94 104.573 317.023 104.546 317.11 104.513V106.041H320.457V90.3211H317.1ZM310.37 93.7784C310.959 93.5423 311.589 93.4231 312.225 93.4277V93.426C312.856 93.4283 313.481 93.5528 314.064 93.7926C314.646 94.0325 315.175 94.3828 315.62 94.8237C316.064 95.2645 316.417 95.7873 316.656 96.3621C316.896 96.9369 317.018 97.5525 317.015 98.1738C317.013 98.7951 316.887 99.4098 316.643 99.9829C316.399 100.556 316.043 101.076 315.595 101.514C315.147 101.952 314.616 102.298 314.032 102.534C313.447 102.77 312.822 102.89 312.19 102.888C309.539 102.872 307.36 100.74 307.368 98.1676C307.369 97.542 307.495 96.9227 307.74 96.3453C307.985 95.7679 308.343 95.2439 308.795 94.8033C309.246 94.3628 309.781 94.0145 310.37 93.7784ZM354.632 91.7893V90.3186H357.983V106.044H354.647V104.528C354.565 104.555 354.486 104.575 354.412 104.594C354.253 104.636 354.115 104.672 354.011 104.749C351.649 106.513 349.088 106.664 346.434 105.545C344.267 104.632 342.757 103.035 341.974 100.846C341.158 98.5701 341.335 96.3334 342.544 94.2236C343.753 92.1139 345.597 90.7585 348.01 90.2473C350.203 89.7842 352.238 90.1693 354.026 91.5752C354.122 91.6491 354.251 91.6829 354.397 91.7209C354.472 91.7406 354.551 91.7614 354.632 91.7893ZM349.755 93.4277C349.119 93.4197 348.488 93.5364 347.898 93.7707C347.309 94.0051 346.772 94.3525 346.321 94.7927C345.869 95.233 345.511 95.7573 345.267 96.3351C345.023 96.913 344.898 97.5328 344.9 98.1584C344.886 100.757 347.06 102.889 349.729 102.889C352.385 102.889 354.557 100.789 354.575 98.1983C354.58 97.5728 354.458 96.9527 354.218 96.3737C353.978 95.7947 353.623 95.2682 353.175 94.8246C352.727 94.3811 352.194 94.0293 351.607 93.7895C351.02 93.5498 350.39 93.4268 349.755 93.4277ZM268.294 98.1593C268.269 102.592 272.002 106.24 276.523 106.244C281.057 106.247 284.8 102.578 284.796 98.1551C284.791 93.7323 281.048 90.019 276.535 90.0415C274.348 90.0432 272.252 90.8993 270.706 92.4216C269.161 93.9438 268.293 96.0076 268.294 98.1593ZM274.682 93.7734C275.271 93.538 275.902 93.4205 276.538 93.4277C279.226 93.4368 281.396 95.5723 281.369 98.1908C281.354 99.4437 280.838 100.64 279.932 101.52C279.026 102.401 277.803 102.893 276.53 102.891C273.858 102.893 271.688 100.774 271.694 98.1676C271.691 97.5419 271.814 96.9217 272.056 96.3432C272.298 95.7647 272.655 95.2396 273.106 94.7983C273.557 94.3571 274.093 94.0087 274.682 93.7734ZM340.475 90.3311C340.424 90.4564 340.391 90.5502 340.348 90.6415C336.887 98.3452 333.423 106.048 329.957 113.751C329.911 113.855 329.788 114 329.704 114C328.728 114.013 327.752 114.012 326.753 114.011C326.492 114.011 326.229 114.011 325.965 114.011C325.994 113.945 326.02 113.886 326.044 113.831L326.045 113.828C326.073 113.763 326.099 113.703 326.126 113.644C327.41 110.822 328.695 108 329.982 105.178C330.026 105.093 330.048 104.999 330.047 104.903C330.046 104.808 330.022 104.714 329.977 104.63C327.887 99.9896 325.801 95.3485 323.72 90.7062C323.686 90.6312 323.655 90.5558 323.619 90.469C323.601 90.4262 323.582 90.3807 323.561 90.3311H325.698C325.822 90.3311 325.946 90.3323 326.069 90.3335H326.071C326.368 90.3364 326.666 90.3394 326.964 90.3253C327.193 90.3145 327.29 90.4 327.379 90.5983C328.74 93.6094 330.107 96.6183 331.479 99.625L331.502 99.6755C331.518 99.7104 331.534 99.7452 331.55 99.78C331.6 99.8883 331.649 99.9968 331.696 100.106L331.703 100.122C331.759 100.255 331.82 100.399 332.001 100.336C332.118 100.295 332.216 100.214 332.277 100.107C333.406 97.6616 334.529 95.2132 335.646 92.762C335.984 92.0151 336.321 91.2681 336.673 90.5311C336.712 90.4481 336.823 90.3402 336.902 90.3394C337.843 90.3294 338.785 90.3301 339.747 90.3308C339.918 90.3309 340.091 90.331 340.264 90.3311L340.475 90.3311ZM300.952 94.5755C301.58 93.177 302.209 91.7769 302.86 90.3311C302.551 90.3311 302.245 90.3318 301.942 90.3324C301.124 90.3342 300.324 90.336 299.525 90.3245C299.257 90.3203 299.124 90.3934 299.011 90.6423C297.583 93.784 296.153 96.9243 294.72 100.063C294.713 100.079 294.706 100.094 294.7 100.11C294.645 100.24 294.595 100.359 294.382 100.354C294.173 100.349 294.123 100.233 294.068 100.105C294.061 100.088 294.053 100.071 294.045 100.053C292.602 96.8966 291.162 93.737 289.726 90.5743C289.641 90.3892 289.545 90.317 289.331 90.3253C288.987 90.3383 288.641 90.3357 288.296 90.3332C288.156 90.3321 288.016 90.3311 287.876 90.3311H285.909C286.094 90.7424 286.273 91.1411 286.45 91.5344C286.581 91.8269 286.711 92.1165 286.841 92.406C288.846 96.8585 290.845 101.313 292.838 105.768C292.94 105.997 293.057 106.07 293.305 106.065C294.032 106.047 294.76 106.047 295.487 106.065C295.726 106.07 295.831 105.992 295.925 105.78C297.599 102.045 299.274 98.3103 300.952 94.5755Z" fill="#A6A6A6"></path> <path fill-rule="evenodd" clip-rule="evenodd" d="M92.708 81.8526L92.9225 80.7869C92.5188 80.7869 92.1265 80.7836 91.7425 80.7804C90.7332 80.7721 89.7813 80.7642 88.8321 80.8172C88.6541 80.857 88.4882 80.9399 88.3485 81.0589C88.2089 81.1777 88.0996 81.3291 88.03 81.5002C87.7909 82.4155 87.6067 83.3459 87.4175 84.301C87.3484 84.6497 87.2787 85.0017 87.2054 85.3576H91.9161C91.9986 85.1389 92.0701 84.9159 92.1303 84.6898C92.3216 83.7756 92.5059 82.8585 92.708 81.8526ZM85.1004 80.8249C84.6022 83.6703 82.5944 85.4157 79.9115 85.441C79.4284 85.444 78.9452 85.4475 78.462 85.4511C76.4161 85.4665 74.3694 85.4819 72.3261 85.441C70.0168 85.3854 67.9716 85.8862 66.447 87.8996C66.4147 86.0303 66.9801 83.7792 68.1036 82.7649C69.0179 81.9377 70.2261 80.9816 71.3421 80.931C74.7115 80.7642 78.0891 80.7864 81.5085 80.809H81.5147C82.7044 80.8169 83.8992 80.8249 85.1004 80.8249ZM110.911 107.027H115.367C116.643 108.878 118.078 109.488 120.101 108.886C122.592 108.148 123.13 106.035 123.526 103.637L123.439 103.684L123.358 103.727L123.225 103.796C123.075 103.874 122.956 103.935 122.833 104.012C118.783 106.524 114.114 104.566 113.003 99.8813C111.992 95.6445 113.815 90.6869 117.271 88.5598C119.575 87.1407 122.034 86.8776 124.495 88.1575C124.978 88.4092 125.402 88.7819 125.845 89.1714L125.849 89.1748L125.849 89.1758C126.055 89.3571 126.265 89.5421 126.488 89.7206C126.635 89.106 126.784 88.4762 126.949 87.7832H131.537C131.309 88.8879 131.082 89.9873 130.856 91.0831C130.41 93.2487 129.967 95.4003 129.517 97.5518C129.3 98.5899 129.077 99.6268 128.854 100.664L128.852 100.672L128.851 100.676C128.518 102.225 128.184 103.775 127.873 105.33C126.341 112.951 117.677 114.049 113.462 111.34C111.962 110.376 111.16 108.964 110.911 107.027ZM125.556 95.2627L125.212 95.1184C125.212 92.9736 124.378 91.5772 122.838 91.1321C121.988 90.8993 121.084 90.9776 120.284 91.3529C119.484 91.7283 118.84 92.3772 118.464 93.186C117.806 94.5736 117.397 96.0691 117.256 97.6024C117.081 99.459 118.113 100.873 119.478 101.29C120.259 101.542 121.1 101.521 121.868 101.23C122.635 100.94 123.285 100.396 123.713 99.6865C124.272 98.7394 124.658 97.6883 125.043 96.6378L125.044 96.6348C125.213 96.1744 125.382 95.714 125.566 95.2627H125.556ZM142.735 87.3987C148.424 87.3987 151.491 91.3396 150.507 97.4987C149.959 100.934 148.198 103.552 144.889 104.766C141.766 105.911 138.674 105.818 135.951 103.632C135.183 102.996 134.561 102.195 134.13 101.288C133.432 99.8102 133.114 98.1771 133.206 96.5409C133.299 94.9047 133.798 93.3189 134.657 91.9318C135.516 90.5446 136.708 89.4012 138.121 88.6085C139.533 87.8157 141.121 87.3996 142.735 87.3987ZM146.262 96.0645C146.284 93.1759 145.288 91.6204 143.367 91.1473C141.375 90.6617 139.312 91.6051 138.565 93.7526C138.067 95.3019 137.856 96.9313 137.942 98.5585C137.994 100.076 138.938 101.212 140.49 101.627C142.042 102.042 143.447 101.692 144.576 100.471C145.811 99.1252 146.197 97.4708 146.262 96.0645ZM92.9056 102.394L92.3371 105.12C92.6973 105.12 93.0457 105.114 93.3831 105.109L93.4051 105.108H93.409C94.1609 105.095 94.858 105.084 95.5083 105.138C96.4574 105.216 96.8809 104.938 97.0727 103.911C97.6274 100.931 98.256 97.9692 98.9585 95.0249C99.4965 92.7662 101.248 91.165 103.106 91.0107C104.778 90.8742 105.687 91.7265 105.498 93.3808C105.38 94.3517 105.179 95.3122 104.979 96.271L104.979 96.2724L104.912 96.5913L104.857 96.8562C104.473 98.7157 104.08 100.583 103.677 102.496L103.673 102.516L103.536 103.169L103.278 104.397L103.126 105.12C103.49 105.12 103.844 105.123 104.19 105.126C105.12 105.134 105.993 105.142 106.863 105.087C107.04 105.05 107.205 104.97 107.345 104.853C107.484 104.736 107.593 104.586 107.662 104.417C107.806 103.742 107.951 103.067 108.096 102.392L108.099 102.378C108.793 99.149 109.487 95.9208 110.026 92.6649C110.507 89.7612 108.567 87.6138 105.652 87.4064C104.649 87.3075 103.637 87.4367 102.689 87.7845C101.741 88.1323 100.881 88.6901 100.172 89.4171L100.225 88.724C100.254 88.359 100.276 88.0708 100.299 87.7731H95.9642C94.9424 92.6261 93.9383 97.4411 92.9147 102.35L92.9056 102.394ZM81.421 90.7528C81.2242 93.4264 79.057 95.3993 76.2645 95.46C74.3139 95.503 72.3584 95.5283 70.4104 95.4448C69.4887 95.4043 69.2047 95.7736 69.0427 96.6058C68.5981 98.9025 68.1118 101.192 67.6233 103.492C67.5152 104.001 67.4069 104.511 67.299 105.021H62.7153C62.7835 104.688 62.8487 104.367 62.9123 104.054C62.9882 103.679 63.0619 103.316 63.136 102.956L63.211 102.594L63.2584 102.368C63.4117 101.639 63.5616 100.909 63.7115 100.179L63.7134 100.17C64.0623 98.4715 64.4113 96.7725 64.8029 95.0832C65.4356 92.397 67.5132 90.7528 70.2185 90.7528H81.421ZM84.2408 100.612C83.9406 102.065 83.6369 103.535 83.3268 105.031H87.7585L88.9698 99.2169C89.7624 95.4128 90.5591 91.5892 91.3656 87.7125C90.9536 87.7125 90.5609 87.7173 90.1817 87.722C89.3503 87.7326 88.5838 87.7423 87.8207 87.6972C87.0485 87.6492 86.8392 88.0109 86.7122 88.6912C86.4841 89.9069 86.2247 91.1171 85.9655 92.3268L85.9641 92.3337C85.9018 92.6243 85.8396 92.9148 85.7777 93.2055C85.7124 93.5125 85.6476 93.8197 85.5837 94.127C85.1375 96.2721 84.6932 98.4228 84.2408 100.612Z" fill="#A6A6A6"></path> </svg> 