<?xml version="1.0" encoding="UTF-8"?> <svg xmlns="http://www.w3.org/2000/svg" width="320" height="135" viewBox="0 0 320 135" fill="none"> <rect width="320" height="4038" fill="#030303"></rect> <path d="M35.1 73.544C22.996 73.544 14.7 65.248 14.7 51.172V47.228C14.7 33.288 23.132 24.856 35.1 24.856C47.204 24.856 55.5 33.152 55.5 47.228V51.172C55.5 65.112 47.068 73.544 35.1 73.544ZM35.1 67.424C43.124 67.424 48.836 61.78 48.836 51.172V47.228C48.836 36.756 43.056 30.976 35.1 30.976C27.076 30.976 21.364 36.62 21.364 47.228V51.172C21.364 61.644 27.212 67.424 35.1 67.424ZM80.6573 73.544C69.4373 73.544 62.2973 66.404 62.2973 53.96V25.4H68.6893V53.96C68.6893 62.664 73.3813 67.424 80.6573 67.424C87.9333 67.424 92.6253 62.732 92.6253 53.96V25.4H99.0173V53.96C99.0173 66.336 91.8093 73.544 80.6573 73.544ZM135.019 73L125.635 54.3C124.819 54.368 124.003 54.368 123.187 54.368H113.939V73H107.547V25.4H123.187C135.359 25.4 140.867 30.908 140.867 39.884C140.867 46.276 137.943 50.968 131.823 53.076L142.227 73H135.019ZM123.187 31.248H113.939V48.52H123.187C130.939 48.52 134.203 45.256 134.203 39.884C134.203 34.512 130.939 31.248 123.187 31.248Z" fill="#EBEBEB"></path> <path d="M33.74 131.544C22.588 131.544 17.08 126.376 16.4 115.7H23.2C23.812 122.636 26.872 125.424 33.74 125.424C41.084 125.424 44.416 122.092 44.416 117.944C44.416 106.112 17.08 113.116 17.08 95.776C17.08 88.432 22.724 82.856 33.74 82.856C44.688 82.856 49.72 87.888 50.4 97.34H43.6C42.852 91.492 40.404 88.976 33.74 88.976C26.804 88.976 23.744 91.968 23.744 95.776C23.744 106.996 51.08 99.924 51.08 118.012C51.08 125.968 45.504 131.544 33.74 131.544ZM57.9039 131V83.4H87.4839V89.248H64.2959V103.596H83.4039V109.444H64.2959V125.152H87.4839V131H57.9039ZM121.387 131L112.003 112.3C111.187 112.368 110.371 112.368 109.555 112.368H100.307V131H93.9147V83.4H109.555C121.727 83.4 127.235 88.908 127.235 97.884C127.235 104.276 124.311 108.968 118.191 111.076L128.595 131H121.387ZM109.555 89.248H100.307V106.52H109.555C117.307 106.52 120.571 103.256 120.571 97.884C120.571 92.512 117.307 89.248 109.555 89.248ZM146.655 131L128.635 83.4H135.707L150.395 123.18L163.995 83.4H170.795L154.135 131H146.655ZM176.109 131V83.4H182.501V131H176.109ZM210.213 131.544C198.449 131.544 190.153 123.248 190.153 109.172V105.228C190.153 91.22 198.517 82.856 210.213 82.856C220.685 82.856 227.553 89.724 228.913 97.34H221.977C220.617 93.056 216.605 88.976 210.213 88.976C202.529 88.976 196.817 94.688 196.817 105.228V109.172C196.817 119.644 202.597 125.424 210.213 125.424C216.537 125.424 220.617 121.344 221.977 115.7H228.913C227.553 124.608 220.617 131.544 210.213 131.544ZM235.368 131V83.4H264.948V89.248H241.76V103.596H260.868V109.444H241.76V125.152H264.948V131H235.368ZM286.679 131.544C275.527 131.544 270.019 126.376 269.339 115.7H276.139C276.751 122.636 279.811 125.424 286.679 125.424C294.023 125.424 297.355 122.092 297.355 117.944C297.355 106.112 270.019 113.116 270.019 95.776C270.019 88.432 275.663 82.856 286.679 82.856C297.627 82.856 302.659 87.888 303.339 97.34H296.539C295.791 91.492 293.343 88.976 286.679 88.976C279.743 88.976 276.683 91.968 276.683 95.776C276.683 106.996 304.019 99.924 304.019 118.012C304.019 125.968 298.443 131.544 286.679 131.544Z" fill="#FFDE59"></path> </svg> 