<?xml version="1.0" encoding="UTF-8"?> <svg xmlns="http://www.w3.org/2000/svg" width="960" height="360" viewBox="0 0 960 360" fill="none"> <rect width="960" height="360" fill="#030303"></rect> <path d="M71.175 34.1H92.845L143.08 172H122.986L109.984 134.176H53.051L39.852 172H20.94L71.175 34.1ZM104.074 117.234L82.01 52.815H81.616L58.961 117.234H104.074ZM211.076 34.1H256.386C273.065 34.1 285.082 37.3833 292.437 43.95C299.923 50.3853 303.666 59.3817 303.666 70.939C303.666 84.2037 297.887 93.9223 286.33 100.095V100.489C300.514 106.268 307.606 117.168 307.606 133.191C307.606 145.668 303.863 155.255 296.377 161.953C289.022 168.651 277.005 172 260.326 172H211.076V34.1ZM229.594 51.042V92.609H255.401C266.17 92.609 273.656 90.836 277.859 87.29C282.193 83.744 284.36 78.622 284.36 71.924C284.36 65.226 282.193 60.104 277.859 56.558C273.656 52.8807 266.17 51.042 255.401 51.042H229.594ZM229.594 109.551V155.058H259.341C270.11 155.058 277.596 153.219 281.799 149.542C286.133 145.733 288.3 139.955 288.3 132.206C288.3 124.589 286.133 118.941 281.799 115.264C277.596 111.455 270.11 109.551 259.341 109.551H229.594ZM328.905 34.1H347.423V172H328.905V34.1ZM406.628 51.042H362.697V34.1H469.077V51.042H425.146V172H406.628V51.042Z" fill="#EBEBEB"></path> <path d="M71.175 201.1H92.845L143.08 339H122.986L109.984 301.176H53.051L39.852 339H20.94L71.175 201.1ZM104.074 284.234L82.01 219.815H81.616L58.961 284.234H104.074ZM156.901 201.1H202.211C218.89 201.1 230.907 204.383 238.262 210.95C245.748 217.385 249.491 226.382 249.491 237.939C249.491 251.204 243.712 260.922 232.155 267.095V267.489C246.339 273.268 253.431 284.168 253.431 300.191C253.431 312.668 249.688 322.255 242.202 328.953C234.847 335.651 222.83 339 206.151 339H156.901V201.1ZM175.419 218.042V259.609H201.226C211.995 259.609 219.481 257.836 223.684 254.29C228.018 250.744 230.185 245.622 230.185 238.924C230.185 232.226 228.018 227.104 223.684 223.558C219.481 219.881 211.995 218.042 201.226 218.042H175.419ZM175.419 276.551V322.058H205.166C215.935 322.058 223.421 320.219 227.624 316.542C231.958 312.733 234.125 306.955 234.125 299.206C234.125 291.589 231.958 285.941 227.624 282.264C223.421 278.455 215.935 276.551 205.166 276.551H175.419ZM327.329 340.576C318.398 340.576 310.321 339.131 303.098 336.242C295.875 333.353 289.636 329.084 284.383 323.437C279.261 317.79 275.255 310.829 272.366 302.555C269.608 294.15 268.229 284.562 268.229 273.793V264.337C268.229 254.093 269.608 244.965 272.366 236.954C275.255 228.943 279.261 222.179 284.383 216.663C289.636 211.016 295.875 206.747 303.098 203.858C310.453 200.969 318.53 199.524 327.329 199.524C336.128 199.524 344.14 200.969 351.363 203.858C358.718 206.747 364.956 210.95 370.078 216.466C375.331 221.982 379.337 228.811 382.095 236.954C384.984 244.965 386.429 254.093 386.429 264.337V273.793C386.429 284.562 384.984 294.084 382.095 302.358C379.337 310.632 375.331 317.593 370.078 323.24C364.956 328.887 358.718 333.221 351.363 336.242C344.14 339.131 336.128 340.576 327.329 340.576ZM327.329 323.634C339.149 323.634 348.736 319.563 356.091 311.42C363.446 303.146 367.123 290.604 367.123 273.793V264.337C367.123 256.457 366.138 249.562 364.168 243.652C362.198 237.611 359.44 232.62 355.894 228.68C352.479 224.609 348.342 221.588 343.483 219.618C338.624 217.517 333.239 216.466 327.329 216.466C321.419 216.466 316.034 217.451 311.175 219.421C306.316 221.391 302.113 224.412 298.567 228.483C295.021 232.423 292.263 237.414 290.293 243.455C288.454 249.365 287.535 256.326 287.535 264.337V273.793C287.535 282.198 288.52 289.553 290.49 295.857C292.46 302.03 295.218 307.217 298.764 311.42C302.31 315.491 306.513 318.578 311.372 320.679C316.231 322.649 321.55 323.634 327.329 323.634ZM459.311 340.576C451.168 340.576 443.814 339.328 437.247 336.833C430.68 334.338 425.099 330.726 420.502 325.998C415.905 321.139 412.359 315.294 409.864 308.465C407.369 301.504 406.121 293.624 406.121 284.825V201.1H424.639V283.84C424.639 296.973 427.791 306.889 434.095 313.587C440.399 320.285 448.804 323.634 459.311 323.634C469.949 323.634 478.354 320.351 484.527 313.784C490.831 307.086 493.983 297.105 493.983 283.84V201.1H512.501V284.825C512.501 293.493 511.253 301.307 508.758 308.268C506.263 315.097 502.651 320.942 497.923 325.801C493.327 330.529 487.745 334.206 481.178 336.833C474.611 339.328 467.322 340.576 459.311 340.576ZM569.322 218.042H525.391V201.1H631.771V218.042H587.84V339H569.322V218.042ZM699.751 201.1H727.331L764.17 282.264H764.564L801.403 201.1H827.801V339H809.283V222.77H808.889L773.626 300.585H753.926L718.663 222.77H718.269V339H699.751V201.1ZM853.327 201.1H939.022V218.042H871.845V259.609H927.202V276.551H871.845V322.058H939.022V339H853.327V201.1Z" fill="#FFDE59"></path> </svg> 