<?xml version="1.0" encoding="UTF-8"?> <svg xmlns="http://www.w3.org/2000/svg" width="1384" height="294" viewBox="0 0 1384 294" fill="none"> <path fill-rule="evenodd" clip-rule="evenodd" d="M1181.52 133.087C1181.39 132.989 1181.27 132.894 1181.14 132.802L1180.86 132.594C1180.4 132.258 1179.96 131.941 1179.58 131.572C1177.37 129.458 1177.05 126.832 1177.72 124.023C1178.41 121.167 1180.27 119.062 1182.4 117.196C1185.22 114.724 1188.56 113.488 1192.27 113.121C1196.22 112.73 1200.04 113.314 1203.8 114.519C1203.84 114.532 1203.88 114.547 1203.92 114.562C1203.97 114.58 1204.01 114.599 1204.06 114.619L1204.2 114.679L1204.2 114.681C1204.31 114.728 1204.43 114.778 1204.56 114.828C1204.43 115.095 1204.3 115.361 1204.18 115.626C1203.85 116.327 1203.53 117.016 1203.18 117.689C1203.1 117.83 1202.71 117.908 1202.51 117.86C1200.03 117.295 1197.53 116.818 1194.98 116.921C1191.42 117.066 1188.18 118.041 1185.76 120.847C1184.79 121.965 1184.05 123.207 1183.85 124.737C1183.52 127.383 1184.52 129.409 1186.89 130.693C1188.76 131.706 1190.81 132.015 1192.89 132.181C1193.14 132.201 1193.39 132.181 1193.79 132.181L1193.41 132.937L1193.08 133.604L1192.47 134.807C1189.25 134.689 1186.14 135.116 1183.26 136.557C1178.14 139.128 1174.96 143.201 1174.09 148.917C1173.67 151.627 1174.95 154.066 1177.24 155.262C1178.51 155.923 1179.91 155.933 1181.3 155.855C1185.35 155.645 1189.05 154.273 1192.69 152.595L1192.73 152.577L1192.81 152.538C1192.89 152.502 1192.98 152.464 1193.1 152.414L1193.33 152.313C1193.24 152.52 1193.16 152.722 1193.08 152.92C1193.01 153.075 1192.95 153.229 1192.89 153.381C1192.58 154.105 1192.29 154.789 1192.09 155.497C1191.71 156.855 1190.85 157.59 1189.6 158.168C1185.87 159.895 1182.01 161.141 1177.91 161.581C1175.14 161.879 1172.48 161.581 1170 160.19C1166.98 158.505 1165.61 155.864 1165.38 152.497C1165.13 148.952 1166.54 145.904 1168.21 142.958C1170.71 138.564 1174.18 135.249 1179.1 133.673C1179.59 133.517 1180.1 133.405 1180.64 133.288C1180.92 133.226 1181.22 133.161 1181.52 133.087ZM1261.59 160.016C1262.36 158.376 1263.14 156.732 1263.92 155.084C1266 150.692 1268.09 146.303 1270.15 141.901C1270.44 141.301 1270.65 140.666 1270.78 140.013C1270.97 139.015 1270.37 138.366 1269.35 138.405C1268.97 138.409 1268.59 138.494 1268.24 138.654C1266.41 139.581 1264.58 140.522 1262.79 141.526C1262.36 141.801 1262.01 142.186 1261.78 142.641C1258.8 148.159 1255.83 153.688 1252.88 159.228C1252.56 159.846 1252.19 160.042 1251.52 160.023C1250.22 159.988 1248.92 159.995 1247.59 160.001C1247.05 160.004 1246.51 160.007 1245.96 160.007C1246.02 159.778 1246.1 159.553 1246.19 159.333C1250.21 151.224 1254.23 143.113 1258.25 135C1258.48 134.526 1258.73 134.32 1259.29 134.331C1261.29 134.368 1263.29 134.345 1265.4 134.345C1264.81 135.63 1264.28 136.817 1263.65 138.22C1264.01 138.016 1264.22 137.911 1264.42 137.793C1267.54 135.785 1270.87 134.261 1274.51 133.521C1275.61 133.298 1276.81 133.322 1277.94 133.452C1279.14 133.59 1279.87 134.553 1279.9 135.769C1279.91 136.325 1279.86 136.882 1279.81 137.467C1279.79 137.712 1279.76 137.962 1279.75 138.218C1279.99 138.064 1280.21 137.92 1280.43 137.775C1282.9 136.145 1285.42 134.609 1288.34 133.875C1289.76 133.52 1291.09 133.766 1292.37 134.339C1293.68 134.924 1294.24 136.193 1293.91 137.769C1293.76 138.498 1293.52 139.207 1293.21 139.883C1291.71 143.108 1290.2 146.329 1288.7 149.549C1287.65 151.779 1286.61 154.008 1285.57 156.238C1285.07 157.31 1284.57 158.382 1284.07 159.455C1283.83 159.969 1283.57 160.169 1282.98 160.156C1280.95 160.115 1278.92 160.141 1276.76 160.141L1276.94 159.747L1276.98 159.646C1277.15 159.265 1277.31 158.913 1277.48 158.562L1277.95 157.586L1277.97 157.549L1277.98 157.512L1278 157.474L1278.02 157.437C1280.62 152.071 1283.22 146.709 1285.79 141.333C1286.09 140.657 1286.3 139.946 1286.41 139.216C1286.51 138.662 1286.17 138.346 1285.58 138.386C1285.3 138.383 1285.03 138.422 1284.76 138.499C1282.37 139.415 1280.07 140.495 1278.02 142.04C1277.49 142.443 1277.06 142.951 1276.74 143.531C1273.89 148.773 1271.06 154.026 1268.26 159.29C1267.99 159.798 1267.7 160.039 1267.09 160.02C1265.87 159.994 1264.66 160.001 1263.41 160.009C1262.95 160.011 1262.48 160.014 1262.01 160.015L1261.59 160.016ZM1231.59 157.215C1231.86 157.083 1232.13 156.952 1232.4 156.824C1232.35 157.034 1232.28 157.355 1232.21 157.678C1231.82 159.713 1232.77 160.802 1234.84 160.675L1234.96 160.667L1235.07 160.657C1235.11 160.654 1235.15 160.649 1235.19 160.645L1235.29 160.634C1235.42 160.618 1235.56 160.598 1235.7 160.575C1235.79 160.558 1235.89 160.54 1235.98 160.521C1238.63 159.974 1241.21 159.203 1243.51 157.709L1243.57 157.665L1243.62 157.634L1243.7 157.586C1243.73 157.563 1243.77 157.539 1243.8 157.515C1243.84 157.489 1243.87 157.462 1243.91 157.435C1244.03 157.336 1244.13 157.226 1244.18 157.102C1244.55 156.081 1244.89 155.044 1245.25 153.921L1245.5 153.167C1244.07 154.139 1242.61 154.372 1241.14 154.576C1240.45 154.672 1239.93 154.252 1240 153.57C1240.05 153.01 1240.2 152.462 1240.43 151.948C1243.01 146.2 1245.59 140.453 1248.17 134.706C1248.19 134.665 1248.21 134.622 1248.23 134.578C1248.26 134.501 1248.28 134.421 1248.31 134.336C1248.34 134.261 1248.36 134.182 1248.39 134.098C1247.71 134.062 1247.02 134.032 1246.35 134.002L1246.33 134.001C1244.86 133.936 1243.4 133.872 1241.96 133.75C1239.44 133.54 1236.96 133.549 1234.46 134.047C1223.87 136.162 1216.09 144.517 1214.84 155.227C1214.43 158.805 1217.07 161.547 1220.63 161.051C1222.5 160.807 1224.35 160.363 1226.13 159.725C1227.63 159.169 1229.08 158.454 1230.52 157.739C1230.88 157.564 1231.23 157.388 1231.59 157.215ZM1232.99 153.675C1230.83 155.381 1228.49 156.649 1225.79 156.793C1225.47 156.789 1225.14 156.767 1224.82 156.727C1222.4 156.268 1221.51 155.59 1221.71 152.444C1221.87 150.082 1222.92 147.977 1224.07 145.969C1226.62 141.489 1230.13 138.039 1235.15 136.445C1236.5 136.015 1237.96 135.825 1239.38 135.715C1240.62 135.62 1240.99 136.293 1240.47 137.436C1238.11 142.635 1235.75 147.831 1233.38 153.025L1233.34 153.112C1233.3 153.213 1233.25 153.318 1233.19 153.415C1233.14 153.515 1233.07 153.606 1232.99 153.675ZM1219.44 120.578C1218.04 123.785 1216.71 126.841 1215.33 130.013H1220.22C1220.12 130.353 1220.02 130.687 1219.92 131.017L1219.92 131.03L1219.91 131.044C1219.59 132.149 1219.28 133.204 1218.93 134.248C1218.88 134.421 1218.52 134.594 1218.31 134.597C1216.66 134.626 1215.01 134.631 1213.36 134.597C1212.87 134.587 1212.64 134.76 1212.43 135.192C1209.65 140.904 1206.86 146.61 1204.06 152.311C1203.67 153.102 1203.52 153.91 1203.84 154.758C1204.16 155.606 1204.66 156.005 1205.5 155.728C1206.81 155.286 1208.07 154.747 1209.29 154.116C1209.81 153.854 1210.28 153.501 1210.8 153.114L1210.8 153.111L1210.82 153.101C1210.94 153.008 1211.07 152.912 1211.2 152.816C1211.33 152.723 1211.45 152.629 1211.59 152.535C1211.07 154.216 1210.61 155.752 1210.11 157.275C1210.05 157.459 1209.81 157.607 1209.62 157.723L1209.61 157.728C1206.87 159.395 1204.02 160.77 1200.8 161.207C1198.94 161.459 1197.68 160.561 1196.76 159.096C1195.51 157.119 1195.69 155.041 1196.65 153.05C1199.74 146.711 1202.85 140.387 1205.96 134.062C1206.99 131.963 1208.03 129.864 1209.06 127.765L1209.66 126.538L1209.68 126.51C1210.56 124.712 1211.44 122.914 1212.34 121.122C1212.46 120.893 1212.75 120.601 1212.96 120.598C1215.07 120.562 1217.17 120.578 1219.44 120.578ZM1234.03 174.104L1233.18 172.309C1234.95 171.544 1235.61 169.837 1234.73 168.199C1234.51 167.782 1234.04 167.242 1233.65 167.215C1232.44 167.136 1231.23 167.148 1229.99 167.16L1229.28 167.166C1229.06 167.168 1228.84 167.169 1228.62 167.169C1228.62 169.999 1228.62 172.749 1228.64 175.498C1228.64 175.597 1228.73 175.695 1228.83 175.793L1228.89 175.842C1228.94 175.896 1229 175.949 1229.04 176.003L1229.29 175.864V172.202C1229.55 172.202 1229.81 172.206 1230.06 172.209H1230.06C1230.48 172.214 1230.88 172.219 1231.28 172.208C1231.41 172.205 1231.54 172.199 1231.68 172.192C1232.21 172.159 1232.51 172.328 1232.73 172.837C1233.1 173.738 1233.53 174.62 1233.99 175.481C1234.08 175.643 1234.25 175.758 1234.43 175.872L1234.43 175.873C1234.51 175.925 1234.59 175.977 1234.66 176.034L1234.85 175.835L1234.41 174.905L1234.03 174.104ZM1233.24 171.34C1231.96 171.399 1230.68 171.357 1229.36 171.357V167.957C1229.75 167.957 1230.14 167.952 1230.53 167.948C1231.46 167.937 1232.38 167.926 1233.29 167.978C1234.04 168.02 1234.45 168.714 1234.44 169.641C1234.43 170.605 1234 171.305 1233.24 171.34ZM1250.3 168.172L1249.88 168.714C1249.03 167.929 1248.06 167.517 1246.96 167.734C1246.41 167.842 1245.8 168.076 1245.4 168.451C1244.51 169.309 1244.92 170.599 1246.14 170.834C1246.79 170.96 1247.47 170.942 1248.13 170.959C1249.47 170.993 1250.45 171.689 1250.66 172.793C1250.94 174.24 1250.32 175.386 1249 175.898C1247.2 176.592 1245.34 176.153 1244.15 174.786C1243.83 174.423 1243.84 174.175 1244.3 173.897C1245.47 175.363 1246.99 175.751 1248.75 175.172C1249.71 174.853 1250.2 174.126 1250.1 173.262C1250.05 172.888 1249.89 172.539 1249.63 172.269C1249.36 171.998 1249.02 171.821 1248.65 171.765C1248.51 171.748 1248.38 171.733 1248.25 171.72C1248.05 171.701 1247.85 171.686 1247.65 171.676C1247.47 171.666 1247.29 171.661 1247.12 171.659C1245.26 171.64 1244.41 171.041 1244.36 169.707C1244.3 168.153 1245.4 167.025 1247.1 166.894C1248.34 166.798 1249.36 167.246 1250.3 168.172ZM1213.16 167.146H1208.66L1208.66 169.203C1208.66 170.146 1208.66 171.081 1208.66 172.011C1208.66 173.175 1208.66 174.33 1208.67 175.485C1208.67 175.536 1208.69 175.586 1208.72 175.636C1208.75 175.685 1208.79 175.734 1208.83 175.784C1208.87 175.832 1208.91 175.881 1208.94 175.932C1208.95 175.903 1208.97 175.875 1209 175.847C1209.01 175.822 1209.03 175.797 1209.05 175.773C1209.1 175.713 1209.15 175.654 1209.18 175.593C1209.21 175.541 1209.23 175.488 1209.23 175.436C1209.24 175.034 1209.25 174.633 1209.25 174.235C1209.25 173.84 1209.25 173.449 1209.25 173.064C1209.24 172.8 1209.24 172.54 1209.24 172.284C1209.29 172.255 1209.32 172.233 1209.34 172.217C1209.37 172.193 1209.39 172.184 1209.4 172.184C1209.63 172.181 1209.87 172.179 1210.1 172.177L1210.57 172.174L1210.96 172.171C1211.52 172.167 1212.08 172.162 1212.64 172.15C1213.82 172.126 1214.45 171.58 1214.71 170.37C1214.99 169.038 1214.51 167.668 1213.6 167.252C1213.47 167.187 1213.32 167.151 1213.16 167.146ZM1211.58 171.322C1211.2 171.323 1210.82 171.319 1210.43 171.314C1210.2 171.312 1209.97 171.31 1209.74 171.308C1209.59 171.307 1209.44 171.306 1209.29 171.306V167.938C1209.67 167.938 1210.04 167.934 1210.42 167.929C1211.31 167.917 1212.19 167.906 1213.06 167.96C1213.78 168.005 1214.15 168.678 1214.13 169.668C1214.11 170.659 1213.74 171.252 1212.96 171.291C1212.5 171.314 1212.04 171.321 1211.58 171.322ZM1217.9 175.808C1218.98 173.027 1220.06 170.246 1221.16 167.481C1221.19 167.385 1221.29 167.279 1221.4 167.215C1221.46 167.176 1221.52 167.153 1221.57 167.158C1221.64 167.167 1221.7 167.186 1221.76 167.214C1221.8 167.229 1221.83 167.247 1221.86 167.268C1221.95 167.326 1222.02 167.402 1222.07 167.492C1223.16 170.273 1224.23 173.053 1225.31 175.845C1224.84 176.069 1224.63 175.915 1224.48 175.49C1224.24 174.758 1223.95 174.042 1223.62 173.344C1223.58 173.264 1223.52 173.19 1223.45 173.126C1223.41 173.088 1223.37 173.054 1223.32 173.022C1223.29 172.996 1223.25 172.972 1223.21 172.952C1223.12 172.906 1223.02 172.874 1222.92 172.857C1222.72 172.844 1222.53 172.837 1222.33 172.833C1222.03 172.828 1221.74 172.83 1221.44 172.832C1221.06 172.836 1220.67 172.839 1220.29 172.825C1219.84 172.806 1219.66 172.999 1219.52 173.39C1219.46 173.549 1219.41 173.708 1219.35 173.866C1219.28 174.053 1219.21 174.239 1219.14 174.425C1219 174.776 1218.85 175.124 1218.69 175.467C1218.62 175.622 1218.47 175.74 1218.32 175.858C1218.25 175.913 1218.18 175.968 1218.11 176.028L1217.9 175.808ZM1223.09 171.956L1221.61 168.145L1221.01 169.708L1220.14 171.956H1223.09ZM1239.91 173.482C1239.92 172.834 1239.91 172.187 1239.91 171.54C1239.91 171.228 1239.91 170.917 1239.91 170.606C1239.92 169.63 1239.92 168.654 1239.9 167.675C1239.9 167.496 1239.74 167.319 1239.65 167.141C1239.62 167.197 1239.59 167.252 1239.55 167.308C1239.47 167.43 1239.39 167.552 1239.39 167.674C1239.38 170.249 1239.38 172.824 1239.39 175.399C1239.4 175.578 1239.56 175.754 1239.65 175.932C1239.67 175.877 1239.71 175.821 1239.74 175.766C1239.82 175.645 1239.9 175.524 1239.9 175.402C1239.91 174.761 1239.91 174.122 1239.91 173.482Z" fill="#A6A6A6"></path> <path fill-rule="evenodd" clip-rule="evenodd" d="M718.187 122.701V126.25H718.917V125.083H719.111L720.229 126.25H721.104L719.986 125.083C720.245 125.057 720.479 124.934 720.686 124.714C720.9 124.487 721.007 124.221 721.007 123.917C721.007 123.573 720.887 123.285 720.647 123.051C720.407 122.818 720.106 122.701 719.743 122.701H718.187ZM716 124.5C716 125.498 716.334 126.331 717.001 126.999C717.669 127.666 718.502 128 719.5 128C720.498 128 721.331 127.666 721.999 126.999C722.666 126.331 723 125.498 723 124.5C723 123.502 722.666 122.669 721.999 122.001C721.331 121.334 720.498 121 719.5 121C718.502 121 717.669 121.334 717.001 122.001C716.334 122.669 716 123.502 716 124.5ZM721.444 126.483C720.926 127.008 720.278 127.271 719.5 127.271C718.716 127.271 718.064 127.008 717.546 126.483C717.034 125.958 716.778 125.297 716.778 124.5C716.778 123.703 717.034 123.042 717.546 122.517C718.064 121.992 718.716 121.729 719.5 121.729C720.278 121.729 720.926 121.992 721.444 122.517C721.963 123.042 722.222 123.703 722.222 124.5C722.222 125.297 721.963 125.958 721.444 126.483ZM719.743 124.5H718.917V123.333H719.743C719.892 123.333 720.019 123.388 720.122 123.499C720.226 123.609 720.278 123.748 720.278 123.917C720.278 124.085 720.226 124.225 720.122 124.335C720.019 124.445 719.892 124.5 719.743 124.5ZM685.447 122H669V155H685.447H702.553C711.636 155 719 147.613 719 138.5C719 129.387 711.636 122 702.553 122H685.447ZM685.447 155V122C694.531 122 701.895 129.387 701.895 138.5C701.895 147.613 694.531 155 685.447 155ZM793.548 139.7L795.123 138.35L793.323 136.55C792.393 135.62 791.748 134.75 791.388 133.94C791.028 133.1 790.848 132.02 790.848 130.7C790.848 128.51 791.628 126.695 793.188 125.255C794.778 123.785 796.848 123.05 799.398 123.05C801.828 123.05 803.853 123.83 805.473 125.39C807.123 126.92 807.948 128.765 807.948 130.925C807.948 133.415 806.673 135.59 804.123 137.45L801.648 139.25L807.948 146C808.248 145.31 808.503 144.695 808.713 144.155C809.253 142.715 809.523 141.38 809.523 140.15H814.248C814.248 142.34 813.723 144.515 812.673 146.675C812.133 147.695 811.608 148.52 811.098 149.15L816.723 155H810.648L807.948 152.075C807.168 152.735 806.358 153.305 805.518 153.785C803.478 154.895 801.438 155.45 799.398 155.45C796.248 155.45 793.773 154.67 791.973 153.11C790.173 151.55 789.273 149.555 789.273 147.125C789.273 145.445 789.618 144.065 790.308 142.985C790.998 141.905 792.078 140.81 793.548 139.7ZM798.948 136.1L800.748 134.75C801.648 134.06 802.278 133.46 802.638 132.95C803.028 132.44 803.223 131.765 803.223 130.925C803.223 129.785 802.863 128.87 802.143 128.18C801.453 127.46 800.538 127.1 799.398 127.1C798.228 127.1 797.298 127.49 796.608 128.27C795.918 129.05 795.573 129.935 795.573 130.925C795.573 131.915 796.098 132.965 797.148 134.075L798.948 136.1ZM805.248 149.375L798.048 141.5L796.698 142.625C795.798 143.255 795.123 143.9 794.673 144.56C794.223 145.22 793.998 146.075 793.998 147.125C793.998 148.235 794.478 149.225 795.438 150.095C796.398 150.965 797.718 151.4 799.398 151.4C801.948 151.4 803.898 150.725 805.248 149.375ZM747.4 150.5H741.1V128H747.4C750.37 128 752.83 129.05 754.78 131.15C756.76 133.22 757.75 135.92 757.75 139.25C757.75 142.58 756.76 145.295 754.78 147.395C752.83 149.465 750.37 150.5 747.4 150.5ZM736.375 123.5V155H747.4C751.69 155 755.275 153.515 758.155 150.545C761.035 147.575 762.475 143.81 762.475 139.25C762.475 134.69 761.035 130.925 758.155 127.955C755.275 124.985 751.69 123.5 747.4 123.5H736.375ZM782.734 141.95H769.459C769.819 140.09 770.569 138.62 771.709 137.54C772.849 136.43 774.349 135.875 776.209 135.875C777.979 135.875 779.449 136.43 780.619 137.54C781.789 138.65 782.494 140.12 782.734 141.95ZM786.334 148.475H781.609C781.219 149.345 780.529 150.095 779.539 150.725C778.579 151.325 777.469 151.625 776.209 151.625C774.409 151.625 772.894 151.055 771.664 149.915C770.434 148.775 769.699 147.245 769.459 145.325H786.784L786.874 144.695C786.964 143.885 787.009 143.345 787.009 143.075C787.009 139.925 785.974 137.3 783.904 135.2C781.834 133.1 779.269 132.05 776.209 132.05C772.939 132.05 770.239 133.13 768.109 135.29C766.009 137.45 764.959 140.27 764.959 143.75C764.959 147.23 766.009 150.05 768.109 152.21C770.239 154.37 772.939 155.45 776.209 155.45C778.849 155.45 781.024 154.745 782.734 153.335C784.474 151.895 785.674 150.275 786.334 148.475ZM829.307 150.5H823.007V128H829.307C832.277 128 834.737 129.05 836.687 131.15C838.667 133.22 839.657 135.92 839.657 139.25C839.657 142.58 838.667 145.295 836.687 147.395C834.737 149.465 832.277 150.5 829.307 150.5ZM818.282 123.5V155H829.307C833.597 155 837.182 153.515 840.062 150.545C842.942 147.575 844.382 143.81 844.382 139.25C844.382 134.69 842.942 130.925 840.062 127.955C837.182 124.985 833.597 123.5 829.307 123.5H818.282ZM851.366 141.95H864.641C864.401 140.12 863.696 138.65 862.526 137.54C861.356 136.43 859.886 135.875 858.116 135.875C856.256 135.875 854.756 136.43 853.616 137.54C852.476 138.62 851.726 140.09 851.366 141.95ZM863.516 148.475H868.241C867.581 150.275 866.381 151.895 864.641 153.335C862.931 154.745 860.756 155.45 858.116 155.45C854.846 155.45 852.146 154.37 850.016 152.21C847.916 150.05 846.866 147.23 846.866 143.75C846.866 140.27 847.916 137.45 850.016 135.29C852.146 133.13 854.846 132.05 858.116 132.05C861.176 132.05 863.741 133.1 865.811 135.2C867.881 137.3 868.916 139.925 868.916 143.075C868.916 143.345 868.871 143.885 868.781 144.695L868.691 145.325H851.366C851.606 147.245 852.341 148.775 853.571 149.915C854.801 151.055 856.316 151.625 858.116 151.625C859.376 151.625 860.486 151.325 861.446 150.725C862.436 150.095 863.126 149.345 863.516 148.475ZM887.396 145.325H882.671C882.671 148.235 883.781 150.65 886.001 152.57C888.221 154.49 891.236 155.45 895.046 155.45C898.856 155.45 901.796 154.595 903.866 152.885C905.936 151.145 906.971 148.925 906.971 146.225C906.971 143.735 906.221 141.8 904.721 140.42C903.251 139.01 900.926 138.02 897.746 137.45L892.796 136.55C889.646 135.92 888.071 134.495 888.071 132.275C888.071 130.955 888.641 129.845 889.781 128.945C890.951 128.015 892.556 127.55 894.596 127.55C896.756 127.55 898.496 128.105 899.816 129.215C901.136 130.325 901.796 131.645 901.796 133.175H906.521C906.521 130.235 905.471 127.82 903.371 125.93C901.301 124.01 898.376 123.05 894.596 123.05C891.176 123.05 888.446 123.935 886.406 125.705C884.366 127.445 883.346 129.635 883.346 132.275C883.346 134.495 883.961 136.325 885.191 137.765C886.451 139.205 888.311 140.15 890.771 140.6L896.846 141.725C900.446 142.415 902.246 143.915 902.246 146.225C902.246 147.665 901.661 148.82 900.491 149.69C899.321 150.53 897.506 150.95 895.046 150.95C892.796 150.95 890.951 150.395 889.511 149.285C888.101 148.175 887.396 146.855 887.396 145.325ZM911.492 150.275V136.775H907.892V132.5H911.492V126.2H915.992V132.5H921.167V136.775H915.992V149.6C915.992 150.5 916.442 150.95 917.342 150.95H921.167V155H916.442C914.852 155 913.622 154.58 912.752 153.74C911.912 152.9 911.492 151.745 911.492 150.275ZM928.398 132.5H923.898V146C923.898 148.91 924.708 151.22 926.328 152.93C927.978 154.61 930.168 155.45 932.898 155.45C934.698 155.45 936.318 155 937.758 154.1C938.358 153.71 938.913 153.26 939.423 152.75H939.648L940.098 155H944.148V132.5H939.648V146C939.648 147.47 939.078 148.745 937.938 149.825C936.828 150.875 935.448 151.4 933.798 151.4C932.268 151.4 930.978 150.875 929.928 149.825C928.908 148.745 928.398 147.47 928.398 146V132.5ZM965.527 155L965.077 152.3H964.852C963.262 154.4 960.937 155.45 957.877 155.45C954.877 155.45 952.402 154.385 950.452 152.255C948.502 150.125 947.527 147.29 947.527 143.75C947.527 140.21 948.502 137.375 950.452 135.245C952.402 133.115 954.877 132.05 957.877 132.05C959.197 132.05 960.397 132.29 961.477 132.77C962.587 133.22 963.307 133.61 963.637 133.94C963.967 134.24 964.372 134.66 964.852 135.2H965.077V123.5H969.577V155H965.527ZM953.872 149.285C955.132 150.695 956.692 151.4 958.552 151.4C960.412 151.4 961.957 150.695 963.187 149.285C964.447 147.875 965.077 146.03 965.077 143.75C965.077 141.47 964.447 139.625 963.187 138.215C961.957 136.805 960.412 136.1 958.552 136.1C956.692 136.1 955.132 136.805 953.872 138.215C952.642 139.625 952.027 141.47 952.027 143.75C952.027 146.03 952.642 147.875 953.872 149.285ZM978.784 132.5H974.284V155H978.784V132.5ZM974.059 123.5V128.225H979.009V123.5H974.059ZM988.57 149.33C989.86 150.71 991.48 151.4 993.43 151.4C995.38 151.4 996.985 150.71 998.245 149.33C999.535 147.92 1000.18 146.06 1000.18 143.75C1000.18 141.44 999.535 139.595 998.245 138.215C996.985 136.805 995.38 136.1 993.43 136.1C991.48 136.1 989.86 136.805 988.57 138.215C987.31 139.595 986.68 141.44 986.68 143.75C986.68 146.06 987.31 147.92 988.57 149.33ZM1001.49 152.21C999.385 154.37 996.7 155.45 993.43 155.45C990.16 155.45 987.46 154.37 985.33 152.21C983.23 150.05 982.18 147.23 982.18 143.75C982.18 140.27 983.23 137.45 985.33 135.29C987.46 133.13 990.16 132.05 993.43 132.05C996.7 132.05 999.385 133.13 1001.49 135.29C1003.62 137.45 1004.68 140.27 1004.68 143.75C1004.68 147.23 1003.62 150.05 1001.49 152.21Z" fill="#A6A6A6"></path> <path fill-rule="evenodd" clip-rule="evenodd" d="M360.056 121.001C359.706 121.002 359.354 121.002 359 121.002V154.999H364.228V131.251C364.703 131.06 364.936 131.291 365.178 131.604C371.149 139.291 377.117 146.981 383.081 154.672C383.159 154.794 383.269 154.893 383.399 154.959C383.53 155.025 383.676 155.055 383.822 155.046C384.63 155.028 385.438 155.031 386.245 155.034C386.548 155.035 386.85 155.036 387.153 155.036H387.798V121.027H382.609V144.42C382.173 144.555 381.929 144.436 381.676 144.113C380.323 142.338 378.952 140.573 377.581 138.807C377.115 138.207 376.649 137.607 376.184 137.007C372.137 131.776 368.084 126.548 364.023 121.324C363.913 121.183 363.714 121.016 363.554 121.016C362.391 120.998 361.232 120.999 360.056 121.001ZM466.499 131.361V133.594C466.372 133.542 466.251 133.502 466.137 133.464C465.912 133.389 465.716 133.323 465.563 133.203C463.287 131.404 460.663 130.762 457.813 131.047C455.066 131.321 452.688 132.454 450.658 134.31C446.858 137.786 445.663 143.297 447.801 147.984C449.643 152.023 452.878 154.446 457.335 155.162C460.356 155.647 463.121 154.965 465.558 153.092C465.712 152.974 465.911 152.911 466.141 152.838C466.257 152.801 466.382 152.761 466.514 152.71V155.009H471.549V131.361H466.499ZM456.374 136.562C457.26 136.207 458.208 136.028 459.165 136.035V136.032C460.114 136.035 461.054 136.223 461.93 136.584C462.807 136.944 463.602 137.471 464.271 138.135C464.94 138.798 465.47 139.584 465.83 140.449C466.191 141.314 466.374 142.24 466.371 143.174C466.368 144.109 466.177 145.034 465.811 145.896C465.444 146.758 464.908 147.541 464.234 148.199C463.56 148.858 462.761 149.379 461.882 149.734C461.004 150.088 460.062 150.269 459.113 150.266C455.125 150.242 451.846 147.036 451.859 143.165C451.859 142.224 452.049 141.292 452.418 140.424C452.786 139.555 453.325 138.767 454.004 138.104C454.683 137.441 455.489 136.917 456.374 136.562ZM522.96 133.57V131.358H528V155.014H522.982V152.734C522.859 152.773 522.74 152.804 522.629 152.833C522.39 152.895 522.182 152.949 522.025 153.066C518.472 155.719 514.619 155.946 510.627 154.263C507.367 152.89 505.096 150.488 503.917 147.194C502.69 143.771 502.957 140.406 504.775 137.232C506.593 134.058 509.368 132.019 512.998 131.25C516.297 130.553 519.358 131.133 522.048 133.248C522.193 133.359 522.387 133.41 522.606 133.467C522.718 133.497 522.838 133.528 522.96 133.57ZM515.622 136.035C514.666 136.023 513.717 136.198 512.83 136.551C511.943 136.903 511.136 137.426 510.456 138.088C509.777 138.75 509.238 139.539 508.871 140.408C508.504 141.278 508.316 142.21 508.319 143.151C508.299 147.06 511.568 150.268 515.583 150.268C519.579 150.268 522.847 147.108 522.874 143.211C522.881 142.27 522.698 141.337 522.337 140.466C521.975 139.595 521.442 138.803 520.768 138.136C520.094 137.469 519.292 136.94 518.409 136.579C517.526 136.218 516.579 136.033 515.622 136.035ZM393.076 143.153C393.04 149.821 398.655 155.308 405.456 155.315C412.277 155.32 417.908 149.8 417.901 143.146C417.895 136.493 412.264 130.907 405.474 130.941C402.185 130.943 399.031 132.231 396.706 134.521C394.381 136.811 393.076 139.916 393.076 143.153ZM402.687 136.555C403.574 136.201 404.523 136.024 405.479 136.035C409.523 136.048 412.787 139.261 412.746 143.2C412.725 145.085 411.948 146.885 410.585 148.209C409.221 149.533 407.382 150.274 405.467 150.271C401.447 150.274 398.182 147.085 398.192 143.165C398.187 142.224 398.372 141.291 398.736 140.421C399.101 139.55 399.638 138.76 400.317 138.097C400.995 137.433 401.801 136.909 402.687 136.555ZM501.662 131.376C501.586 131.565 501.535 131.706 501.472 131.843C496.265 143.432 491.054 155.02 485.84 166.608C485.77 166.764 485.586 166.982 485.459 166.982C483.991 167.002 482.522 167.001 481.02 166.999C480.627 166.999 480.232 166.999 479.834 166.999C479.878 166.9 479.917 166.811 479.953 166.728L479.954 166.724C479.997 166.626 480.036 166.536 480.077 166.447C482.008 162.202 483.942 157.957 485.878 153.712C485.943 153.583 485.977 153.441 485.975 153.298C485.974 153.154 485.938 153.013 485.87 152.886C482.725 145.906 479.587 138.924 476.457 131.941C476.406 131.828 476.359 131.714 476.305 131.584C476.278 131.519 476.25 131.451 476.218 131.376H479.433C479.619 131.376 479.805 131.378 479.992 131.38H479.993C480.441 131.384 480.889 131.389 481.337 131.368C481.682 131.351 481.828 131.48 481.962 131.778C484.009 136.308 486.065 140.834 488.129 145.357L488.163 145.434C488.187 145.486 488.211 145.538 488.236 145.591C488.311 145.754 488.386 145.917 488.456 146.082L488.466 146.105C488.551 146.305 488.642 146.521 488.914 146.427C489.091 146.366 489.239 146.243 489.33 146.083C491.028 142.404 492.717 138.721 494.398 135.033C494.906 133.91 495.413 132.786 495.942 131.677C496.002 131.552 496.168 131.39 496.287 131.389C497.703 131.374 499.12 131.375 500.567 131.376C500.825 131.376 501.084 131.376 501.344 131.376L501.662 131.376ZM442.206 137.761C443.15 135.658 444.097 133.551 445.076 131.376C444.611 131.376 444.151 131.377 443.695 131.378C442.464 131.381 441.262 131.384 440.059 131.366C439.656 131.36 439.457 131.47 439.285 131.844C437.139 136.571 434.987 141.295 432.831 146.017C432.82 146.04 432.81 146.064 432.801 146.087C432.719 146.282 432.643 146.462 432.323 146.454C432.008 146.446 431.933 146.272 431.85 146.08C431.839 146.054 431.828 146.028 431.816 146.002C429.644 141.253 427.478 136.5 425.318 131.742C425.19 131.464 425.046 131.355 424.724 131.368C424.206 131.387 423.686 131.383 423.167 131.379C422.956 131.378 422.746 131.376 422.535 131.376H419.576C419.855 131.995 420.124 132.595 420.39 133.186C420.587 133.626 420.783 134.062 420.978 134.498C423.994 141.196 427.001 147.896 430 154.599C430.154 154.944 430.33 155.054 430.702 155.045C431.796 155.018 432.89 155.018 433.984 155.045C434.345 155.054 434.502 154.935 434.644 154.617C437.161 148.998 439.682 143.38 442.206 137.761Z" fill="#A6A6A6"></path> <path fill-rule="evenodd" clip-rule="evenodd" d="M133.448 118.622L133.771 117.019C133.163 117.019 132.573 117.014 131.996 117.009C130.477 116.997 129.045 116.985 127.617 117.064C127.35 117.124 127.1 117.249 126.89 117.428C126.68 117.607 126.515 117.834 126.411 118.092C126.051 119.469 125.774 120.868 125.489 122.305C125.385 122.83 125.28 123.359 125.17 123.895H132.257C132.381 123.566 132.488 123.23 132.579 122.89C132.867 121.515 133.144 120.135 133.448 118.622ZM122.004 117.076C121.254 121.356 118.234 123.982 114.198 124.02C113.471 124.025 112.744 124.03 112.017 124.035C108.939 124.059 105.86 124.082 102.786 124.02C99.3126 123.936 96.2359 124.69 93.9424 127.719C93.8937 124.907 94.7444 121.52 96.4345 119.994C97.8098 118.75 99.6274 117.312 101.306 117.236C106.375 116.985 111.456 117.018 116.6 117.052H116.609C118.399 117.064 120.197 117.076 122.004 117.076ZM160.831 156.493H167.536C169.454 159.278 171.613 160.195 174.656 159.29C178.403 158.179 179.213 155.001 179.809 151.394L179.678 151.464L179.557 151.528L179.356 151.632C179.131 151.749 178.952 151.842 178.767 151.957C172.673 155.736 165.651 152.79 163.979 145.743C162.458 139.37 165.201 131.912 170.399 128.712C173.865 126.577 177.564 126.181 181.266 128.107C181.994 128.485 182.631 129.046 183.297 129.632L183.303 129.637L183.304 129.639C183.614 129.911 183.93 130.19 184.264 130.458C184.486 129.534 184.71 128.586 184.958 127.544H191.861C191.517 129.206 191.176 130.859 190.836 132.508C190.165 135.766 189.498 139.002 188.821 142.239C188.496 143.801 188.16 145.361 187.824 146.921L187.821 146.933L187.82 146.938C187.318 149.269 186.816 151.6 186.348 153.94C184.043 165.405 171.01 167.056 164.669 162.981C162.413 161.531 161.206 159.408 160.831 156.493ZM182.863 138.795L182.346 138.578C182.346 135.352 181.09 133.251 178.774 132.582C177.495 132.231 176.135 132.349 174.932 132.914C173.729 133.478 172.76 134.455 172.194 135.671C171.204 137.759 170.589 140.009 170.376 142.315C170.114 145.108 171.665 147.235 173.719 147.863C174.894 148.242 176.159 148.21 177.314 147.773C178.469 147.335 179.446 146.518 180.09 145.45C180.931 144.026 181.511 142.444 182.091 140.864L182.093 140.86C182.347 140.167 182.602 139.474 182.878 138.795H182.863ZM208.706 126.965C217.265 126.965 221.878 132.894 220.398 142.159C219.573 147.326 216.924 151.265 211.947 153.091C207.248 154.815 202.597 154.674 198.501 151.386C197.345 150.428 196.41 149.224 195.762 147.859C194.711 145.636 194.233 143.18 194.372 140.718C194.51 138.257 195.261 135.871 196.554 133.785C197.847 131.698 199.639 129.978 201.764 128.785C203.889 127.592 206.278 126.967 208.706 126.965ZM214.012 140.002C214.046 135.656 212.547 133.316 209.657 132.604C206.659 131.874 203.556 133.293 202.432 136.524C201.684 138.854 201.366 141.306 201.495 143.753C201.574 146.037 202.994 147.745 205.329 148.369C207.664 148.993 209.777 148.468 211.475 146.63C213.334 144.606 213.915 142.117 214.012 140.002ZM133.745 149.523L132.89 153.624C133.432 153.624 133.956 153.615 134.464 153.607L134.497 153.606H134.503C135.634 153.587 136.682 153.57 137.661 153.651C139.088 153.769 139.725 153.35 140.014 151.805C140.848 147.323 141.794 142.867 142.851 138.438C143.66 135.04 146.295 132.631 149.09 132.399C151.605 132.194 152.973 133.476 152.688 135.964C152.511 137.425 152.209 138.87 151.908 140.312L151.907 140.314L151.807 140.794L151.725 141.193C151.147 143.99 150.556 146.798 149.95 149.677L149.944 149.707L149.737 150.69L149.349 152.536L149.12 153.624C149.669 153.624 150.201 153.629 150.722 153.634C152.12 153.646 153.434 153.658 154.742 153.574C155.008 153.519 155.257 153.398 155.467 153.222C155.676 153.046 155.841 152.821 155.945 152.566C156.161 151.551 156.379 150.535 156.597 149.52L156.602 149.5C157.646 144.642 158.69 139.785 159.501 134.887C160.224 130.519 157.305 127.289 152.92 126.977C151.411 126.828 149.888 127.022 148.462 127.546C147.036 128.069 145.743 128.908 144.676 130.002L144.757 128.959C144.8 128.41 144.833 127.976 144.867 127.529H138.346C136.809 134.829 135.299 142.072 133.759 149.457L133.745 149.523ZM116.469 132.011C116.172 136.033 112.912 139.001 108.711 139.092C105.777 139.157 102.835 139.195 99.9046 139.069C98.518 139.009 98.0908 139.564 97.8472 140.816C97.1784 144.271 96.4467 147.716 95.7119 151.175C95.5492 151.941 95.3864 152.708 95.224 153.476H88.3286C88.4312 152.975 88.5292 152.491 88.6249 152.02C88.7391 151.457 88.85 150.91 88.9614 150.369L89.0742 149.825L89.1456 149.484C89.3762 148.388 89.6017 147.29 89.8272 146.192L89.8301 146.178C90.355 143.623 90.88 141.067 91.469 138.525C92.4209 134.484 95.5463 132.011 99.6161 132.011H116.469ZM120.71 146.842C120.259 149.028 119.802 151.239 119.335 153.491H126.002L127.824 144.744C129.017 139.021 130.215 133.269 131.429 127.437C130.809 127.437 130.218 127.445 129.648 127.452C128.397 127.467 127.244 127.482 126.096 127.414C124.934 127.342 124.619 127.886 124.428 128.91C124.085 130.738 123.695 132.559 123.305 134.379L123.303 134.389C123.209 134.826 123.115 135.263 123.022 135.701C122.924 136.163 122.827 136.625 122.731 137.087C122.059 140.314 121.391 143.549 120.71 146.842Z" fill="#A6A6A6"></path> </svg> 