<?xml version="1.0" encoding="UTF-8"?> <svg xmlns="http://www.w3.org/2000/svg" width="1440" height="531" viewBox="0 0 1440 531" fill="none"> <g clip-path="url(#clip0_143_2612)"> <rect width="1440" height="531" fill="#030303"></rect> <path d="M104.675 44.1H137.345L213.08 252H182.786L163.184 194.976H77.351L57.452 252H28.94L104.675 44.1ZM154.274 169.434L121.01 72.315H120.416L86.261 169.434H154.274ZM315.591 44.1H383.901C409.047 44.1 427.164 49.05 438.252 58.95C449.538 68.652 455.181 82.215 455.181 99.639C455.181 119.637 446.469 134.289 429.045 143.595V144.189C450.429 152.901 461.121 169.335 461.121 193.491C461.121 212.301 455.478 226.755 444.192 236.853C433.104 246.951 414.987 252 389.841 252H315.591V44.1ZM343.509 69.642V132.309H382.416C398.652 132.309 409.938 129.636 416.274 124.29C422.808 118.944 426.075 111.222 426.075 101.124C426.075 91.026 422.808 83.304 416.274 77.958C409.938 72.414 398.652 69.642 382.416 69.642H343.509ZM343.509 157.851V226.458H388.356C404.592 226.458 415.878 223.686 422.214 218.142C428.748 212.4 432.015 203.688 432.015 192.006C432.015 180.522 428.748 172.008 422.214 166.464C415.878 160.722 404.592 157.851 388.356 157.851H343.509ZM493.232 44.1H521.15V252H493.232V44.1ZM610.408 69.642H544.177V44.1H704.557V69.642H638.326V252H610.408V69.642Z" fill="#EBEBEB"></path> <path d="M104.675 296.1H137.345L213.08 504H182.786L163.184 446.976H77.351L57.452 504H28.94L104.675 296.1ZM154.274 421.434L121.01 324.315H120.416L86.261 421.434H154.274ZM233.916 296.1H302.226C327.372 296.1 345.489 301.05 356.577 310.95C367.863 320.652 373.506 334.215 373.506 351.639C373.506 371.637 364.794 386.289 347.37 395.595V396.189C368.754 404.901 379.446 421.335 379.446 445.491C379.446 464.301 373.803 478.755 362.517 488.853C351.429 498.951 333.312 504 308.166 504H233.916V296.1ZM261.834 321.642V384.309H300.741C316.977 384.309 328.263 381.636 334.599 376.29C341.133 370.944 344.4 363.222 344.4 353.124C344.4 343.026 341.133 335.304 334.599 329.958C328.263 324.414 316.977 321.642 300.741 321.642H261.834ZM261.834 409.851V478.458H306.681C322.917 478.458 334.203 475.686 340.539 470.142C347.073 464.4 350.34 455.688 350.34 444.006C350.34 432.522 347.073 424.008 340.539 418.464C334.203 412.722 322.917 409.851 306.681 409.851H261.834ZM490.856 506.376C477.392 506.376 465.215 504.198 454.325 499.842C443.435 495.486 434.03 489.051 426.11 480.537C418.388 472.023 412.349 461.529 407.993 449.055C403.835 436.383 401.756 421.929 401.756 405.693V391.437C401.756 375.993 403.835 362.232 407.993 350.154C412.349 338.076 418.388 327.879 426.11 319.563C434.03 311.049 443.435 304.614 454.325 300.258C465.413 295.902 477.59 293.724 490.856 293.724C504.122 293.724 516.2 295.902 527.09 300.258C538.178 304.614 547.583 310.95 555.305 319.266C563.225 327.582 569.264 337.878 573.422 350.154C577.778 362.232 579.956 375.993 579.956 391.437V405.693C579.956 421.929 577.778 436.284 573.422 448.758C569.264 461.232 563.225 471.726 555.305 480.24C547.583 488.754 538.178 495.288 527.09 499.842C516.2 504.198 504.122 506.376 490.856 506.376ZM490.856 480.834C508.676 480.834 523.13 474.696 534.218 462.42C545.306 449.946 550.85 431.037 550.85 405.693V391.437C550.85 379.557 549.365 369.162 546.395 360.252C543.425 351.144 539.267 343.62 533.921 337.68C528.773 331.542 522.536 326.988 515.21 324.018C507.884 320.85 499.766 319.266 490.856 319.266C481.946 319.266 473.828 320.751 466.502 323.721C459.176 326.691 452.84 331.245 447.494 337.383C442.148 343.323 437.99 350.847 435.02 359.955C432.248 368.865 430.862 379.359 430.862 391.437V405.693C430.862 418.365 432.347 429.453 435.317 438.957C438.287 448.263 442.445 456.084 447.791 462.42C453.137 468.558 459.473 473.211 466.799 476.379C474.125 479.349 482.144 480.834 490.856 480.834ZM689.835 506.376C677.559 506.376 666.471 504.495 656.571 500.733C646.671 496.971 638.256 491.526 631.326 484.398C624.396 477.072 619.05 468.261 615.288 457.965C611.526 447.471 609.645 435.591 609.645 422.325V296.1H637.563V420.84C637.563 440.64 642.315 455.589 651.819 465.687C661.323 475.785 673.995 480.834 689.835 480.834C705.873 480.834 718.545 475.884 727.851 465.984C737.355 455.886 742.107 440.838 742.107 420.84V296.1H770.025V422.325C770.025 435.393 768.144 447.174 764.382 457.668C760.62 467.964 755.175 476.775 748.047 484.101C741.117 491.229 732.702 496.773 722.802 500.733C712.902 504.495 701.913 506.376 689.835 506.376ZM855.688 321.642H789.457V296.1H949.837V321.642H883.606V504H855.688V321.642ZM1052.33 296.1H1093.91L1149.44 418.464H1150.04L1205.58 296.1H1245.38V504H1217.46V328.77H1216.86L1163.7 446.085H1134L1080.84 328.77H1080.24V504H1052.33V296.1ZM1283.86 296.1H1413.05V321.642H1311.78V384.309H1395.23V409.851H1311.78V478.458H1413.05V504H1283.86V296.1Z" fill="#FFDE59"></path> </g> <defs> <clipPath id="clip0_143_2612"> <rect width="1440" height="531" fill="white"></rect> </clipPath> </defs> </svg> 