<?xml version="1.0" encoding="UTF-8"?> <svg xmlns="http://www.w3.org/2000/svg" width="480" height="175" viewBox="0 0 480 175" fill="none"> <rect width="480" height="951" fill="#030303"></rect> <path d="M42.225 90.744C25.671 90.744 14.325 79.398 14.325 60.147V54.753C14.325 35.688 25.857 24.156 42.225 24.156C58.779 24.156 70.125 35.502 70.125 54.753V60.147C70.125 79.212 58.593 90.744 42.225 90.744ZM42.225 82.374C53.199 82.374 61.011 74.655 61.011 60.147V54.753C61.011 40.431 53.106 32.526 42.225 32.526C31.251 32.526 23.439 40.245 23.439 54.753V60.147C23.439 74.469 31.437 82.374 42.225 82.374ZM104.531 90.744C89.1864 90.744 79.4214 80.979 79.4214 63.96V24.9H88.1634V63.96C88.1634 75.864 94.5804 82.374 104.531 82.374C114.482 82.374 120.899 75.957 120.899 63.96V24.9H129.641V63.96C129.641 80.886 119.783 90.744 104.531 90.744ZM178.878 90L166.044 64.425C164.928 64.518 163.812 64.518 162.696 64.518H150.048V90H141.306V24.9H162.696C179.343 24.9 186.876 32.433 186.876 44.709C186.876 53.451 182.877 59.868 174.507 62.751L188.736 90H178.878ZM162.696 32.898H150.048V56.52H162.696C173.298 56.52 177.762 52.056 177.762 44.709C177.762 37.362 173.298 32.898 162.696 32.898Z" fill="#EBEBEB"></path> <path d="M61.569 169L55.245 151.144H28.833L22.509 169H13.395L37.11 103.9H47.34L71.055 169H61.569ZM37.296 127.522L31.716 143.146H52.362L46.875 127.522L42.132 113.665L37.296 127.522ZM77.1363 169V103.9H98.5263C115.173 103.9 122.706 111.433 122.706 124.732C122.706 137.659 114.801 145.564 98.5263 145.564H85.8783V169H77.1363ZM98.5263 111.898H85.8783V137.566H98.5263C109.221 137.566 113.685 133.102 113.685 124.732C113.685 116.176 109.407 111.898 98.5263 111.898ZM130.11 169V103.9H151.5C168.147 103.9 175.68 111.433 175.68 124.732C175.68 137.659 167.775 145.564 151.5 145.564H138.852V169H130.11ZM151.5 111.898H138.852V137.566H151.5C162.195 137.566 166.659 133.102 166.659 124.732C166.659 116.176 162.381 111.898 151.5 111.898ZM220.656 169L207.822 143.425C206.706 143.518 205.59 143.518 204.474 143.518H191.826V169H183.084V103.9H204.474C221.121 103.9 228.654 111.433 228.654 123.709C228.654 132.451 224.655 138.868 216.285 141.751L230.514 169H220.656ZM204.474 111.898H191.826V135.52H204.474C215.076 135.52 219.54 131.056 219.54 123.709C219.54 116.362 215.076 111.898 204.474 111.898ZM263.54 169.744C246.986 169.744 235.64 158.398 235.64 139.147V133.753C235.64 114.688 247.172 103.156 263.54 103.156C280.094 103.156 291.44 114.502 291.44 133.753V139.147C291.44 158.212 279.908 169.744 263.54 169.744ZM263.54 161.374C274.514 161.374 282.326 153.655 282.326 139.147V133.753C282.326 119.431 274.421 111.526 263.54 111.526C252.566 111.526 244.754 119.245 244.754 133.753V139.147C244.754 153.469 252.752 161.374 263.54 161.374ZM341.514 169L335.19 151.144H308.778L302.454 169H293.34L317.055 103.9H327.285L351 169H341.514ZM317.241 127.522L311.661 143.146H332.307L326.82 127.522L322.077 113.665L317.241 127.522ZM380.374 169.744C364.285 169.744 352.939 158.398 352.939 139.147V133.753C352.939 114.595 364.378 103.156 380.374 103.156C394.696 103.156 404.089 112.549 405.949 122.965H396.463C394.603 117.106 389.116 111.526 380.374 111.526C369.865 111.526 362.053 119.338 362.053 133.753V139.147C362.053 153.469 369.958 161.374 380.374 161.374C389.023 161.374 394.603 155.794 396.463 148.075H405.949C404.089 160.258 394.603 169.744 380.374 169.744ZM457.185 169V139.519H423.519V169H414.777V103.9H423.519V131.521H457.185V103.9H465.927V169H457.185Z" fill="#FFDE59"></path> </svg> 