<?xml version="1.0" encoding="UTF-8"?> <svg xmlns="http://www.w3.org/2000/svg" width="960" height="348" viewBox="0 0 960 348" fill="none"> <rect width="960" height="2988" fill="#030303"></rect> <path d="M117.016 171L103.96 134.136H49.432L36.376 171H17.56L66.52 36.6H87.64L136.6 171H117.016ZM66.904 85.368L55.384 117.624H98.008L86.68 85.368L76.888 56.76L66.904 85.368ZM149.155 171V36.6H192.355C225.955 36.6 239.395 50.04 239.395 72.504C239.395 84.792 233.827 94.968 222.115 101.112C236.515 106.872 243.235 118.392 243.235 133.176C243.235 157.56 229.795 171 196.195 171H149.155ZM196.195 109.944H167.203V154.488H196.195C216.931 154.488 224.419 147 224.419 132.216C224.419 117.432 216.931 109.944 196.195 109.944ZM192.355 53.112H167.203V93.816H192.355C213.091 93.816 220.579 86.328 220.579 73.464C220.579 60.6 213.091 53.112 192.355 53.112ZM315.258 172.536C281.082 172.536 257.658 149.112 257.658 109.368V98.232C257.658 58.872 281.466 35.064 315.258 35.064C349.434 35.064 372.858 58.488 372.858 98.232V109.368C372.858 148.728 349.05 172.536 315.258 172.536ZM315.258 155.256C337.914 155.256 354.042 139.32 354.042 109.368V98.232C354.042 68.664 337.722 52.344 315.258 52.344C292.602 52.344 276.474 68.28 276.474 98.232V109.368C276.474 138.936 292.986 155.256 315.258 155.256ZM443.89 172.536C412.21 172.536 392.05 152.376 392.05 117.24V36.6H410.098V117.24C410.098 141.816 423.346 155.256 443.89 155.256C464.434 155.256 477.682 142.008 477.682 117.24V36.6H495.73V117.24C495.73 152.184 475.378 172.536 443.89 172.536ZM508.293 53.112V36.6H611.973V53.112H569.157V171H551.109V53.112H508.293Z" fill="#EBEBEB"></path> <path d="M149.24 335.536C117.752 335.536 102.2 320.944 100.28 290.8H119.48C121.208 310.384 129.848 318.256 149.24 318.256C169.976 318.256 179.384 308.848 179.384 297.136C179.384 263.728 102.2 283.504 102.2 234.544C102.2 213.808 118.136 198.064 149.24 198.064C180.152 198.064 194.36 212.272 196.28 238.96H177.08C174.968 222.448 168.056 215.344 149.24 215.344C129.656 215.344 121.016 223.792 121.016 234.544C121.016 266.224 198.2 246.256 198.2 297.328C198.2 319.792 182.456 335.536 149.24 335.536ZM217.467 334V199.6H300.988V216.112H235.516V256.624H289.468V273.136H235.516V317.488H300.988V334H217.467ZM396.713 334L370.217 281.2C367.913 281.392 365.609 281.392 363.305 281.392H337.193V334H319.145V199.6H363.305C397.673 199.6 413.225 215.152 413.225 240.496C413.225 258.544 404.969 271.792 387.689 277.744L417.065 334H396.713ZM363.305 216.112H337.193V264.88H363.305C385.193 264.88 394.409 255.664 394.409 240.496C394.409 225.328 385.193 216.112 363.305 216.112ZM468.057 334L417.177 199.6H437.145L478.617 311.92L517.017 199.6H536.218L489.177 334H468.057ZM551.224 334V199.6H569.272V334H551.224ZM647.518 335.536C614.302 335.536 590.878 312.112 590.878 272.368V261.232C590.878 221.68 614.494 198.064 647.518 198.064C677.086 198.064 696.478 217.456 700.318 238.96H680.734C676.894 226.864 665.566 215.344 647.518 215.344C625.822 215.344 609.694 231.472 609.694 261.232V272.368C609.694 301.936 626.014 318.256 647.518 318.256C665.374 318.256 676.894 306.736 680.734 290.8H700.318C696.478 315.952 676.894 335.536 647.518 335.536ZM718.542 334V199.6H802.063V216.112H736.59V256.624H790.542V273.136H736.59V317.488H802.063V334H718.542ZM863.42 335.536C831.932 335.536 816.38 320.944 814.46 290.8H833.66C835.388 310.384 844.028 318.256 863.42 318.256C884.156 318.256 893.564 308.848 893.564 297.136C893.564 263.728 816.38 283.504 816.38 234.544C816.38 213.808 832.316 198.064 863.42 198.064C894.332 198.064 908.54 212.272 910.46 238.96H891.26C889.148 222.448 882.236 215.344 863.42 215.344C843.836 215.344 835.196 223.792 835.196 234.544C835.196 266.224 912.38 246.256 912.38 297.328C912.38 319.792 896.636 335.536 863.42 335.536Z" fill="#FFDE59"></path> </svg> 