<?xml version="1.0" encoding="UTF-8"?> <svg xmlns="http://www.w3.org/2000/svg" width="320" height="260" viewBox="0 0 320 260" fill="none"> <rect width="320" height="260" fill="#030303"></rect> <path d="M39.575 23.9H49.805L73.52 89H64.034L57.896 71.144H31.019L24.788 89H15.86L39.575 23.9ZM55.106 63.146L44.69 32.735H44.504L33.809 63.146H55.106ZM105.62 23.9H127.01C134.884 23.9 140.557 25.45 144.029 28.55C147.563 31.588 149.33 35.835 149.33 41.291C149.33 47.553 146.602 52.141 141.146 55.055V55.241C147.842 57.969 151.19 63.115 151.19 70.679C151.19 76.569 149.423 81.095 145.889 84.257C142.417 87.419 136.744 89 128.87 89H105.62V23.9ZM114.362 31.898V51.521H126.545C131.629 51.521 135.163 50.684 137.147 49.01C139.193 47.336 140.216 44.918 140.216 41.756C140.216 38.594 139.193 36.176 137.147 34.502C135.163 32.766 131.629 31.898 126.545 31.898H114.362ZM114.362 59.519V81.002H128.405C133.489 81.002 137.023 80.134 139.007 78.398C141.053 76.6 142.076 73.872 142.076 70.214C142.076 66.618 141.053 63.952 139.007 62.216C137.023 60.418 133.489 59.519 128.405 59.519H114.362ZM161.244 23.9H169.986V89H161.244V23.9ZM197.936 31.898H177.197V23.9H227.417V31.898H206.678V89H197.936V31.898Z" fill="#EBEBEB"></path> <path d="M39.575 102.9H49.805L73.52 168H64.034L57.896 150.144H31.019L24.788 168H15.86L39.575 102.9ZM55.106 142.146L44.69 111.735H44.504L33.809 142.146H55.106ZM80.0445 102.9H101.435C109.309 102.9 114.982 104.45 118.454 107.55C121.988 110.588 123.755 114.835 123.755 120.291C123.755 126.553 121.027 131.141 115.571 134.055V134.241C122.267 136.969 125.615 142.115 125.615 149.679C125.615 155.569 123.848 160.095 120.314 163.257C116.842 166.419 111.169 168 103.295 168H80.0445V102.9ZM88.7865 110.898V130.521H100.97C106.054 130.521 109.588 129.684 111.572 128.01C113.618 126.336 114.641 123.918 114.641 120.756C114.641 117.594 113.618 115.176 111.572 113.502C109.588 111.766 106.054 110.898 100.97 110.898H88.7865ZM88.7865 138.519V160.002H102.83C107.914 160.002 111.448 159.134 113.432 157.398C115.478 155.6 116.501 152.872 116.501 149.214C116.501 145.618 115.478 142.952 113.432 141.216C111.448 139.418 107.914 138.519 102.83 138.519H88.7865ZM160.5 168.744C156.284 168.744 152.471 168.062 149.061 166.698C145.651 165.334 142.706 163.319 140.226 160.653C137.808 157.987 135.917 154.701 134.553 150.795C133.251 146.827 132.6 142.301 132.6 137.217V132.753C132.6 127.917 133.251 123.608 134.553 119.826C135.917 116.044 137.808 112.851 140.226 110.247C142.706 107.581 145.651 105.566 149.061 104.202C152.533 102.838 156.346 102.156 160.5 102.156C164.654 102.156 168.436 102.838 171.846 104.202C175.318 105.566 178.263 107.55 180.681 110.154C183.161 112.758 185.052 115.982 186.354 119.826C187.718 123.608 188.4 127.917 188.4 132.753V137.217C188.4 142.301 187.718 146.796 186.354 150.702C185.052 154.608 183.161 157.894 180.681 160.56C178.263 163.226 175.318 165.272 171.846 166.698C168.436 168.062 164.654 168.744 160.5 168.744ZM160.5 160.746C166.08 160.746 170.606 158.824 174.078 154.98C177.55 151.074 179.286 145.153 179.286 137.217V132.753C179.286 129.033 178.821 125.778 177.891 122.988C176.961 120.136 175.659 117.78 173.985 115.92C172.373 113.998 170.42 112.572 168.126 111.642C165.832 110.65 163.29 110.154 160.5 110.154C157.71 110.154 155.168 110.619 152.874 111.549C150.58 112.479 148.596 113.905 146.922 115.827C145.248 117.687 143.946 120.043 143.016 122.895C142.148 125.685 141.714 128.971 141.714 132.753V137.217C141.714 141.185 142.179 144.657 143.109 147.633C144.039 150.547 145.341 152.996 147.015 154.98C148.689 156.902 150.673 158.359 152.967 159.351C155.261 160.281 157.772 160.746 160.5 160.746ZM222.807 168.744C218.963 168.744 215.491 168.155 212.391 166.977C209.291 165.799 206.656 164.094 204.486 161.862C202.316 159.568 200.642 156.809 199.464 153.585C198.286 150.299 197.697 146.579 197.697 142.425V102.9H206.439V141.96C206.439 148.16 207.927 152.841 210.903 156.003C213.879 159.165 217.847 160.746 222.807 160.746C227.829 160.746 231.797 159.196 234.711 156.096C237.687 152.934 239.175 148.222 239.175 141.96V102.9H247.917V142.425C247.917 146.517 247.328 150.206 246.15 153.492C244.972 156.716 243.267 159.475 241.035 161.769C238.865 164.001 236.23 165.737 233.13 166.977C230.03 168.155 226.589 168.744 222.807 168.744ZM274.741 110.898H254.002V102.9H304.222V110.898H283.483V168H274.741V110.898Z" fill="#FFDE59"></path> <path d="M191.44 181.9H204.46L221.851 220.216H222.037L239.428 181.9H251.89V247H243.148V192.13H242.962L226.315 228.865H217.015L200.368 192.13H200.182V247H191.44V181.9ZM263.94 181.9H304.395V189.898H272.682V209.521H298.815V217.519H272.682V239.002H304.395V247H263.94V181.9Z" fill="#FFDE59"></path> </svg> 