<?xml version="1.0" encoding="UTF-8"?> <svg xmlns="http://www.w3.org/2000/svg" width="1440" height="509" viewBox="0 0 1440 509" fill="none"> <g clip-path="url(#clip0_548_2058)"> <rect width="1440" height="11030" transform="translate(0 -5096)" fill="#030303"></rect> <path d="M179.37 253L159.65 197.32H77.29L57.57 253H29.15L103.1 50H135L208.95 253H179.37ZM103.68 123.66L86.28 172.38H150.66L133.55 123.66L118.76 80.45L103.68 123.66ZM227.913 253V50H293.163C343.913 50 364.213 70.3 364.213 104.23C364.213 122.79 355.803 138.16 338.113 147.44C359.863 156.14 370.013 173.54 370.013 195.87C370.013 232.7 349.713 253 298.963 253H227.913ZM298.963 160.78H255.173V228.06H298.963C330.283 228.06 341.593 216.75 341.593 194.42C341.593 172.09 330.283 160.78 298.963 160.78ZM293.163 74.94H255.173V136.42H293.163C324.483 136.42 335.793 125.11 335.793 105.68C335.793 86.25 324.483 74.94 293.163 74.94ZM478.797 255.32C427.177 255.32 391.797 219.94 391.797 159.91V143.09C391.797 83.64 427.757 47.68 478.797 47.68C530.417 47.68 565.797 83.06 565.797 143.09V159.91C565.797 219.36 529.837 255.32 478.797 255.32ZM478.797 229.22C513.017 229.22 537.377 205.15 537.377 159.91V143.09C537.377 98.43 512.727 73.78 478.797 73.78C444.577 73.78 420.217 97.85 420.217 143.09V159.91C420.217 204.57 445.157 229.22 478.797 229.22ZM673.086 255.32C625.236 255.32 594.786 224.87 594.786 171.8V50H622.046V171.8C622.046 208.92 642.056 229.22 673.086 229.22C704.116 229.22 724.126 209.21 724.126 171.8V50H751.386V171.8C751.386 224.58 720.646 255.32 673.086 255.32ZM770.361 74.94V50H926.961V74.94H862.291V253H835.031V74.94H770.361Z" fill="#EBEBEB"></path> <path d="M227.739 499.32C180.179 499.32 156.689 477.28 153.789 431.75H182.789C185.399 461.33 198.449 473.22 227.739 473.22C259.059 473.22 273.269 459.01 273.269 441.32C273.269 390.86 156.689 420.73 156.689 346.78C156.689 315.46 180.759 291.68 227.739 291.68C274.429 291.68 295.889 313.14 298.789 353.45H269.789C266.599 328.51 256.159 317.78 227.739 317.78C198.159 317.78 185.109 330.54 185.109 346.78C185.109 394.63 301.689 364.47 301.689 441.61C301.689 475.54 277.909 499.32 227.739 499.32ZM330.791 497V294H456.941V318.94H358.051V380.13H439.541V405.07H358.051V472.06H456.941V497H330.791ZM601.526 497L561.506 417.25C558.026 417.54 554.546 417.54 551.066 417.54H511.626V497H484.366V294H551.066C602.976 294 626.466 317.49 626.466 355.77C626.466 383.03 613.996 403.04 587.896 412.03L632.266 497H601.526ZM551.066 318.94H511.626V392.6H551.066C584.126 392.6 598.046 378.68 598.046 355.77C598.046 332.86 584.126 318.94 551.066 318.94ZM709.286 497L632.436 294H662.596L725.236 463.65L783.236 294H812.236L741.186 497H709.286ZM834.901 497V294H862.161V497H834.901ZM980.345 499.32C930.175 499.32 894.795 463.94 894.795 403.91V387.09C894.795 327.35 930.465 291.68 980.345 291.68C1025.01 291.68 1054.3 320.97 1060.1 353.45H1030.52C1024.72 335.18 1007.61 317.78 980.345 317.78C947.575 317.78 923.215 342.14 923.215 387.09V403.91C923.215 448.57 947.865 473.22 980.345 473.22C1007.32 473.22 1024.72 455.82 1030.52 431.75H1060.1C1054.3 469.74 1024.72 499.32 980.345 499.32ZM1087.62 497V294H1213.77V318.94H1114.88V380.13H1196.37V405.07H1114.88V472.06H1213.77V497H1087.62ZM1306.45 499.32C1258.89 499.32 1235.4 477.28 1232.5 431.75H1261.5C1264.11 461.33 1277.16 473.22 1306.45 473.22C1337.77 473.22 1351.98 459.01 1351.98 441.32C1351.98 390.86 1235.4 420.73 1235.4 346.78C1235.4 315.46 1259.47 291.68 1306.45 291.68C1353.14 291.68 1374.6 313.14 1377.5 353.45H1348.5C1345.31 328.51 1334.87 317.78 1306.45 317.78C1276.87 317.78 1263.82 330.54 1263.82 346.78C1263.82 394.63 1380.4 364.47 1380.4 441.61C1380.4 475.54 1356.62 499.32 1306.45 499.32Z" fill="#FFDE59"></path> </g> <defs> <clipPath id="clip0_548_2058"> <rect width="1440" height="11030" fill="white" transform="translate(0 -5096)"></rect> </clipPath> </defs> </svg> 