<?xml version="1.0" encoding="UTF-8"?> <svg xmlns="http://www.w3.org/2000/svg" width="1440" height="509" viewBox="0 0 1440 509" fill="none"> <g clip-path="url(#clip0_597_1956)"> <rect width="1440" height="11030" transform="translate(0 -5096)" fill="#030303"></rect> <path d="M160.44 253V161.07H55.46V253H28.2V50H55.46V136.13H160.44V50H187.7V253H160.44ZM356.759 253L337.039 197.32H254.679L234.959 253H206.539L280.489 50H312.389L386.339 253H356.759ZM281.069 123.66L263.669 172.38H328.049L310.939 123.66L296.149 80.45L281.069 123.66ZM405.302 253V50H432.562V228.06H504.772V50H532.032V228.06H604.242V50H631.502V253H405.302ZM801.567 253V81.03L786.487 110.9L706.447 253H669.327V50H696.587V221.97L711.667 192.1L791.707 50H828.827V253H801.567Z" fill="#EBEBEB"></path> <path d="M440.402 497L465.342 439.87L392.552 294H423.292L479.842 410L528.272 294H557.852L469.982 497H440.402ZM647.775 499.32C597.605 499.32 562.225 463.94 562.225 403.91V387.09C562.225 327.35 597.895 291.68 647.775 291.68C692.435 291.68 721.725 320.97 727.525 353.45H697.945C692.145 335.18 675.035 317.78 647.775 317.78C615.005 317.78 590.645 342.14 590.645 387.09V403.91C590.645 448.57 615.295 473.22 647.775 473.22C674.745 473.22 692.145 455.82 697.945 431.75H727.525C721.725 469.74 692.145 499.32 647.775 499.32ZM736.202 499.32V473.22H742.002C759.982 473.22 772.452 460.75 772.452 396.95V294H905.852V497H878.592V318.94H799.712V396.95C799.712 479.31 779.702 499.32 742.002 499.32H736.202ZM973.911 497L998.851 439.87L926.061 294H956.801L1013.35 410L1061.78 294H1091.36L1003.49 497H973.911ZM1111.76 497V294H1232.11V318.94H1139.02V497H1111.76ZM1384.55 497V325.03L1369.47 354.9L1289.43 497H1252.31V294H1279.57V465.97L1294.65 436.1L1374.69 294H1411.81V497H1384.55Z" fill="#FFDE59"></path> </g> <defs> <clipPath id="clip0_597_1956"> <rect width="1440" height="11030" fill="white" transform="translate(0 -5096)"></rect> </clipPath> </defs> </svg> 