<?xml version="1.0" encoding="UTF-8"?> <svg xmlns="http://www.w3.org/2000/svg" width="450" height="440" viewBox="0 0 450 440" fill="none"> <path fill-rule="evenodd" clip-rule="evenodd" d="M266.853 88.0009C266.57 88.0013 266.286 88.0017 266 88.0017V115.716H270.222V96.3571C270.607 96.2014 270.794 96.3897 270.99 96.6442C275.813 102.911 280.633 109.18 285.45 115.45C285.513 115.549 285.602 115.631 285.707 115.684C285.813 115.738 285.931 115.762 286.049 115.755C286.701 115.74 287.353 115.743 288.006 115.745C288.25 115.746 288.495 115.747 288.739 115.747H289.26V88.0221H285.069V107.092C284.717 107.202 284.52 107.105 284.315 106.842C283.223 105.395 282.115 103.956 281.008 102.517C280.631 102.028 280.255 101.539 279.879 101.049C276.611 96.7846 273.337 92.5229 270.057 88.2643C269.968 88.1493 269.807 88.0129 269.678 88.0129C268.739 87.998 267.803 87.9994 266.853 88.0009ZM352.826 96.4467V98.2666C352.724 98.2248 352.626 98.1918 352.534 98.1608C352.352 98.0995 352.194 98.046 352.07 97.948C350.232 96.4813 348.113 95.9581 345.811 96.1902C343.592 96.4141 341.671 97.3373 340.032 98.8508C336.962 101.684 335.997 106.177 337.724 109.998C339.212 113.291 341.824 115.265 345.424 115.85C347.865 116.245 350.098 115.689 352.066 114.162C352.191 114.066 352.351 114.014 352.537 113.955C352.631 113.924 352.732 113.892 352.838 113.851V115.725H356.905V96.4467H352.826ZM344.648 100.687C345.364 100.397 346.13 100.251 346.902 100.256V100.254C347.669 100.257 348.428 100.41 349.136 100.704C349.844 100.998 350.486 101.428 351.027 101.968C351.567 102.509 351.995 103.15 352.286 103.855C352.577 104.56 352.726 105.315 352.723 106.077C352.72 106.839 352.566 107.593 352.27 108.296C351.974 108.998 351.541 109.636 350.997 110.173C350.453 110.71 349.807 111.135 349.097 111.424C348.387 111.713 347.627 111.861 346.86 111.858C343.639 111.838 340.991 109.225 341.001 106.069C341.002 105.302 341.155 104.543 341.453 103.835C341.75 103.126 342.186 102.484 342.734 101.944C343.282 101.403 343.933 100.976 344.648 100.687ZM398.429 98.2472V96.4436H402.5V115.729H398.447V113.87C398.347 113.902 398.252 113.927 398.162 113.951C397.968 114.002 397.801 114.046 397.674 114.141C394.804 116.304 391.692 116.489 388.468 115.117C385.835 113.997 384.001 112.039 383.049 109.354C382.058 106.563 382.273 103.82 383.741 101.233C385.21 98.6452 387.451 96.9831 390.383 96.3561C393.048 95.7881 395.52 96.2604 397.692 97.9846C397.809 98.0752 397.966 98.1167 398.143 98.1634C398.234 98.1874 398.331 98.2129 398.429 98.2472ZM392.503 100.256C391.73 100.247 390.963 100.39 390.247 100.677C389.531 100.965 388.879 101.391 388.33 101.931C387.781 102.47 387.346 103.113 387.049 103.822C386.753 104.531 386.601 105.291 386.604 106.058C386.587 109.245 389.228 111.86 392.471 111.86C395.698 111.86 398.338 109.284 398.36 106.107C398.365 105.34 398.218 104.579 397.926 103.869C397.634 103.159 397.203 102.514 396.659 101.97C396.114 101.426 395.466 100.994 394.753 100.7C394.04 100.406 393.275 100.255 392.503 100.256ZM293.523 106.059C293.493 111.495 298.029 115.969 303.523 115.974C309.031 115.978 313.579 111.478 313.574 106.054C313.569 100.63 309.021 96.0762 303.537 96.1037C300.88 96.1058 298.333 97.1557 296.455 99.0226C294.577 100.889 293.523 103.42 293.523 106.059ZM301.286 100.68C302.002 100.392 302.768 100.248 303.541 100.256C306.807 100.268 309.443 102.887 309.41 106.098C309.393 107.634 308.766 109.102 307.665 110.181C306.563 111.261 305.078 111.865 303.531 111.862C300.284 111.865 297.647 109.265 297.655 106.069C297.651 105.302 297.8 104.541 298.095 103.832C298.389 103.123 298.823 102.478 299.371 101.937C299.919 101.396 300.57 100.969 301.286 100.68ZM381.227 96.4589C381.166 96.6126 381.125 96.7276 381.074 96.8396C376.868 106.287 372.659 115.734 368.448 125.18C368.391 125.307 368.243 125.486 368.14 125.486C366.954 125.502 365.768 125.501 364.555 125.499C364.238 125.499 363.918 125.499 363.597 125.499C363.632 125.418 363.664 125.346 363.693 125.278L363.694 125.275C363.728 125.195 363.76 125.122 363.793 125.049C365.353 121.588 366.914 118.128 368.478 114.667C368.531 114.562 368.558 114.447 368.557 114.33C368.556 114.213 368.527 114.098 368.472 113.994C365.932 108.304 363.397 102.612 360.869 96.919C360.828 96.8269 360.79 96.7344 360.746 96.628C360.724 96.5755 360.702 96.5197 360.676 96.4589H363.273C363.423 96.4589 363.574 96.4604 363.724 96.4619H363.725C364.087 96.4654 364.449 96.469 364.81 96.4518C365.089 96.4385 365.207 96.5434 365.316 96.7866C366.969 100.479 368.629 104.169 370.296 107.857L370.324 107.919C370.344 107.961 370.363 108.004 370.383 108.047C370.443 108.18 370.504 108.313 370.561 108.447L370.569 108.466C370.637 108.629 370.711 108.805 370.931 108.729C371.073 108.679 371.193 108.579 371.267 108.448C372.638 105.449 374.002 102.446 375.36 99.4401C375.77 98.5241 376.18 97.608 376.607 96.7042C376.655 96.6024 376.79 96.4701 376.886 96.4691C378.03 96.4569 379.174 96.4577 380.342 96.4585C380.551 96.4586 380.76 96.4588 380.97 96.4588L381.227 96.4589ZM333.205 101.664C333.968 99.9491 334.732 98.232 335.523 96.4589C335.147 96.4589 334.776 96.4597 334.408 96.4606C333.414 96.4627 332.442 96.4649 331.471 96.4508C331.145 96.4457 330.984 96.5352 330.846 96.8406C329.112 100.693 327.374 104.545 325.633 108.394C325.624 108.413 325.616 108.432 325.608 108.451C325.542 108.61 325.481 108.757 325.223 108.75C324.968 108.744 324.907 108.602 324.84 108.446C324.831 108.424 324.822 108.403 324.813 108.382C323.059 104.511 321.309 100.636 319.564 96.7571C319.461 96.5302 319.345 96.4416 319.085 96.4518C318.666 96.4677 318.247 96.4646 317.827 96.4614C317.657 96.4602 317.487 96.4589 317.317 96.4589H314.927C315.152 96.9633 315.37 97.4522 315.584 97.9346C315.743 98.2933 315.901 98.6484 316.06 99.0035C318.495 104.464 320.924 109.926 323.346 115.391C323.47 115.672 323.613 115.761 323.913 115.754C324.797 115.732 325.681 115.732 326.564 115.754C326.855 115.761 326.982 115.664 327.097 115.405C329.13 110.825 331.166 106.244 333.205 101.664Z" fill="#A6A6A6"></path> <path fill-rule="evenodd" clip-rule="evenodd" d="M98.343 87.8686L98.6137 86.5158C98.1044 86.5158 97.6094 86.5117 97.1249 86.5076C95.8513 86.4971 94.6503 86.487 93.4527 86.5544C93.2281 86.6048 93.0187 86.7101 92.8425 86.8611C92.6663 87.0119 92.5284 87.2041 92.4406 87.4212C92.139 88.583 91.9065 89.764 91.6678 90.9762C91.5807 91.4189 91.4927 91.8657 91.4002 92.3175H97.3439C97.448 92.0398 97.5382 91.7568 97.6142 91.4698C97.8555 90.3094 98.088 89.1454 98.343 87.8686ZM88.7443 86.564C88.1156 90.1757 85.5823 92.3912 82.1971 92.4233C81.5876 92.4271 80.978 92.4316 80.3683 92.4361C77.7868 92.4557 75.2045 92.4753 72.6263 92.4233C69.7126 92.3527 67.1321 92.9884 65.2085 95.544C65.1676 93.1713 65.8811 90.314 67.2987 89.0265C68.4522 87.9765 69.9766 86.763 71.3847 86.6988C75.6361 86.487 79.8978 86.5152 84.2122 86.5438H84.2199C85.7211 86.5539 87.2286 86.564 88.7443 86.564ZM121.31 119.822H126.933C128.543 122.172 130.353 122.946 132.905 122.182C136.048 121.245 136.727 118.564 137.227 115.52L137.118 115.579L137.016 115.633L136.848 115.721C136.658 115.82 136.508 115.898 136.353 115.995C131.243 119.184 125.352 116.698 123.951 110.752C122.674 105.375 124.975 99.0819 129.335 96.3819C132.242 94.5807 135.344 94.2468 138.45 95.8713C139.06 96.1908 139.594 96.664 140.153 97.1583L140.158 97.1627L140.159 97.1639C140.419 97.394 140.684 97.6288 140.964 97.8554C141.15 97.0753 141.338 96.2759 141.546 95.3963H147.335C147.047 96.7985 146.761 98.1939 146.477 99.5848C145.914 102.334 145.354 105.065 144.786 107.795C144.513 109.113 144.232 110.429 143.95 111.746L143.948 111.756L143.947 111.761C143.526 113.727 143.105 115.694 142.712 117.668C140.779 127.342 129.847 128.735 124.529 125.296C122.637 124.073 121.625 122.282 121.31 119.822ZM139.789 104.89L139.355 104.707C139.355 101.984 138.302 100.212 136.36 99.647C135.286 99.3516 134.146 99.4509 133.137 99.9273C132.128 100.404 131.315 101.227 130.84 102.254C130.01 104.015 129.494 105.914 129.316 107.86C129.096 110.216 130.397 112.011 132.12 112.541C133.105 112.86 134.166 112.834 135.135 112.465C136.104 112.096 136.923 111.406 137.463 110.505C138.168 109.303 138.655 107.969 139.142 106.635L139.143 106.632C139.357 106.047 139.57 105.463 139.801 104.89H139.789ZM161.464 94.9083C168.643 94.9083 172.512 99.9104 171.27 107.728C170.579 112.088 168.357 115.411 164.183 116.952C160.241 118.406 156.341 118.288 152.905 115.514C151.935 114.705 151.151 113.689 150.607 112.537C149.727 110.662 149.326 108.589 149.442 106.512C149.558 104.436 150.188 102.423 151.272 100.662C152.356 98.9013 153.86 97.45 155.642 96.4437C157.424 95.4375 159.427 94.9093 161.464 94.9083ZM165.915 105.908C165.943 102.241 164.686 100.267 162.262 99.6663C159.748 99.05 157.145 100.247 156.202 102.973C155.574 104.94 155.308 107.008 155.416 109.073C155.482 111 156.674 112.441 158.632 112.968C160.59 113.494 162.363 113.051 163.787 111.501C165.346 109.793 165.833 107.693 165.915 105.908ZM98.5924 113.941L97.8751 117.402C98.3295 117.402 98.7691 117.394 99.1948 117.387L99.2226 117.387H99.2275C100.176 117.371 101.056 117.356 101.876 117.424C103.074 117.524 103.608 117.17 103.85 115.867C104.55 112.085 105.343 108.325 106.23 104.588C106.908 101.721 109.118 99.6888 111.463 99.4929C113.572 99.3196 114.719 100.402 114.48 102.501C114.331 103.734 114.078 104.953 113.826 106.17L113.825 106.172L113.742 106.576L113.672 106.913C113.187 109.273 112.692 111.642 112.184 114.072L112.178 114.097L112.005 114.926L111.679 116.484L111.488 117.402C111.948 117.402 112.394 117.406 112.831 117.41C114.004 117.42 115.106 117.43 116.203 117.36C116.426 117.313 116.635 117.211 116.811 117.063C116.987 116.914 117.124 116.724 117.212 116.509C117.393 115.652 117.576 114.796 117.759 113.939L117.763 113.922C118.639 109.823 119.514 105.725 120.194 101.593C120.801 97.9069 118.353 95.1812 114.675 94.9179C113.409 94.7925 112.132 94.9565 110.936 95.3979C109.74 95.8394 108.655 96.5474 107.76 97.4702L107.828 96.5904C107.864 96.1271 107.892 95.7613 107.921 95.3835H102.451C101.162 101.543 99.8954 107.655 98.6038 113.886L98.5924 113.941ZM84.1018 99.1656C83.8535 102.559 81.119 105.063 77.5955 105.14C75.1344 105.195 72.6671 105.227 70.2092 105.121C69.0462 105.07 68.6879 105.538 68.4836 106.595C67.9226 109.51 67.3089 112.416 66.6926 115.335C66.5561 115.982 66.4195 116.629 66.2834 117.276H60.5C60.5861 116.854 60.6682 116.446 60.7485 116.048C60.8443 115.573 60.9373 115.112 61.0307 114.655L61.1254 114.196L61.1852 113.909C61.3786 112.983 61.5678 112.057 61.7569 111.131L61.7593 111.119C62.1996 108.963 62.6399 106.806 63.134 104.662C63.9323 101.252 66.5537 99.1656 69.9671 99.1656H84.1018ZM87.6597 111.68C87.2808 113.524 86.8976 115.39 86.5064 117.289H92.098L93.6264 109.909C94.6265 105.08 95.6317 100.227 96.6493 95.3065C96.1294 95.3065 95.634 95.3126 95.1555 95.3186C94.1065 95.332 93.1393 95.3444 92.1766 95.2871C91.2022 95.2261 90.9382 95.6853 90.7779 96.5488C90.49 98.0919 90.1628 99.628 89.8358 101.163L89.834 101.172C89.7554 101.541 89.6768 101.91 89.5988 102.279C89.5164 102.668 89.4346 103.058 89.354 103.448C88.7911 106.171 88.2304 108.901 87.6597 111.68Z" fill="#A6A6A6"></path> <path fill-rule="evenodd" clip-rule="evenodd" d="M117.058 310.056V313.3H117.726V312.234H117.904L118.928 313.3H119.73L118.706 312.234C118.943 312.21 119.157 312.097 119.347 311.896C119.543 311.688 119.641 311.445 119.641 311.167C119.641 310.853 119.531 310.589 119.311 310.376C119.092 310.162 118.816 310.056 118.483 310.056H117.058ZM115.054 311.7C115.054 312.613 115.36 313.375 115.972 313.985C116.583 314.595 117.346 314.901 118.261 314.901C119.175 314.901 119.938 314.595 120.549 313.985C121.161 313.375 121.467 312.613 121.467 311.7C121.467 310.788 121.161 310.026 120.549 309.416C119.938 308.805 119.175 308.5 118.261 308.5C117.346 308.5 116.583 308.805 115.972 309.416C115.36 310.026 115.054 310.788 115.054 311.7ZM120.042 313.514C119.567 313.994 118.973 314.234 118.261 314.234C117.542 314.234 116.945 313.994 116.47 313.514C116.001 313.034 115.767 312.429 115.767 311.7C115.767 310.971 116.001 310.367 116.47 309.887C116.945 309.407 117.542 309.167 118.261 309.167C118.973 309.167 119.567 309.407 120.042 309.887C120.517 310.367 120.754 310.971 120.754 311.7C120.754 312.429 120.517 313.034 120.042 313.514ZM118.483 311.7H117.726V310.634H118.483C118.62 310.634 118.736 310.684 118.831 310.785C118.925 310.885 118.973 311.013 118.973 311.167C118.973 311.321 118.925 311.448 118.831 311.549C118.736 311.65 118.62 311.7 118.483 311.7ZM87.0666 309.414H72V339.589H87.0666H102.736C111.057 339.589 117.802 332.834 117.802 324.502C117.802 316.169 111.057 309.414 102.736 309.414H87.0666ZM87.0666 339.589V309.414C95.3877 309.414 102.133 316.169 102.133 324.502C102.133 332.834 95.3877 339.589 87.0666 339.589ZM186.092 325.599L187.535 324.364L185.886 322.718C185.034 321.868 184.443 321.072 184.113 320.332C183.784 319.564 183.619 318.576 183.619 317.369C183.619 315.367 184.333 313.707 185.762 312.39C187.219 311.046 189.115 310.374 191.451 310.374C193.677 310.374 195.532 311.087 197.016 312.514C198.527 313.913 199.283 315.6 199.283 317.575C199.283 319.852 198.115 321.841 195.779 323.541L193.512 325.187L199.283 331.359C199.558 330.728 199.792 330.166 199.984 329.672C200.479 328.355 200.726 327.135 200.726 326.01H205.054C205.054 328.013 204.573 330.001 203.611 331.976C203.117 332.909 202.636 333.663 202.169 334.239L207.321 339.589H201.756L199.283 336.914C198.569 337.517 197.827 338.039 197.057 338.478C195.188 339.493 193.32 340 191.451 340C188.565 340 186.298 339.287 184.649 337.86C183 336.434 182.176 334.61 182.176 332.388C182.176 330.852 182.492 329.59 183.124 328.602C183.756 327.615 184.745 326.614 186.092 325.599ZM191.039 322.307L192.688 321.072C193.512 320.442 194.089 319.893 194.419 319.427C194.776 318.96 194.955 318.343 194.955 317.575C194.955 316.533 194.625 315.696 193.965 315.065C193.333 314.407 192.495 314.078 191.451 314.078C190.379 314.078 189.527 314.434 188.895 315.147C188.263 315.861 187.947 316.67 187.947 317.575C187.947 318.48 188.428 319.44 189.39 320.455L191.039 322.307ZM196.81 334.445L190.214 327.244L188.978 328.273C188.153 328.849 187.535 329.439 187.123 330.042C186.71 330.646 186.504 331.428 186.504 332.388C186.504 333.403 186.944 334.308 187.823 335.104C188.703 335.899 189.912 336.297 191.451 336.297C193.787 336.297 195.573 335.68 196.81 334.445ZM143.818 335.474H138.047V314.9H143.818C146.539 314.9 148.792 315.861 150.579 317.781C152.393 319.673 153.299 322.142 153.299 325.187C153.299 328.232 152.393 330.715 150.579 332.635C148.792 334.527 146.539 335.474 143.818 335.474ZM133.719 310.786V339.589H143.818C147.748 339.589 151.032 338.231 153.67 335.515C156.309 332.799 157.628 329.357 157.628 325.187C157.628 321.018 156.309 317.575 153.67 314.859C151.032 312.144 147.748 310.786 143.818 310.786H133.719ZM176.186 327.656H164.025C164.355 325.955 165.042 324.611 166.086 323.624C167.131 322.609 168.505 322.101 170.209 322.101C171.83 322.101 173.177 322.609 174.248 323.624C175.32 324.639 175.966 325.983 176.186 327.656ZM179.484 333.622H175.155C174.798 334.418 174.166 335.104 173.259 335.68C172.38 336.228 171.363 336.503 170.209 336.503C168.56 336.503 167.172 335.981 166.045 334.939C164.918 333.897 164.245 332.498 164.025 330.742H179.896L179.978 330.166C180.061 329.425 180.102 328.932 180.102 328.685C180.102 325.804 179.154 323.404 177.258 321.484C175.361 319.564 173.012 318.604 170.209 318.604C167.213 318.604 164.74 319.591 162.789 321.566C160.865 323.541 159.903 326.12 159.903 329.302C159.903 332.484 160.865 335.062 162.789 337.037C164.74 339.012 167.213 340 170.209 340C172.627 340 174.619 339.355 176.186 338.066C177.78 336.749 178.879 335.268 179.484 333.622ZM218.849 335.474H213.078V314.9H218.849C221.57 314.9 223.823 315.861 225.61 317.781C227.423 319.673 228.33 322.142 228.33 325.187C228.33 328.232 227.423 330.715 225.61 332.635C223.823 334.527 221.57 335.474 218.849 335.474ZM208.75 310.786V339.589H218.849C222.779 339.589 226.063 338.231 228.701 335.515C231.34 332.799 232.659 329.357 232.659 325.187C232.659 321.018 231.34 317.575 228.701 314.859C226.063 312.144 222.779 310.786 218.849 310.786H208.75ZM239.056 327.656H251.217C250.997 325.983 250.351 324.639 249.279 323.624C248.208 322.609 246.861 322.101 245.239 322.101C243.536 322.101 242.162 322.609 241.117 323.624C240.073 324.611 239.386 325.955 239.056 327.656ZM250.186 333.622H254.515C253.91 335.268 252.811 336.749 251.217 338.066C249.65 339.355 247.658 340 245.239 340C242.244 340 239.771 339.012 237.819 337.037C235.896 335.062 234.934 332.484 234.934 329.302C234.934 326.12 235.896 323.541 237.819 321.566C239.771 319.591 242.244 318.604 245.239 318.604C248.043 318.604 250.392 319.564 252.289 321.484C254.185 323.404 255.133 325.804 255.133 328.685C255.133 328.932 255.092 329.425 255.009 330.166L254.927 330.742H239.056C239.276 332.498 239.949 333.897 241.076 334.939C242.203 335.981 243.591 336.503 245.239 336.503C246.394 336.503 247.411 336.228 248.29 335.68C249.197 335.104 249.829 334.418 250.186 333.622ZM272.061 330.742H267.733C267.733 333.403 268.75 335.611 270.783 337.367C272.817 339.122 275.579 340 279.069 340C282.559 340 285.252 339.218 287.149 337.655C289.045 336.064 289.993 334.034 289.993 331.565C289.993 329.288 289.306 327.519 287.932 326.257C286.585 324.968 284.455 324.062 281.542 323.541L277.008 322.718C274.122 322.142 272.68 320.839 272.68 318.809C272.68 317.602 273.202 316.587 274.246 315.765C275.318 314.914 276.788 314.489 278.657 314.489C280.636 314.489 282.229 314.996 283.439 316.011C284.648 317.026 285.252 318.233 285.252 319.632H289.581C289.581 316.944 288.619 314.736 286.695 313.008C284.799 311.252 282.12 310.374 278.657 310.374C275.524 310.374 273.023 311.184 271.154 312.802C269.286 314.393 268.351 316.395 268.351 318.809C268.351 320.839 268.915 322.513 270.041 323.829C271.196 325.146 272.9 326.01 275.153 326.422L280.718 327.45C284.016 328.081 285.665 329.453 285.665 331.565C285.665 332.882 285.129 333.938 284.057 334.733C282.985 335.501 281.323 335.885 279.069 335.885C277.008 335.885 275.318 335.378 273.999 334.363C272.707 333.348 272.061 332.141 272.061 330.742ZM294.135 335.268V322.924H290.837V319.015H294.135V313.255H298.257V319.015H302.997V322.924H298.257V334.651C298.257 335.474 298.669 335.885 299.493 335.885H302.997V339.589H298.669C297.212 339.589 296.086 339.204 295.289 338.436C294.519 337.668 294.135 336.612 294.135 335.268ZM309.622 319.015H305.5V331.359C305.5 334.02 306.242 336.132 307.726 337.696C309.237 339.232 311.243 340 313.744 340C315.393 340 316.877 339.589 318.196 338.766C318.746 338.409 319.254 337.998 319.721 337.531H319.927L320.34 339.589H324.05V319.015H319.927V331.359C319.927 332.703 319.405 333.869 318.361 334.857C317.344 335.817 316.08 336.297 314.569 336.297C313.167 336.297 311.985 335.817 311.023 334.857C310.089 333.869 309.622 332.703 309.622 331.359V319.015ZM343.633 339.589L343.221 337.12H343.015C341.559 339.04 339.429 340 336.626 340C333.878 340 331.61 339.026 329.824 337.079C328.038 335.131 327.145 332.539 327.145 329.302C327.145 326.065 328.038 323.473 329.824 321.525C331.61 319.577 333.878 318.604 336.626 318.604C337.835 318.604 338.934 318.823 339.923 319.262C340.94 319.673 341.6 320.03 341.902 320.332C342.204 320.606 342.575 320.99 343.015 321.484H343.221V310.786H347.343V339.589H343.633ZM332.957 334.363C334.111 335.652 335.54 336.297 337.244 336.297C338.948 336.297 340.363 335.652 341.49 334.363C342.644 333.074 343.221 331.387 343.221 329.302C343.221 327.217 342.644 325.53 341.49 324.241C340.363 322.951 338.948 322.307 337.244 322.307C335.54 322.307 334.111 322.951 332.957 324.241C331.83 325.53 331.267 327.217 331.267 329.302C331.267 331.387 331.83 333.074 332.957 334.363ZM355.778 319.015H351.656V339.589H355.778V319.015ZM351.45 310.786V315.106H355.984V310.786H351.45ZM364.742 334.404C365.924 335.666 367.408 336.297 369.194 336.297C370.981 336.297 372.451 335.666 373.605 334.404C374.787 333.115 375.378 331.414 375.378 329.302C375.378 327.19 374.787 325.503 373.605 324.241C372.451 322.951 370.981 322.307 369.194 322.307C367.408 322.307 365.924 322.951 364.742 324.241C363.588 325.503 363.011 327.19 363.011 329.302C363.011 331.414 363.588 333.115 364.742 334.404ZM376.573 337.037C374.65 339.012 372.19 340 369.194 340C366.199 340 363.726 339.012 361.774 337.037C359.851 335.062 358.889 332.484 358.889 329.302C358.889 326.12 359.851 323.541 361.774 321.566C363.726 319.591 366.199 318.604 369.194 318.604C372.19 318.604 374.65 319.591 376.573 321.566C378.524 323.541 379.5 326.12 379.5 329.302C379.5 332.484 378.524 335.062 376.573 337.037Z" fill="#A6A6A6"></path> </svg> 