<?xml version="1.0" encoding="UTF-8"?> <svg xmlns="http://www.w3.org/2000/svg" width="610" height="131" viewBox="0 0 610 131" fill="none"> <path fill-rule="evenodd" clip-rule="evenodd" d="M518.768 57.0391C518.712 56.9956 518.656 56.9539 518.601 56.9132L518.476 56.8217C518.272 56.6735 518.081 56.5338 517.911 56.3711C516.938 55.4395 516.799 54.282 517.094 53.044C517.395 51.785 518.218 50.8576 519.157 50.0349C520.396 48.9454 521.871 48.4007 523.505 48.2387C525.247 48.0664 526.932 48.3238 528.586 48.8549C528.604 48.8609 528.622 48.8673 528.64 48.8741C528.66 48.8819 528.681 48.8903 528.701 48.8991L528.763 48.9254L528.765 48.9264C528.813 48.9473 528.863 48.9693 528.92 48.9911C528.864 49.109 528.809 49.2263 528.755 49.3429C528.611 49.6519 528.469 49.9556 528.313 50.2522C528.28 50.3142 528.108 50.3489 528.019 50.3277C526.925 50.0785 525.825 49.8682 524.698 49.9138C523.131 49.9778 521.701 50.4075 520.634 51.6441C520.207 52.137 519.881 52.6845 519.796 53.3587C519.648 54.5251 520.089 55.4178 521.132 55.9837C521.957 56.4304 522.86 56.5665 523.777 56.6394C523.889 56.6483 524.001 56.6394 524.177 56.6394L524.009 56.973L523.861 57.267L523.594 57.7969C522.173 57.7452 520.802 57.9332 519.535 58.5685C517.279 59.7016 515.877 61.4965 515.491 64.016C515.307 65.2103 515.87 66.2855 516.882 66.8125C517.442 67.104 518.058 67.1081 518.67 67.074C520.454 66.9815 522.088 66.3767 523.688 65.6373L523.706 65.6291L523.744 65.6118C523.779 65.5963 523.818 65.5793 523.869 65.5572L523.97 65.5127C523.934 65.6039 523.898 65.6929 523.862 65.7802C523.833 65.8488 523.805 65.9165 523.776 65.9833C523.642 66.3028 523.515 66.6039 523.426 66.9161C523.258 67.5147 522.881 67.8388 522.329 68.0934C520.683 68.8547 518.983 69.4036 517.176 69.5976C515.957 69.7291 514.781 69.5976 513.689 68.9848C512.36 68.2419 511.754 67.0781 511.652 65.5937C511.545 64.0316 512.163 62.6881 512.902 61.3896C514.004 59.453 515.532 57.9917 517.7 57.2972C517.918 57.2282 518.141 57.1793 518.378 57.1275C518.504 57.1 518.634 57.0717 518.768 57.0391ZM554.059 68.9078C554.399 68.1852 554.741 67.4605 555.085 66.7342C556.002 64.7984 556.924 62.8639 557.832 60.9238C557.959 60.6591 558.052 60.3796 558.11 60.0917C558.194 59.6518 557.929 59.3658 557.478 59.3828C557.309 59.3848 557.142 59.4221 556.988 59.4925C556.181 59.9011 555.376 60.3158 554.588 60.7583C554.399 60.8796 554.245 61.0493 554.144 61.25C552.828 63.6819 551.52 66.1187 550.221 68.5605C550.077 68.8329 549.917 68.9194 549.618 68.9112C549.047 68.8957 548.475 68.8985 547.887 68.9014C547.65 68.9026 547.41 68.9037 547.167 68.9037C547.196 68.803 547.231 68.7039 547.27 68.6069C549.041 65.0329 550.812 61.4579 552.585 57.8821C552.688 57.673 552.799 57.5825 553.043 57.5872C553.925 57.6036 554.807 57.5934 555.735 57.5934C555.479 58.1599 555.243 58.6829 554.964 59.3012C555.127 59.2113 555.217 59.1649 555.305 59.1132C556.68 58.228 558.149 57.5566 559.753 57.2304C560.24 57.1317 560.766 57.1426 561.263 57.1997C561.792 57.2604 562.117 57.6852 562.129 58.2212C562.134 58.4661 562.112 58.7115 562.088 58.9695C562.079 59.0773 562.069 59.1874 562.061 59.3005C562.167 59.2324 562.265 59.169 562.363 59.105C563.452 58.3866 564.562 57.7098 565.849 57.3863C566.472 57.2298 567.059 57.338 567.623 57.5907C568.2 57.8487 568.45 58.4077 568.304 59.1023C568.237 59.4236 568.133 59.7364 567.996 60.0345C567.335 61.4555 566.67 62.8752 566.006 64.2946C565.546 65.2772 565.087 66.2598 564.628 67.2428C564.407 67.7152 564.187 68.1878 563.967 68.6607C563.862 68.8874 563.744 68.9752 563.486 68.9698C562.592 68.9514 561.696 68.9629 560.744 68.9629L560.822 68.7895L560.842 68.745C560.917 68.5771 560.986 68.4218 561.06 68.267L561.268 67.8371L561.276 67.8206L561.284 67.8041L561.292 67.7877L561.3 67.7712C562.446 65.4064 563.591 63.0429 564.725 60.6732C564.856 60.3754 564.948 60.0618 564.997 59.7404C565.042 59.4959 564.893 59.357 564.634 59.3747C564.511 59.3734 564.388 59.3901 564.27 59.4244C563.219 59.8282 562.201 60.3041 561.299 60.9851C561.068 61.1626 560.876 61.3864 560.735 61.6422C559.478 63.9524 558.233 66.2676 556.998 68.5878C556.878 68.8119 556.753 68.9181 556.48 68.9099C555.946 68.8984 555.41 68.9015 554.859 68.9047C554.657 68.9059 554.452 68.9072 554.245 68.9076L554.059 68.9078ZM540.834 67.6733C540.953 67.6151 541.073 67.5575 541.193 67.501C541.173 67.5937 541.139 67.7353 541.11 67.8775C540.939 68.7743 541.357 69.2544 542.268 69.1986L542.322 69.1947L542.371 69.1905C542.389 69.1889 542.406 69.1871 542.424 69.1851L542.465 69.1805C542.526 69.1733 542.586 69.1645 542.646 69.1541C542.688 69.1469 542.729 69.1391 542.77 69.1305C543.94 68.8894 545.075 68.5496 546.088 67.8912L546.118 67.8718L546.139 67.8579L546.171 67.8371C546.186 67.8268 546.202 67.8163 546.217 67.8054C546.233 67.794 546.249 67.7823 546.264 67.7701C546.317 67.7265 546.363 67.6783 546.383 67.6236C546.548 67.1738 546.697 66.7166 546.857 66.2217L546.966 65.8892C546.338 66.3176 545.694 66.4203 545.045 66.5103C544.741 66.5525 544.512 66.3673 544.541 66.0669C544.566 65.8199 544.631 65.5785 544.733 65.3519C545.87 62.8185 547.007 60.2853 548.145 57.7527C548.153 57.7342 548.161 57.7154 548.169 57.6961C548.181 57.6623 548.193 57.627 548.206 57.5893C548.217 57.5564 548.229 57.5217 548.242 57.4845C547.939 57.4686 547.638 57.4553 547.34 57.4421L547.333 57.4417C546.683 57.413 546.043 57.3847 545.404 57.3312C544.296 57.2386 543.204 57.2427 542.102 57.462C537.432 58.3942 534.003 62.0766 533.454 66.7969C533.271 68.374 534.438 69.5826 536.004 69.3641C536.831 69.2565 537.644 69.0606 538.43 68.7798C539.092 68.5346 539.728 68.2196 540.364 67.9044C540.521 67.827 540.677 67.7497 540.834 67.6733ZM541.451 66.1132C540.503 66.8649 539.469 67.4241 538.281 67.4873C538.137 67.4855 537.994 67.4757 537.851 67.4581C536.787 67.2559 536.393 66.957 536.483 65.5706C536.552 64.5294 537.016 63.6019 537.522 62.7168C538.647 60.742 540.192 59.2215 542.405 58.5188C543 58.3295 543.641 58.2457 544.268 58.1973C544.818 58.1552 544.979 58.452 544.75 58.956C543.711 61.2471 542.669 63.5373 541.625 65.8266L541.608 65.8648C541.588 65.9096 541.567 65.9559 541.543 65.9985C541.517 66.0426 541.488 66.0828 541.451 66.1132ZM535.482 51.5255C534.865 52.9391 534.277 54.286 533.668 55.684H535.823C535.779 55.8338 535.736 55.9812 535.693 56.1267L535.691 56.1324L535.689 56.1385C535.546 56.6255 535.409 57.0904 535.257 57.5504C535.232 57.6267 535.077 57.703 534.98 57.7043C534.255 57.7173 533.528 57.7194 532.801 57.7043C532.587 57.7002 532.483 57.7765 532.393 57.9665C531.167 60.4842 529.936 62.9993 528.7 65.5119C528.529 65.8606 528.462 66.2167 528.604 66.5906C528.746 66.9644 528.968 67.1401 529.338 67.0182C529.912 66.8232 530.47 66.5856 531.008 66.3073C531.238 66.1921 531.445 66.0365 531.672 65.8658L531.674 65.8645L531.68 65.86C531.735 65.8189 531.791 65.777 531.848 65.7344C531.904 65.6936 531.961 65.6522 532.02 65.6107C531.792 66.3516 531.587 67.0284 531.367 67.6999C531.34 67.781 531.234 67.8463 531.152 67.8971L531.148 67.8994C529.941 68.6341 528.684 69.2401 527.263 69.4328C526.446 69.5438 525.89 69.1481 525.483 68.5026C524.933 67.631 525.011 66.7152 525.438 65.8374C526.797 63.0438 528.169 60.2564 529.54 57.4687C529.995 56.5437 530.45 55.6186 530.905 54.6933L531.171 54.1523L531.177 54.1401C531.566 53.3478 531.955 52.5552 532.353 51.7652C532.404 51.6644 532.532 51.5357 532.625 51.5343C533.554 51.5187 534.481 51.5255 535.482 51.5255ZM541.91 75.1173L541.536 74.3261C542.317 73.9891 542.608 73.2366 542.22 72.5148C542.123 72.331 541.915 72.0926 541.743 72.081C541.211 72.0461 540.675 72.0513 540.131 72.0567L539.819 72.0594C539.722 72.0601 539.625 72.0606 539.528 72.0606C539.528 73.308 539.526 74.5201 539.537 75.7315C539.537 75.7752 539.576 75.8185 539.621 75.8615L539.644 75.8835C539.668 75.907 539.693 75.9306 539.713 75.9542L539.82 75.8929V74.2791C539.936 74.2791 540.049 74.2805 540.16 74.2819H540.162C540.347 74.2842 540.524 74.2865 540.699 74.2818C540.758 74.2801 540.816 74.2778 540.874 74.2743C541.111 74.26 541.243 74.3343 541.337 74.5589C541.503 74.9559 541.69 75.3448 541.894 75.7241C541.932 75.7954 542.009 75.846 542.085 75.8965L542.086 75.8971C542.121 75.92 542.156 75.943 542.187 75.9678L542.273 75.88L542.077 75.4705L541.91 75.1173ZM541.561 73.8991C540.998 73.925 540.433 73.9066 539.852 73.9066V72.4079C540.025 72.4079 540.197 72.4059 540.368 72.4038C540.778 72.3991 541.183 72.3944 541.586 72.4174C541.918 72.4358 542.098 72.7415 542.093 73.1501C542.089 73.575 541.897 73.8835 541.561 73.8991ZM549.083 72.5025L548.897 72.7415C548.524 72.3956 548.096 72.2138 547.61 72.3098C547.368 72.3574 547.098 72.4603 546.925 72.6258C546.53 73.0037 546.712 73.5723 547.248 73.6758C547.534 73.7316 547.834 73.7235 548.127 73.7309C548.718 73.7459 549.149 74.053 549.241 74.5393C549.362 75.1772 549.092 75.6825 548.51 75.9079C547.717 76.2136 546.897 76.0202 546.37 75.4176C546.23 75.2576 546.234 75.1486 546.438 75.0261C546.953 75.6723 547.621 75.8432 548.4 75.5879C548.823 75.4476 549.037 75.1269 548.993 74.7462C548.974 74.5814 548.901 74.4276 548.785 74.3083C548.67 74.1891 548.518 74.1112 548.354 74.0863C548.295 74.0788 548.236 74.0722 548.177 74.0665C548.089 74.058 548.002 74.0515 547.914 74.047C547.835 74.0429 547.757 74.0403 547.678 74.0394C546.861 74.0312 546.484 73.7671 546.462 73.1793C546.437 72.4943 546.924 71.9973 547.674 71.9394C548.219 71.8972 548.669 72.0947 549.083 72.5025ZM532.714 72.0503H530.729L530.729 72.957C530.729 73.3728 530.729 73.7848 530.73 74.1947C530.73 74.7075 530.731 75.217 530.734 75.726C530.734 75.7485 530.743 75.7706 530.756 75.7926C530.769 75.8142 530.787 75.8357 530.804 75.8575C530.821 75.8789 530.838 75.9006 530.851 75.9228C530.859 75.9103 530.868 75.8978 530.877 75.8853C530.885 75.8744 530.894 75.8636 530.903 75.8527C530.924 75.8264 530.945 75.8002 530.96 75.7737C530.973 75.7506 530.981 75.7274 530.981 75.7042C530.986 75.5273 530.987 75.3504 530.988 75.1749C530.989 75.0009 530.988 74.8284 530.987 74.6588C530.987 74.5427 530.987 74.428 530.987 74.3151C531.006 74.3021 531.019 74.2925 531.029 74.2857C531.043 74.275 531.049 74.2709 531.055 74.2709C531.158 74.2697 531.261 74.2688 531.364 74.268L531.571 74.2666L531.743 74.2653C531.99 74.2635 532.237 74.2612 532.485 74.2558C533.005 74.2456 533.279 74.0046 533.394 73.4714C533.521 72.8845 533.309 72.2805 532.908 72.0973C532.847 72.0686 532.781 72.0526 532.714 72.0503ZM532.015 73.8911C531.848 73.8914 531.68 73.8895 531.509 73.8877C531.408 73.8866 531.306 73.8856 531.203 73.8848C531.139 73.8844 531.074 73.884 531.008 73.884V72.3996C531.174 72.3996 531.34 72.3976 531.504 72.3955C531.896 72.3905 532.283 72.3856 532.667 72.4092C532.988 72.4289 533.148 72.7258 533.139 73.1622C533.13 73.5988 532.966 73.8603 532.626 73.8773C532.423 73.8875 532.22 73.8908 532.015 73.8911ZM534.8 75.8683C535.277 74.6427 535.753 73.4169 536.237 72.1981C536.253 72.1559 536.298 72.109 536.343 72.0808C536.371 72.0636 536.399 72.0534 536.421 72.0557C536.45 72.0599 536.478 72.0682 536.505 72.0804C536.519 72.0871 536.534 72.0951 536.547 72.1043C536.585 72.1298 536.617 72.1634 536.64 72.2028C537.121 73.4286 537.594 74.6542 538.066 75.8846C537.862 75.9834 537.769 75.9153 537.703 75.7281C537.595 75.4057 537.469 75.0899 537.324 74.7822C537.303 74.7468 537.278 74.7145 537.249 74.6862C537.231 74.6696 537.213 74.6543 537.193 74.6405C537.176 74.6289 537.158 74.6185 537.14 74.6093C537.1 74.5893 537.058 74.5752 537.014 74.5678C536.927 74.562 536.841 74.5587 536.754 74.5571C536.624 74.5546 536.493 74.5557 536.363 74.5568C536.194 74.5583 536.025 74.5597 535.856 74.5535C535.658 74.5453 535.576 74.6304 535.516 74.8027C535.491 74.8727 535.466 74.9427 535.44 75.0125C535.41 75.0948 535.379 75.1769 535.347 75.2585C535.286 75.4134 535.221 75.567 535.151 75.7179C535.119 75.7861 535.052 75.8382 534.986 75.8903C534.954 75.9147 534.923 75.939 534.895 75.965L534.8 75.8683ZM537.09 74.1707L536.436 72.4909L536.171 73.1799L535.789 74.1707H537.09ZM544.505 74.843C544.505 74.5577 544.504 74.2723 544.504 73.9869C544.504 73.8497 544.504 73.7125 544.505 73.5753C544.505 73.1452 544.506 72.7149 544.499 72.2838C544.497 72.2049 544.426 72.1265 544.388 72.0483C544.375 72.0728 544.36 72.0974 544.344 72.1219C544.31 72.1756 544.275 72.2294 544.275 72.2832C544.267 73.4181 544.267 74.553 544.275 75.6878C544.276 75.7668 544.347 75.8445 544.386 75.9228C544.399 75.8985 544.414 75.8742 544.43 75.8499C544.464 75.7965 544.499 75.743 544.499 75.6892C544.503 75.407 544.505 75.1249 544.505 74.843Z" fill="#A6A6A6"></path> <path fill-rule="evenodd" clip-rule="evenodd" d="M315.868 52.4613V54.0254H316.19V53.5112H316.276L316.768 54.0254H317.154L316.661 53.5112C316.775 53.4997 316.878 53.4455 316.97 53.3483C317.064 53.2483 317.111 53.1312 317.111 52.9969C317.111 52.8455 317.058 52.7184 316.953 52.6156C316.847 52.5127 316.714 52.4613 316.554 52.4613H315.868ZM314.904 53.2541C314.904 53.694 315.051 54.0611 315.346 54.3553C315.64 54.6496 316.007 54.7967 316.447 54.7967C316.887 54.7967 317.254 54.6496 317.548 54.3553C317.842 54.0611 317.99 53.694 317.99 53.2541C317.99 52.8141 317.842 52.447 317.548 52.1528C317.254 51.8585 316.887 51.7114 316.447 51.7114C316.007 51.7114 315.64 51.8585 315.346 52.1528C315.051 52.447 314.904 52.8141 314.904 53.2541ZM317.304 54.1282C317.075 54.3596 316.79 54.4753 316.447 54.4753C316.101 54.4753 315.814 54.3596 315.586 54.1282C315.36 53.8968 315.247 53.6054 315.247 53.2541C315.247 52.9027 315.36 52.6113 315.586 52.3799C315.814 52.1485 316.101 52.0328 316.447 52.0328C316.79 52.0328 317.075 52.1485 317.304 52.3799C317.532 52.6113 317.647 52.9027 317.647 53.2541C317.647 53.6054 317.532 53.8968 317.304 54.1282ZM316.554 53.2541H316.19V52.7398H316.554C316.62 52.7398 316.675 52.7641 316.721 52.8127C316.767 52.8613 316.79 52.9227 316.79 52.9969C316.79 53.0712 316.767 53.1326 316.721 53.1812C316.675 53.2298 316.62 53.2541 316.554 53.2541ZM301.438 52.1522H294.189V66.6969H301.438H308.977C312.981 66.6969 316.227 63.441 316.227 59.4246C316.227 55.4081 312.981 52.1522 308.977 52.1522H301.438ZM301.438 66.6969V52.1522C305.442 52.1522 308.687 55.4081 308.687 59.4246C308.687 63.441 305.442 66.6969 301.438 66.6969ZM349.084 59.9534L349.778 59.3584L348.984 58.565C348.575 58.1551 348.29 57.7717 348.132 57.4146C347.973 57.0444 347.894 56.5684 347.894 55.9866C347.894 55.0214 348.237 54.2214 348.925 53.5867C349.626 52.9388 350.538 52.6149 351.662 52.6149C352.733 52.6149 353.626 52.9587 354.34 53.6462C355.067 54.3206 355.43 55.1338 355.43 56.0858C355.43 57.1833 354.868 58.1419 353.745 58.9617L352.654 59.755L355.43 62.7301C355.563 62.426 355.675 62.1549 355.768 61.9169C356.006 61.2822 356.125 60.6938 356.125 60.1517H358.207C358.207 61.1169 357.976 62.0756 357.513 63.0276C357.275 63.4772 357.044 63.8408 356.819 64.1185L359.298 66.6968H356.62L355.43 65.4077C355.087 65.6985 354.73 65.9498 354.359 66.1613C353.46 66.6506 352.561 66.8952 351.662 66.8952C350.274 66.8952 349.183 66.5514 348.389 65.8638C347.596 65.1763 347.199 64.297 347.199 63.2259C347.199 62.4855 347.351 61.8772 347.656 61.4012C347.96 60.9252 348.436 60.4426 349.084 59.9534ZM351.464 58.3667L352.257 57.7717C352.654 57.4675 352.931 57.2031 353.09 56.9783C353.262 56.7535 353.348 56.456 353.348 56.0858C353.348 55.5833 353.189 55.18 352.872 54.8759C352.568 54.5586 352.164 54.3999 351.662 54.3999C351.146 54.3999 350.736 54.5718 350.432 54.9156C350.128 55.2594 349.976 55.6494 349.976 56.0858C349.976 56.5221 350.208 56.9849 350.67 57.4741L351.464 58.3667ZM354.24 64.2176L351.067 60.7467L350.472 61.2426C350.075 61.5202 349.778 61.8045 349.579 62.0954C349.381 62.3863 349.282 62.7632 349.282 63.2259C349.282 63.7152 349.494 64.1515 349.917 64.535C350.34 64.9184 350.922 65.1101 351.662 65.1101C352.786 65.1101 353.645 64.8126 354.24 64.2176ZM328.744 64.7135H325.967V54.7966H328.744C330.053 54.7966 331.137 55.2594 331.997 56.185C332.869 57.0973 333.306 58.2873 333.306 59.755C333.306 61.2227 332.869 62.4194 331.997 63.3449C331.137 64.2573 330.053 64.7135 328.744 64.7135ZM323.885 52.8132V66.6968H328.744C330.635 66.6968 332.215 66.0423 333.484 64.7333C334.754 63.4243 335.388 61.7649 335.388 59.755C335.388 57.7452 334.754 56.0858 333.484 54.7768C332.215 53.4677 330.635 52.8132 328.744 52.8132H323.885ZM344.317 60.9451H338.466C338.625 60.1253 338.956 59.4774 339.458 59.0013C339.96 58.5121 340.622 58.2675 341.441 58.2675C342.222 58.2675 342.869 58.5121 343.385 59.0013C343.901 59.4906 344.212 60.1385 344.317 60.9451ZM345.904 63.821H343.821C343.65 64.2044 343.345 64.535 342.909 64.8126C342.486 65.0771 341.997 65.2093 341.441 65.2093C340.648 65.2093 339.98 64.9581 339.438 64.4556C338.896 63.9532 338.572 63.2788 338.466 62.4326H346.102L346.142 62.1549C346.182 61.7979 346.202 61.5599 346.202 61.4409C346.202 60.0525 345.745 58.8956 344.833 57.97C343.921 57.0444 342.79 56.5816 341.441 56.5816C340 56.5816 338.81 57.0576 337.871 58.0097C336.946 58.9617 336.483 60.2046 336.483 61.7384C336.483 63.2722 336.946 64.5151 337.871 65.4672C338.81 66.4192 340 66.8952 341.441 66.8952C342.605 66.8952 343.564 66.5845 344.317 65.963C345.084 65.3283 345.613 64.6143 345.904 63.821ZM364.845 64.7135H362.068V54.7966H364.845C366.154 54.7966 367.238 55.2594 368.097 56.185C368.97 57.0973 369.406 58.2873 369.406 59.755C369.406 61.2227 368.97 62.4194 368.097 63.3449C367.238 64.2573 366.154 64.7135 364.845 64.7135ZM359.985 52.8132V66.6968H364.845C366.735 66.6968 368.315 66.0423 369.585 64.7333C370.854 63.4243 371.489 61.7649 371.489 59.755C371.489 57.7452 370.854 56.0858 369.585 54.7768C368.315 53.4677 366.735 52.8132 364.845 52.8132H359.985ZM374.567 60.9451H380.418C380.312 60.1385 380.001 59.4906 379.486 59.0013C378.97 58.5121 378.322 58.2675 377.542 58.2675C376.722 58.2675 376.061 58.5121 375.559 59.0013C375.056 59.4774 374.726 60.1253 374.567 60.9451ZM379.922 63.821H382.005C381.714 64.6143 381.185 65.3283 380.418 65.963C379.664 66.5845 378.706 66.8952 377.542 66.8952C376.101 66.8952 374.911 66.4192 373.972 65.4672C373.046 64.5151 372.584 63.2722 372.584 61.7384C372.584 60.2046 373.046 58.9617 373.972 58.0097C374.911 57.0576 376.101 56.5816 377.542 56.5816C378.891 56.5816 380.021 57.0444 380.934 57.97C381.846 58.8956 382.302 60.0525 382.302 61.4409C382.302 61.5599 382.282 61.7979 382.243 62.1549L382.203 62.4326H374.567C374.673 63.2788 374.997 63.9532 375.539 64.4556C376.081 64.9581 376.749 65.2093 377.542 65.2093C378.097 65.2093 378.587 65.0771 379.01 64.8126C379.446 64.535 379.75 64.2044 379.922 63.821ZM390.447 62.4326H388.365C388.365 63.7152 388.854 64.7796 389.832 65.6258C390.811 66.4721 392.14 66.8952 393.819 66.8952C395.498 66.8952 396.794 66.5183 397.706 65.7647C398.619 64.9978 399.075 64.0193 399.075 62.8293C399.075 61.7318 398.744 60.8789 398.083 60.2707C397.435 59.6493 396.411 59.2129 395.009 58.9617L392.827 58.565C391.439 58.2873 390.745 57.6593 390.745 56.6808C390.745 56.099 390.996 55.6098 391.498 55.2131C392.014 54.8032 392.721 54.5983 393.621 54.5983C394.573 54.5983 395.34 54.8429 395.921 55.3321C396.503 55.8213 396.794 56.4031 396.794 57.0775H398.877C398.877 55.7817 398.414 54.7173 397.488 53.8842C396.576 53.038 395.287 52.6149 393.621 52.6149C392.113 52.6149 390.91 53.0049 390.011 53.7851C389.112 54.552 388.662 55.5172 388.662 56.6808C388.662 57.6593 388.933 58.4658 389.475 59.1005C390.031 59.7352 390.85 60.1517 391.935 60.35L394.612 60.8459C396.199 61.15 396.992 61.8111 396.992 62.8293C396.992 63.4639 396.734 63.973 396.219 64.3565C395.703 64.7267 394.903 64.9118 393.819 64.9118C392.827 64.9118 392.014 64.6672 391.379 64.178C390.758 63.6887 390.447 63.1069 390.447 62.4326ZM401.068 64.6143V58.6642H399.481V56.78H401.068V54.0032H403.051V56.78H405.332V58.6642H403.051V64.3168C403.051 64.7135 403.249 64.9118 403.646 64.9118H405.332V66.6968H403.249C402.548 66.6968 402.006 66.5117 401.623 66.1415C401.253 65.7713 401.068 65.2622 401.068 64.6143ZM408.519 56.78H406.536V62.7301C406.536 64.0127 406.893 65.0308 407.607 65.7845C408.334 66.525 409.299 66.8952 410.503 66.8952C411.296 66.8952 412.01 66.6968 412.645 66.3002C412.909 66.1283 413.154 65.9299 413.378 65.7052H413.478L413.676 66.6968H415.461V56.78H413.478V62.7301C413.478 63.378 413.226 63.94 412.724 64.416C412.235 64.8788 411.626 65.1101 410.899 65.1101C410.225 65.1101 409.656 64.8788 409.194 64.416C408.744 63.94 408.519 63.378 408.519 62.7301V56.78ZM424.884 66.6968L424.685 65.5068H424.586C423.885 66.4324 422.861 66.8952 421.512 66.8952C420.19 66.8952 419.099 66.4258 418.239 65.487C417.38 64.5482 416.95 63.2987 416.95 61.7384C416.95 60.1782 417.38 58.9286 418.239 57.9898C419.099 57.051 420.19 56.5816 421.512 56.5816C422.094 56.5816 422.623 56.6874 423.099 56.899C423.588 57.0973 423.905 57.2692 424.051 57.4146C424.196 57.5469 424.375 57.732 424.586 57.97H424.685V52.8132H426.669V66.6968H424.884ZM419.747 64.178C420.302 64.7994 420.99 65.1101 421.809 65.1101C422.629 65.1101 423.31 64.7994 423.852 64.178C424.408 63.5565 424.685 62.7433 424.685 61.7384C424.685 60.7335 424.408 59.9203 423.852 59.2989C423.31 58.6774 422.629 58.3667 421.809 58.3667C420.99 58.3667 420.302 58.6774 419.747 59.2989C419.205 59.9203 418.934 60.7335 418.934 61.7384C418.934 62.7433 419.205 63.5565 419.747 64.178ZM430.727 56.78H428.743V66.6968H430.727V56.78ZM428.644 52.8132V54.8958H430.826V52.8132H428.644ZM435.04 64.1978C435.609 64.806 436.323 65.1101 437.182 65.1101C438.042 65.1101 438.749 64.806 439.304 64.1978C439.873 63.5763 440.157 62.7565 440.157 61.7384C440.157 60.7203 439.873 59.9071 439.304 59.2989C438.749 58.6774 438.042 58.3667 437.182 58.3667C436.323 58.3667 435.609 58.6774 435.04 59.2989C434.485 59.9071 434.207 60.7203 434.207 61.7384C434.207 62.7565 434.485 63.5763 435.04 64.1978ZM440.732 65.4672C439.807 66.4192 438.623 66.8952 437.182 66.8952C435.741 66.8952 434.551 66.4192 433.612 65.4672C432.686 64.5151 432.224 63.2722 432.224 61.7384C432.224 60.2046 432.686 58.9617 433.612 58.0097C434.551 57.0576 435.741 56.5816 437.182 56.5816C438.623 56.5816 439.807 57.0576 440.732 58.0097C441.671 58.9617 442.141 60.2046 442.141 61.7384C442.141 63.2722 441.671 64.5151 440.732 65.4672Z" fill="#A6A6A6"></path> <path fill-rule="evenodd" clip-rule="evenodd" d="M159.336 51.7119C159.182 51.7121 159.027 51.7123 158.871 51.7123V66.6964H161.175V56.2297C161.385 56.1456 161.487 56.2474 161.594 56.3849C164.226 59.7733 166.856 63.1624 169.485 66.5523C169.519 66.6062 169.568 66.65 169.625 66.6791C169.683 66.7081 169.747 66.7214 169.812 66.7173C170.168 66.7093 170.523 66.7106 170.879 66.7119C171.013 66.7124 171.146 66.7129 171.28 66.7129H171.564V51.7234H169.277V62.0338C169.085 62.0932 168.977 62.0409 168.865 61.8984C168.269 61.1164 167.665 60.338 167.061 59.56C166.855 59.2955 166.65 59.0311 166.445 58.7666C164.661 56.4609 162.875 54.1568 161.085 51.8543C161.036 51.7921 160.949 51.7184 160.878 51.7184C160.366 51.7103 159.855 51.7111 159.336 51.7119ZM206.251 56.2782V57.2621C206.196 57.2395 206.142 57.2217 206.092 57.2049C205.993 57.1718 205.906 57.1428 205.839 57.0899C204.836 56.2969 203.679 56.014 202.423 56.1395C201.212 56.2606 200.164 56.7597 199.27 57.578C197.595 59.11 197.068 61.539 198.01 63.6049C198.822 65.3851 200.248 66.4527 202.212 66.7685C203.544 66.982 204.763 66.6816 205.837 65.8561C205.905 65.8039 205.992 65.7762 206.093 65.744C206.145 65.7276 206.2 65.7101 206.258 65.6877V66.7008H208.477V56.2782H206.251ZM201.789 58.5705C202.179 58.4139 202.597 58.3349 203.019 58.3379V58.3368C203.437 58.3383 203.852 58.4209 204.238 58.5799C204.624 58.7389 204.975 58.9712 205.269 59.2635C205.564 59.5559 205.798 59.9025 205.957 60.2836C206.116 60.6647 206.197 61.0729 206.195 61.4848C206.194 61.8967 206.11 62.3043 205.948 62.6843C205.786 63.0643 205.55 63.4093 205.253 63.6995C204.956 63.9897 204.604 64.2195 204.217 64.3758C203.829 64.5321 203.414 64.6117 202.996 64.6103C201.238 64.5998 199.793 63.1866 199.799 61.4807C199.799 61.0659 199.883 60.6553 200.045 60.2724C200.207 59.8896 200.445 59.5422 200.744 59.2501C201.044 58.958 201.399 58.727 201.789 58.5705ZM231.137 57.2516V56.2765H233.358V66.703H231.146V65.6982C231.092 65.7156 231.04 65.7292 230.991 65.7419C230.885 65.7693 230.794 65.7931 230.725 65.8446C229.159 67.014 227.46 67.1141 225.701 66.3723C224.264 65.767 223.263 64.7082 222.744 63.2565C222.203 61.7476 222.32 60.2645 223.122 58.8657C223.923 57.4668 225.146 56.5682 226.746 56.2292C228.2 55.9221 229.549 56.1775 230.735 57.1097C230.798 57.1587 230.884 57.1811 230.98 57.2063C231.03 57.2193 231.083 57.2331 231.137 57.2516ZM227.903 58.3379C227.481 58.3327 227.063 58.41 226.672 58.5654C226.281 58.7208 225.925 58.9511 225.626 59.243C225.326 59.535 225.089 59.8826 224.927 60.2657C224.765 60.6488 224.682 61.0598 224.684 61.4746C224.675 63.1976 226.116 64.6113 227.885 64.6113C229.646 64.6113 231.087 63.2185 231.099 61.5011C231.102 61.0864 231.021 60.6752 230.862 60.2913C230.703 59.9073 230.468 59.5583 230.17 59.2642C229.873 58.9701 229.52 58.7368 229.131 58.5779C228.741 58.4189 228.324 58.3373 227.903 58.3379ZM173.89 61.4752C173.874 64.4143 176.349 66.8329 179.347 66.8357C182.353 66.8379 184.835 64.405 184.832 61.4724C184.829 58.5399 182.347 56.0779 179.355 56.0927C177.905 56.0939 176.515 56.6615 175.49 57.6708C174.465 58.6802 173.89 60.0485 173.89 61.4752ZM178.126 58.5671C178.517 58.4111 178.935 58.3332 179.357 58.3379C181.139 58.344 182.578 59.7599 182.56 61.4961C182.55 62.3268 182.208 63.1202 181.607 63.7038C181.006 64.2874 180.196 64.614 179.351 64.6125C177.58 64.6141 176.141 63.2086 176.145 61.4807C176.143 61.0658 176.224 60.6546 176.385 60.2711C176.546 59.8875 176.782 59.5393 177.081 59.2467C177.38 58.9542 177.736 58.7232 178.126 58.5671ZM221.75 56.2848C221.716 56.3679 221.694 56.4301 221.666 56.4906C219.371 61.5985 217.074 66.706 214.776 71.8131C214.745 71.8819 214.664 71.9782 214.608 71.9782C213.961 71.9869 213.314 71.9863 212.652 71.9857C212.479 71.9855 212.304 71.9853 212.129 71.9853C212.148 71.9418 212.165 71.9027 212.181 71.8662L212.182 71.8646C212.201 71.8213 212.218 71.7815 212.236 71.7421C213.087 69.8711 213.939 68.0001 214.793 66.1291C214.822 66.0725 214.836 66.01 214.836 65.9468C214.835 65.8835 214.819 65.8213 214.789 65.7653C213.403 62.6888 212.02 59.6115 210.64 56.5335C210.618 56.4837 210.597 56.4337 210.573 56.3762C210.562 56.3478 210.549 56.3177 210.535 56.2848H211.952C212.034 56.2848 212.116 56.2856 212.198 56.2864H212.199C212.396 56.2883 212.594 56.2902 212.791 56.2809C212.943 56.2738 213.008 56.3304 213.067 56.462C213.969 58.4584 214.875 60.4535 215.785 62.447L215.8 62.4805C215.811 62.5036 215.821 62.5267 215.832 62.5498C215.865 62.6216 215.898 62.6935 215.929 62.7662L215.933 62.7765C215.971 62.8647 216.011 62.9599 216.131 62.9186C216.209 62.8915 216.274 62.8375 216.314 62.7667C217.063 61.1452 217.807 59.5218 218.548 57.8966C218.772 57.4013 218.995 56.9061 219.229 56.4174C219.255 56.3624 219.328 56.2908 219.381 56.2903C220.005 56.2837 220.629 56.2841 221.267 56.2846C221.381 56.2846 221.495 56.2847 221.61 56.2847L221.75 56.2848ZM195.544 59.099C195.96 58.1718 196.378 57.2434 196.809 56.2848C196.604 56.2848 196.402 56.2852 196.201 56.2857C195.658 56.2868 195.128 56.288 194.598 56.2804C194.42 56.2776 194.332 56.3261 194.257 56.4911C193.311 58.5742 192.362 60.6564 191.412 62.7376C191.408 62.7479 191.403 62.7583 191.399 62.7685C191.363 62.8545 191.329 62.9336 191.188 62.9302C191.049 62.9268 191.016 62.8502 190.98 62.7654C190.975 62.754 190.97 62.7425 190.965 62.731C190.008 60.638 189.053 58.543 188.101 56.446C188.044 56.3233 187.981 56.2754 187.839 56.2809C187.611 56.2895 187.382 56.2878 187.153 56.2861C187.06 56.2855 186.967 56.2848 186.874 56.2848H185.57C185.693 56.5575 185.812 56.8218 185.929 57.0826C186.016 57.2766 186.102 57.4685 186.188 57.6605C187.517 60.6127 188.843 63.566 190.164 66.5203C190.232 66.6722 190.31 66.7206 190.474 66.7168C190.956 66.7051 191.438 66.7051 191.92 66.7168C192.079 66.7206 192.149 66.6684 192.211 66.528C193.321 64.0517 194.432 61.5753 195.544 59.099Z" fill="#A6A6A6"></path> <path fill-rule="evenodd" clip-rule="evenodd" d="M62.4694 50.6632L62.6117 49.9565C62.344 49.9565 62.0839 49.9544 61.8293 49.9522C61.16 49.9467 60.5289 49.9414 59.8996 49.9766C59.7815 50.003 59.6715 50.058 59.5789 50.1369C59.4863 50.2156 59.4139 50.316 59.3677 50.4294C59.2092 51.0363 59.0871 51.6532 58.9616 52.2865C58.9158 52.5177 58.8696 52.7511 58.821 52.9871H61.9444C61.9991 52.8421 62.0465 52.6942 62.0864 52.5443C62.2132 51.9382 62.3354 51.3301 62.4694 50.6632ZM57.4253 49.9817C57.095 51.8683 55.7637 53.0256 53.9848 53.0424C53.6645 53.0444 53.3441 53.0467 53.0237 53.0491C51.6672 53.0593 50.3102 53.0695 48.9553 53.0424C47.4242 53.0055 46.0681 53.3376 45.0573 54.6725C45.0358 53.4331 45.4108 51.9405 46.1557 51.268C46.7619 50.7195 47.5629 50.0856 48.3029 50.0521C50.537 49.9414 52.7765 49.9562 55.0437 49.9711H55.0478C55.8366 49.9764 56.6288 49.9817 57.4253 49.9817ZM74.5387 67.3548H77.4936C78.3393 68.5825 79.2907 68.9866 80.6319 68.5875C82.2836 68.0978 82.6404 66.6974 82.903 65.1075L82.8456 65.1382L82.7919 65.1665L82.7037 65.2124C82.6041 65.264 82.5253 65.3048 82.4438 65.3557C79.7581 67.0211 76.6628 65.723 75.9261 62.6169C75.2556 59.8078 76.4646 56.5207 78.7555 55.1103C80.2834 54.1694 81.9136 53.9949 83.5455 54.8435C83.8662 55.0104 84.147 55.2576 84.4406 55.5158L84.4431 55.5181L84.4437 55.5187C84.5802 55.6389 84.7195 55.7616 84.8669 55.88C84.9643 55.4725 85.0634 55.0549 85.1724 54.5954H88.2149C88.0634 55.3278 87.9132 56.0568 87.7635 56.7833C87.4676 58.2192 87.1737 59.6458 86.8753 61.0724C86.7318 61.7607 86.5838 62.4482 86.4357 63.1359L86.4345 63.1414L86.434 63.1437C86.2129 64.1709 85.9917 65.1984 85.7852 66.2295C84.7694 71.2826 79.0248 72.0104 76.2301 70.2143C75.2357 69.5753 74.7039 68.6395 74.5387 67.3548ZM84.2491 59.5546L84.0212 59.4589C84.0212 58.0368 83.4679 57.111 82.4471 56.8158C81.8831 56.6615 81.2836 56.7134 80.7535 56.9623C80.2233 57.2112 79.7962 57.6414 79.5467 58.1777C79.1105 59.0977 78.8393 60.0893 78.7456 61.1059C78.63 62.3369 79.3138 63.2744 80.2189 63.5512C80.7367 63.7182 81.2946 63.7042 81.8036 63.5114C82.3126 63.3186 82.7433 62.9582 83.0269 62.4878C83.3975 61.8598 83.6534 61.1629 83.9091 60.4663L83.9099 60.4644C84.0219 60.1591 84.134 59.8538 84.2557 59.5546H84.2491ZM95.6393 54.3405C99.4118 54.3405 101.445 56.9534 100.793 61.0372C100.429 63.3146 99.2615 65.0505 97.068 65.8555C94.9968 66.6152 92.947 66.5531 91.1417 65.1041C90.6321 64.6819 90.2199 64.1512 89.9343 63.5494C89.4714 62.5698 89.2606 61.487 89.3217 60.4021C89.3827 59.3172 89.7136 58.2658 90.2834 57.3461C90.8532 56.4263 91.6433 55.6682 92.58 55.1426C93.5166 54.6169 94.5692 54.341 95.6393 54.3405ZM97.9781 60.0863C97.993 58.171 97.3323 57.1396 96.0588 56.8259C94.7375 56.504 93.3699 57.1295 92.8743 58.5533C92.5444 59.5806 92.4045 60.661 92.4614 61.7398C92.4961 62.7462 93.1221 63.4992 94.1511 63.7742C95.1801 64.0493 96.1117 63.8178 96.8599 63.0077C97.6792 62.1156 97.9352 61.0187 97.9781 60.0863ZM62.6005 64.2827L62.2235 66.0903C62.4623 66.0903 62.6933 66.0866 62.917 66.0829L62.9316 66.0826H62.9342C63.4328 66.0742 63.895 66.0664 64.3262 66.102C64.9555 66.154 65.2363 65.9695 65.3634 65.2887C65.7312 63.313 66.148 61.3491 66.6138 59.3969C66.9705 57.8993 68.1317 56.8377 69.3639 56.7353C70.4722 56.6448 71.075 57.21 70.9495 58.3068C70.8713 58.9506 70.7383 59.5874 70.6056 60.2231L70.6054 60.2241L70.5613 60.4356L70.525 60.6112C70.2701 61.8441 70.0097 63.0819 69.7427 64.3509L69.7399 64.3641L69.6488 64.797L69.4777 65.6109L69.3771 66.0903C69.6187 66.0903 69.8533 66.0925 70.0828 66.0945C70.6991 66.1 71.2782 66.1052 71.8547 66.0685C71.9721 66.044 72.0818 65.9908 72.1742 65.9132C72.2667 65.8357 72.339 65.7365 72.3849 65.6241C72.4801 65.1764 72.5763 64.729 72.6725 64.2816L72.6744 64.2725C73.1347 62.1314 73.5948 59.9909 73.9523 57.8321C74.2711 55.9069 72.9844 54.483 71.0519 54.3455C70.3868 54.28 69.7156 54.3656 69.087 54.5962C68.4585 54.8268 67.8884 55.1967 67.4182 55.6787L67.4538 55.2192C67.4727 54.9772 67.4875 54.7861 67.5024 54.5887H64.6284C63.951 57.8064 63.2852 60.999 62.6065 64.2539L62.6005 64.2827ZM54.9857 56.5643C54.8552 58.337 53.4182 59.6452 51.5667 59.6854C50.2734 59.7139 48.9768 59.7307 47.6851 59.6753C47.074 59.6485 46.8857 59.8933 46.7784 60.4451C46.4836 61.968 46.1611 63.4862 45.8372 65.0109C45.7655 65.3486 45.6937 65.6865 45.6222 66.0249H42.583C42.6282 65.8041 42.6714 65.5911 42.7136 65.3834C42.7639 65.1351 42.8128 64.8942 42.8619 64.6557L42.9116 64.4158L42.9431 64.2657C43.0447 63.7824 43.1441 63.2985 43.2435 62.8146L43.2448 62.8085C43.4761 61.6822 43.7075 60.5556 43.9671 59.4356C44.3867 57.6545 45.7642 56.5643 47.558 56.5643H54.9857ZM56.8554 63.1014C56.6563 64.0648 56.4549 65.0393 56.2493 66.0316H59.1877L59.9909 62.1764C60.5164 59.6541 61.0446 57.1189 61.5794 54.5485C61.3062 54.5485 61.0458 54.5517 60.7944 54.5548C60.2432 54.5618 59.7349 54.5683 59.229 54.5383C58.717 54.5065 58.5782 54.7463 58.494 55.1974C58.3427 56.0035 58.1708 56.8059 57.9989 57.608L57.998 57.6125C57.9567 57.8052 57.9154 57.9979 57.8744 58.1906C57.8311 58.3942 57.7881 58.5979 57.7457 58.8016C57.4499 60.2239 57.1553 61.6499 56.8554 63.1014Z" fill="#A6A6A6"></path> </svg> 