<?xml version="1.0" encoding="UTF-8"?> <svg xmlns="http://www.w3.org/2000/svg" width="480" height="390" viewBox="0 0 480 390" fill="none"> <rect width="480" height="390" fill="#030303"></rect> <path d="M51.875 25.5H67.825L104.8 127H90.01L80.44 99.16H38.535L28.82 127H14.9L51.875 25.5ZM76.09 86.69L59.85 39.275H59.56L42.885 86.69H76.09ZM154.848 25.5H188.198C200.474 25.5 209.319 27.9167 214.733 32.75C220.243 37.4867 222.998 44.1083 222.998 52.615C222.998 62.3783 218.744 69.5317 210.238 74.075V74.365C220.678 78.6183 225.898 86.6417 225.898 98.435C225.898 107.618 223.143 114.675 217.633 119.605C212.219 124.535 203.374 127 191.098 127H154.848V25.5ZM168.478 37.97V68.565H187.473C195.399 68.565 200.909 67.26 204.003 64.65C207.193 62.04 208.788 58.27 208.788 53.34C208.788 48.41 207.193 44.64 204.003 42.03C200.909 39.3233 195.399 37.97 187.473 37.97H168.478ZM168.478 81.035V114.53H190.373C198.299 114.53 203.809 113.177 206.903 110.47C210.093 107.667 211.688 103.413 211.688 97.71C211.688 92.1033 210.093 87.9467 206.903 85.24C203.809 82.4367 198.299 81.035 190.373 81.035H168.478ZM241.575 25.5H255.205V127H241.575V25.5ZM298.782 37.97H266.447V25.5H344.747V37.97H312.412V127H298.782V37.97Z" fill="#EBEBEB"></path> <path d="M51.875 148.5H67.825L104.8 250H90.01L80.44 222.16H38.535L28.82 250H14.9L51.875 148.5ZM76.09 209.69L59.85 162.275H59.56L42.885 209.69H76.09ZM114.973 148.5H148.323C160.599 148.5 169.444 150.917 174.858 155.75C180.368 160.487 183.123 167.108 183.123 175.615C183.123 185.378 178.869 192.532 170.363 197.075V197.365C180.803 201.618 186.023 209.642 186.023 221.435C186.023 230.618 183.268 237.675 177.758 242.605C172.344 247.535 163.499 250 151.223 250H114.973V148.5ZM128.603 160.97V191.565H147.598C155.524 191.565 161.034 190.26 164.128 187.65C167.318 185.04 168.913 181.27 168.913 176.34C168.913 171.41 167.318 167.64 164.128 165.03C161.034 162.323 155.524 160.97 147.598 160.97H128.603ZM128.603 204.035V237.53H150.498C158.424 237.53 163.934 236.177 167.028 233.47C170.218 230.667 171.813 226.413 171.813 220.71C171.813 215.103 170.218 210.947 167.028 208.24C163.934 205.437 158.424 204.035 150.498 204.035H128.603ZM240.415 251.16C233.841 251.16 227.896 250.097 222.58 247.97C217.263 245.843 212.671 242.702 208.805 238.545C205.035 234.388 202.086 229.265 199.96 223.175C197.93 216.988 196.915 209.932 196.915 202.005V195.045C196.915 187.505 197.93 180.787 199.96 174.89C202.086 168.993 205.035 164.015 208.805 159.955C212.671 155.798 217.263 152.657 222.58 150.53C227.993 148.403 233.938 147.34 240.415 147.34C246.891 147.34 252.788 148.403 258.105 150.53C263.518 152.657 268.11 155.75 271.88 159.81C275.746 163.87 278.695 168.897 280.725 174.89C282.851 180.787 283.915 187.505 283.915 195.045V202.005C283.915 209.932 282.851 216.94 280.725 223.03C278.695 229.12 275.746 234.243 271.88 238.4C268.11 242.557 263.518 245.747 258.105 247.97C252.788 250.097 246.891 251.16 240.415 251.16ZM240.415 238.69C249.115 238.69 256.171 235.693 261.585 229.7C266.998 223.61 269.705 214.378 269.705 202.005V195.045C269.705 189.245 268.98 184.17 267.53 179.82C266.08 175.373 264.05 171.7 261.44 168.8C258.926 165.803 255.881 163.58 252.305 162.13C248.728 160.583 244.765 159.81 240.415 159.81C236.065 159.81 232.101 160.535 228.525 161.985C224.948 163.435 221.855 165.658 219.245 168.655C216.635 171.555 214.605 175.228 213.155 179.675C211.801 184.025 211.125 189.148 211.125 195.045V202.005C211.125 208.192 211.85 213.605 213.3 218.245C214.75 222.788 216.78 226.607 219.39 229.7C222 232.697 225.093 234.968 228.67 236.515C232.246 237.965 236.161 238.69 240.415 238.69ZM337.559 251.16C331.566 251.16 326.152 250.242 321.319 248.405C316.486 246.568 312.377 243.91 308.994 240.43C305.611 236.853 303.001 232.552 301.164 227.525C299.327 222.402 298.409 216.602 298.409 210.125V148.5H312.039V209.4C312.039 219.067 314.359 226.365 318.999 231.295C323.639 236.225 329.826 238.69 337.559 238.69C345.389 238.69 351.576 236.273 356.119 231.44C360.759 226.51 363.079 219.163 363.079 209.4V148.5H376.709V210.125C376.709 216.505 375.791 222.257 373.954 227.38C372.117 232.407 369.459 236.708 365.979 240.285C362.596 243.765 358.487 246.472 353.654 248.405C348.821 250.242 343.456 251.16 337.559 251.16ZM418.531 160.97H386.196V148.5H464.496V160.97H432.161V250H418.531V160.97Z" fill="#FFDE59"></path> <path d="M288.6 271.5H308.9L336.015 331.24H336.305L363.42 271.5H382.85V373H369.22V287.45H368.93L342.975 344.725H328.475L302.52 287.45H302.23V373H288.6V271.5ZM401.638 271.5H464.713V283.97H415.268V314.565H456.013V327.035H415.268V360.53H464.713V373H401.638V271.5Z" fill="#FFDE59"></path> </svg> 