<?xml version="1.0" encoding="UTF-8"?> <svg xmlns="http://www.w3.org/2000/svg" width="300" height="290" viewBox="0 0 300 290" fill="none"> <path fill-rule="evenodd" clip-rule="evenodd" d="M176.569 56.0006C176.38 56.0008 176.191 56.0011 176 56.0011V74.4776H178.815V61.5714C179.071 61.4676 179.196 61.5931 179.327 61.7628C182.542 65.9409 185.755 70.1199 188.967 74.2998C189.009 74.3663 189.068 74.4204 189.138 74.4562C189.208 74.492 189.287 74.5083 189.366 74.5034C189.801 74.4935 190.236 74.4951 190.67 74.4967C190.833 74.4973 190.996 74.4979 191.159 74.4979H191.506V56.0147H188.713V68.7282C188.478 68.8015 188.347 68.737 188.21 68.5612C187.482 67.597 186.743 66.6372 186.005 65.6778C185.754 65.3517 185.503 65.0257 185.253 64.6996C183.074 61.8564 180.891 59.0153 178.705 56.1762C178.645 56.0995 178.538 56.0086 178.452 56.0086C177.826 55.9987 177.202 55.9996 176.569 56.0006ZM233.884 61.6311V62.8444C233.816 62.8166 233.751 62.7945 233.689 62.7739C233.568 62.733 233.462 62.6973 233.38 62.632C232.155 61.6542 230.742 61.3054 229.207 61.4601C227.728 61.6094 226.448 62.2249 225.354 63.2339C223.308 65.123 222.665 68.1181 223.816 70.6655C224.808 72.8606 226.549 74.177 228.95 74.5665C230.576 74.8298 232.065 74.4593 233.378 73.4414C233.461 73.3771 233.567 73.3428 233.691 73.3031C233.754 73.283 233.821 73.2614 233.892 73.2338V74.483H236.603V61.6311H233.884ZM228.432 64.4577C228.909 64.2646 229.42 64.1672 229.935 64.171V64.1696C230.446 64.1714 230.952 64.2733 231.424 64.4694C231.896 64.6654 232.324 64.9519 232.684 65.3123C233.045 65.6728 233.33 66.1001 233.524 66.5701C233.718 67.0401 233.817 67.5434 233.815 68.0513C233.813 68.5592 233.711 69.0618 233.513 69.5304C233.316 69.9989 233.028 70.4243 232.665 70.7822C232.302 71.14 231.871 71.4234 231.398 71.6161C230.925 71.8088 230.418 71.907 229.907 71.9052C227.759 71.8923 225.994 70.1497 226.001 68.0462C226.001 67.5347 226.104 67.0284 226.302 66.5564C226.5 66.0843 226.79 65.6559 227.156 65.2957C227.522 64.9355 227.955 64.6507 228.432 64.4577ZM264.286 62.8315V61.6291H267V74.4857H264.298V73.2467C264.232 73.2682 264.168 73.2849 264.108 73.3006C263.979 73.3344 263.867 73.3637 263.783 73.4272C261.87 74.8691 259.795 74.9926 257.645 74.0779C255.89 73.3315 254.667 72.026 254.032 70.2359C253.372 68.3753 253.515 66.5466 254.494 64.8217C255.473 63.0968 256.968 61.9887 258.922 61.5707C260.699 61.1921 262.347 61.5069 263.795 62.6564C263.873 62.7168 263.978 62.7445 264.095 62.7756C264.156 62.7916 264.22 62.8086 264.286 62.8315ZM260.335 64.171C259.82 64.1645 259.309 64.2598 258.831 64.4514C258.354 64.643 257.919 64.9271 257.553 65.287C257.187 65.647 256.897 66.0756 256.7 66.5481C256.502 67.0205 256.401 67.5272 256.402 68.0387C256.392 70.1633 258.152 71.9065 260.314 71.9065C262.465 71.9065 264.225 70.1891 264.24 68.0713C264.243 67.56 264.145 67.053 263.951 66.5796C263.756 66.1062 263.469 65.6757 263.106 65.3131C262.743 64.9505 262.311 64.6628 261.835 64.4668C261.36 64.2708 260.85 64.1702 260.335 64.171ZM194.349 68.0394C194.329 71.6636 197.353 74.6459 201.015 74.6493C204.687 74.652 207.72 71.6521 207.716 68.036C207.713 64.42 204.681 61.3841 201.025 61.4025C199.253 61.4039 197.555 62.1038 196.303 63.3484C195.051 64.5929 194.348 66.2803 194.349 68.0394ZM199.524 64.4536C200.001 64.2612 200.512 64.1651 201.027 64.171C203.205 64.1784 204.962 65.9244 204.94 68.0652C204.929 69.0895 204.51 70.0679 203.776 70.7875C203.042 71.5071 202.052 71.9098 201.02 71.9079C198.856 71.9099 197.098 70.1769 197.104 68.0462C197.101 67.5346 197.2 67.0276 197.397 66.5546C197.593 66.0817 197.882 65.6523 198.247 65.2916C198.613 64.9309 199.047 64.646 199.524 64.4536ZM252.818 61.6393C252.777 61.7417 252.75 61.8184 252.716 61.893C249.912 68.1914 247.106 74.4894 244.298 80.7868C244.261 80.8716 244.162 80.9904 244.093 80.9904C243.303 81.0011 242.512 81.0004 241.703 80.9996C241.492 80.9994 241.279 80.9992 241.065 80.9992C241.088 80.9455 241.109 80.8973 241.128 80.8523L241.129 80.8503C241.152 80.7969 241.173 80.7479 241.195 80.6993C242.235 78.3922 243.276 76.0851 244.319 73.778C244.354 73.7083 244.372 73.6312 244.371 73.5532C244.371 73.4752 244.351 73.3985 244.315 73.3295C242.621 69.5359 240.932 65.7414 239.246 61.946C239.218 61.8846 239.193 61.8229 239.164 61.752C239.15 61.717 239.134 61.6798 239.117 61.6393H240.849C240.949 61.6393 241.049 61.6403 241.149 61.6412H241.15C241.391 61.6436 241.632 61.646 241.874 61.6345C242.059 61.6257 242.138 61.6956 242.21 61.8578C243.313 64.3196 244.42 66.7796 245.531 69.2377L245.55 69.2791C245.562 69.3076 245.575 69.336 245.588 69.3645C245.629 69.4531 245.669 69.5417 245.707 69.6313L245.712 69.644C245.758 69.7527 245.807 69.8702 245.954 69.8193C246.049 69.7858 246.128 69.7193 246.178 69.632C247.092 67.6325 248.002 65.6308 248.907 63.6268C249.18 63.0161 249.453 62.4054 249.738 61.8028C249.77 61.7349 249.86 61.6467 249.924 61.646C250.686 61.6379 251.449 61.6384 252.228 61.639C252.367 61.6391 252.507 61.6392 252.647 61.6392L252.818 61.6393ZM220.803 65.1094C221.312 63.9661 221.821 62.8213 222.349 61.6393C222.098 61.6393 221.851 61.6398 221.605 61.6404C220.942 61.6418 220.295 61.6433 219.647 61.6338C219.43 61.6304 219.323 61.6902 219.231 61.8937C218.075 64.4623 216.916 67.0297 215.755 69.596C215.749 69.6088 215.744 69.6216 215.739 69.6342C215.695 69.7402 215.654 69.8378 215.482 69.8335C215.312 69.8294 215.272 69.7349 215.227 69.6303C215.221 69.6163 215.215 69.6021 215.208 69.5879C214.039 67.0071 212.873 64.4238 211.71 61.8381C211.641 61.6868 211.563 61.6277 211.39 61.6345C211.111 61.6451 210.831 61.6431 210.551 61.641C210.438 61.6401 210.325 61.6393 210.211 61.6393H208.618C208.768 61.9755 208.913 62.3015 209.056 62.6231C209.162 62.8622 209.268 63.0989 209.373 63.3357C210.997 66.9759 212.616 70.6175 214.231 74.2605C214.313 74.4477 214.408 74.5074 214.609 74.5027C215.198 74.4882 215.787 74.4882 216.376 74.5027C216.57 74.5074 216.655 74.443 216.731 74.2699C218.087 71.2164 219.444 68.1629 220.803 65.1094Z" fill="#A6A6A6"></path> <path fill-rule="evenodd" clip-rule="evenodd" d="M66.2287 55.9124L66.4091 55.0106C66.0696 55.0106 65.7396 55.0078 65.4166 55.0051C64.5675 54.9981 63.7669 54.9913 62.9685 55.0362C62.8187 55.0699 62.6792 55.1401 62.5617 55.2407C62.4442 55.3412 62.3523 55.4694 62.2937 55.6141C62.0926 56.3887 61.9377 57.176 61.7786 57.9842C61.7204 58.2793 61.6618 58.5771 61.6001 58.8783H65.5626C65.632 58.6932 65.6922 58.5045 65.7428 58.3132C65.9036 57.5396 66.0587 56.7636 66.2287 55.9124ZM59.8295 55.0427C59.4104 57.4505 57.7215 58.9275 55.4647 58.9489C55.0584 58.9514 54.652 58.9544 54.2455 58.9574C52.5246 58.9705 50.803 58.9835 49.0842 58.9489C47.1417 58.9018 45.4214 59.3256 44.139 61.0293C44.1117 59.4475 44.5874 57.5426 45.5324 56.6843C46.3015 55.9844 47.3177 55.1754 48.2565 55.1325C51.0907 54.9913 53.9319 55.0101 56.8081 55.0292H56.8133C57.814 55.036 58.8191 55.0427 59.8295 55.0427ZM81.5402 77.2149H85.2889C86.3618 78.7817 87.5688 79.2975 89.2702 78.7881C91.3657 78.1631 91.8183 76.3759 92.1515 74.3467L92.0786 74.386L92.0105 74.4221L91.8986 74.4806C91.7723 74.5465 91.6723 74.5986 91.5689 74.6636C88.1618 76.789 84.2349 75.1323 83.3004 71.1682C82.4496 67.5831 83.9835 63.3879 86.8898 61.588C88.8281 60.3872 90.8963 60.1645 92.9666 61.2475C93.3734 61.4605 93.7296 61.776 94.1022 62.1056L94.1053 62.1084L94.1061 62.1093C94.2792 62.2627 94.4559 62.4192 94.6429 62.5703C94.7665 62.0502 94.8923 61.5172 95.0306 60.9308H98.8903C98.6981 61.8656 98.5076 62.7959 98.3177 63.7232C97.9423 65.5557 97.5694 67.3764 97.1909 69.197C97.0089 70.0755 96.8211 70.9529 96.6332 71.8306L96.6317 71.8376L96.6311 71.8405C96.3505 73.1514 96.0699 74.4628 95.808 75.7787C94.5193 82.2277 87.2314 83.1566 83.6859 80.8643C82.4245 80.0488 81.7498 78.8544 81.5402 77.2149ZM93.8592 67.26L93.57 67.1379C93.57 65.3229 92.8681 64.1413 91.5731 63.7646C90.8576 63.5677 90.0971 63.6339 89.4245 63.9515C88.7519 64.2692 88.21 64.8182 87.8935 65.5027C87.3402 66.6769 86.9961 67.9424 86.8773 69.2398C86.7306 70.8109 87.5981 72.0073 88.7464 72.3605C89.4032 72.5737 90.111 72.5558 90.7567 72.3099C91.4024 72.0638 91.9488 71.6038 92.3086 71.0034C92.7789 70.202 93.1034 69.3125 93.4278 68.4236L93.4288 68.4211C93.571 68.0315 93.7132 67.6419 93.8676 67.26H93.8592ZM108.309 60.6055C113.095 60.6055 115.675 63.9403 114.847 69.1521C114.386 72.0587 112.905 74.2741 110.122 75.3014C107.494 76.271 104.894 76.1918 102.603 74.3425C101.957 73.8036 101.434 73.1263 101.072 72.3583C100.484 71.1081 100.217 69.7261 100.294 68.3416C100.372 66.957 100.792 65.6152 101.515 64.4414C102.237 63.2675 103.24 62.3 104.428 61.6292C105.616 60.9583 106.952 60.6062 108.309 60.6055ZM111.276 67.9385C111.295 65.4942 110.457 64.1779 108.841 63.7776C107.165 63.3667 105.43 64.165 104.802 65.9821C104.383 67.2932 104.205 68.672 104.278 70.0489C104.322 71.3332 105.116 72.2942 106.421 72.6452C107.727 72.9962 108.909 72.7008 109.858 71.667C110.897 70.5284 111.222 69.1285 111.276 67.9385ZM66.3949 73.2941L65.9167 75.6011C66.2197 75.6011 66.5127 75.5963 66.7965 75.5916L66.815 75.5912H66.8183C67.4508 75.5805 68.0372 75.5706 68.5842 75.6161C69.3825 75.6824 69.7388 75.4469 69.9001 74.578C70.3667 72.0566 70.8954 69.5502 71.4863 67.0588C71.939 65.1474 73.412 63.7925 74.9752 63.6619C76.3813 63.5464 77.1461 64.2677 76.9868 65.6675C76.8876 66.4891 76.7189 67.3018 76.5505 68.1132L76.5503 68.1144L76.4944 68.3843L76.4483 68.6084C76.1249 70.1819 75.7945 71.7616 75.4558 73.3812L75.4523 73.3981L75.3368 73.9505L75.1197 74.9893L74.992 75.6011C75.2985 75.6011 75.5962 75.6038 75.8873 75.6065C76.6691 75.6135 77.4038 75.6201 78.1351 75.5732C78.2841 75.542 78.4233 75.4741 78.5405 75.3751C78.6578 75.2762 78.7496 75.1496 78.8078 75.0061C78.9286 74.4348 79.0506 73.8637 79.1726 73.2927L79.1751 73.2812C79.759 70.5486 80.3427 67.8168 80.7963 65.0617C81.2007 62.6046 79.5684 60.7875 77.1168 60.612C76.2729 60.5283 75.4214 60.6376 74.624 60.9319C73.8267 61.2262 73.1034 61.6982 72.5068 62.3135L72.5521 61.7269C72.576 61.4181 72.5948 61.1742 72.6137 60.9223H68.9677C68.1082 65.0289 67.2636 69.1033 66.4026 73.2574L66.3949 73.2941ZM56.7345 63.4437C56.569 65.7061 54.746 67.3756 52.397 67.427C50.7563 67.4633 49.1114 67.4848 47.4728 67.414C46.6975 67.3799 46.4586 67.6923 46.3224 68.3965C45.9484 70.34 45.5393 72.2776 45.1284 74.2235C45.0374 74.6545 44.9464 75.0857 44.8556 75.5176H41C41.0574 75.2358 41.1122 74.964 41.1656 74.6988C41.2295 74.382 41.2915 74.0745 41.3538 73.7702L41.4169 73.464L41.4568 73.2724C41.5857 72.6557 41.7118 72.0381 41.838 71.4205L41.8396 71.4127C42.133 69.9752 42.4266 68.5375 42.756 67.1081C43.2882 64.835 45.0358 63.4437 47.3114 63.4437H56.7345ZM59.1064 71.7865C58.8539 73.016 58.5984 74.2598 58.3376 75.5261H62.0653L63.0843 70.606C63.751 67.387 64.4211 64.1515 65.0995 60.871C64.753 60.871 64.4227 60.8751 64.1037 60.8791C63.4044 60.888 62.7596 60.8962 62.1177 60.8581C61.4681 60.8174 61.2921 61.1235 61.1853 61.6992C60.9934 62.7279 60.7752 63.752 60.5572 64.7757L60.556 64.7814C60.5036 65.0274 60.4512 65.2732 60.3992 65.5192C60.3443 65.779 60.2897 66.039 60.236 66.2989C59.8607 68.1142 59.4869 69.934 59.1064 71.7865Z" fill="#A6A6A6"></path> <path fill-rule="evenodd" clip-rule="evenodd" d="M78.0388 202.037V204.2H78.4841V203.489H78.6028L79.2856 204.2H79.82L79.1372 203.489C79.2955 203.473 79.438 203.398 79.5647 203.264C79.6953 203.126 79.7606 202.964 79.7606 202.778C79.7606 202.569 79.6874 202.393 79.5409 202.25C79.3945 202.108 79.2104 202.037 78.9888 202.037H78.0388ZM76.7029 203.134C76.7029 203.742 76.9067 204.25 77.3144 204.657C77.7221 205.064 78.2308 205.267 78.8403 205.267C79.4499 205.267 79.9585 205.064 80.3662 204.657C80.7739 204.25 80.9778 203.742 80.9778 203.134C80.9778 202.525 80.7739 202.017 80.3662 201.61C79.9585 201.203 79.4499 201 78.8403 201C78.2308 201 77.7221 201.203 77.3144 201.61C76.9067 202.017 76.7029 202.525 76.7029 203.134ZM80.0278 204.343C79.7112 204.663 79.3153 204.823 78.8403 204.823C78.3614 204.823 77.9636 204.663 77.6469 204.343C77.3342 204.023 77.1779 203.62 77.1779 203.134C77.1779 202.648 77.3342 202.245 77.6469 201.925C77.9636 201.605 78.3614 201.444 78.8403 201.444C79.3153 201.444 79.7112 201.605 80.0278 201.925C80.3445 202.245 80.5028 202.648 80.5028 203.134C80.5028 203.62 80.3445 204.023 80.0278 204.343ZM78.9888 203.134H78.4841V202.422H78.9888C79.0798 202.422 79.157 202.456 79.2203 202.523C79.2837 202.59 79.3153 202.675 79.3153 202.778C79.3153 202.881 79.2837 202.966 79.2203 203.033C79.157 203.1 79.0798 203.134 78.9888 203.134ZM58.0444 201.61H48V221.726H58.0444H68.4906C74.038 221.726 78.535 217.223 78.535 211.668C78.535 206.113 74.038 201.61 68.4906 201.61H58.0444ZM58.0444 221.726V201.61C63.5918 201.61 68.0888 206.113 68.0888 211.668C68.0888 217.223 63.5918 221.726 58.0444 221.726ZM124.061 212.399L125.023 211.576L123.924 210.479C123.356 209.912 122.962 209.382 122.742 208.888C122.522 208.376 122.412 207.717 122.412 206.913C122.412 205.578 122.889 204.471 123.841 203.594C124.813 202.698 126.077 202.25 127.634 202.25C129.118 202.25 130.355 202.725 131.344 203.676C132.352 204.609 132.855 205.733 132.855 207.05C132.855 208.568 132.077 209.894 130.52 211.028L129.008 212.125L132.855 216.239C133.039 215.819 133.194 215.444 133.323 215.115C133.652 214.237 133.817 213.423 133.817 212.673H136.703C136.703 214.008 136.382 215.334 135.741 216.651C135.411 217.273 135.091 217.776 134.779 218.16L138.214 221.726H134.504L132.855 219.943C132.379 220.345 131.884 220.692 131.371 220.985C130.126 221.662 128.88 222 127.634 222C125.71 222 124.199 221.525 123.1 220.574C122 219.623 121.451 218.407 121.451 216.925C121.451 215.901 121.661 215.06 122.083 214.402C122.504 213.743 123.164 213.076 124.061 212.399ZM127.359 210.205L128.458 209.382C129.008 208.961 129.393 208.595 129.613 208.284C129.851 207.974 129.97 207.562 129.97 207.05C129.97 206.355 129.75 205.797 129.31 205.377C128.889 204.938 128.33 204.718 127.634 204.718C126.919 204.718 126.351 204.956 125.93 205.432C125.509 205.907 125.298 206.447 125.298 207.05C125.298 207.653 125.619 208.294 126.26 208.97L127.359 210.205ZM131.207 218.297L126.81 213.496L125.985 214.182C125.435 214.566 125.023 214.959 124.748 215.362C124.474 215.764 124.336 216.285 124.336 216.925C124.336 217.602 124.629 218.205 125.216 218.736C125.802 219.266 126.608 219.531 127.634 219.531C129.191 219.531 130.382 219.12 131.207 218.297ZM95.8789 218.983H92.0315V205.267H95.8789C97.6926 205.267 99.195 205.907 100.386 207.187C101.595 208.449 102.2 210.095 102.2 212.125C102.2 214.155 101.595 215.81 100.386 217.09C99.195 218.352 97.6926 218.983 95.8789 218.983ZM89.1459 202.524V221.726H95.8789C98.4988 221.726 100.688 220.82 102.447 219.01C104.206 217.2 105.085 214.904 105.085 212.125C105.085 209.345 104.206 207.05 102.447 205.24C100.688 203.429 98.4988 202.524 95.8789 202.524H89.1459ZM117.457 213.771H109.35C109.57 212.637 110.028 211.741 110.724 211.082C111.42 210.406 112.336 210.067 113.472 210.067C114.553 210.067 115.451 210.406 116.166 211.082C116.88 211.759 117.311 212.655 117.457 213.771ZM119.656 217.748H116.77C116.532 218.278 116.111 218.736 115.506 219.12C114.92 219.485 114.242 219.668 113.472 219.668C112.373 219.668 111.448 219.321 110.697 218.626C109.946 217.931 109.497 216.998 109.35 215.828H119.931L119.986 215.444C120.04 214.95 120.068 214.621 120.068 214.456C120.068 212.536 119.436 210.936 118.172 209.656C116.908 208.376 115.341 207.736 113.472 207.736C111.475 207.736 109.827 208.394 108.526 209.711C107.243 211.028 106.602 212.747 106.602 214.868C106.602 216.989 107.243 218.708 108.526 220.025C109.827 221.342 111.475 222 113.472 222C115.085 222 116.413 221.57 117.457 220.711C118.52 219.833 119.253 218.845 119.656 217.748ZM145.899 218.983H142.052V205.267H145.899C147.713 205.267 149.216 205.907 150.406 207.187C151.616 208.449 152.22 210.095 152.22 212.125C152.22 214.155 151.616 215.81 150.406 217.09C149.216 218.352 147.713 218.983 145.899 218.983ZM139.167 202.524V221.726H145.899C148.519 221.726 150.709 220.82 152.468 219.01C154.226 217.2 155.106 214.904 155.106 212.125C155.106 209.345 154.226 207.05 152.468 205.24C150.709 203.429 148.519 202.524 145.899 202.524H139.167ZM159.371 213.771H167.478C167.331 212.655 166.901 211.759 166.186 211.082C165.472 210.406 164.574 210.067 163.493 210.067C162.357 210.067 161.441 210.406 160.745 211.082C160.049 211.741 159.591 212.637 159.371 213.771ZM166.791 217.748H169.676C169.273 218.845 168.54 219.833 167.478 220.711C166.434 221.57 165.105 222 163.493 222C161.496 222 159.847 221.342 158.546 220.025C157.264 218.708 156.623 216.989 156.623 214.868C156.623 212.747 157.264 211.028 158.546 209.711C159.847 208.394 161.496 207.736 163.493 207.736C165.362 207.736 166.928 208.376 168.192 209.656C169.456 210.936 170.089 212.536 170.089 214.456C170.089 214.621 170.061 214.95 170.006 215.444L169.951 215.828H159.371C159.517 216.998 159.966 217.931 160.717 218.626C161.469 219.321 162.394 219.668 163.493 219.668C164.262 219.668 164.94 219.485 165.527 219.12C166.131 218.736 166.553 218.278 166.791 217.748ZM181.374 215.828H178.489C178.489 217.602 179.167 219.074 180.522 220.244C181.878 221.415 183.719 222 186.046 222C188.373 222 190.168 221.479 191.432 220.436C192.697 219.376 193.329 218.022 193.329 216.377C193.329 214.859 192.871 213.679 191.955 212.838C191.057 211.978 189.637 211.375 187.695 211.028L184.672 210.479C182.748 210.095 181.786 209.226 181.786 207.873C181.786 207.068 182.135 206.392 182.831 205.843C183.545 205.276 184.525 204.993 185.771 204.993C187.09 204.993 188.153 205.331 188.959 206.008C189.765 206.684 190.168 207.489 190.168 208.422H193.054C193.054 206.629 192.413 205.157 191.13 204.005C189.866 202.835 188.08 202.25 185.771 202.25C183.683 202.25 182.015 202.789 180.77 203.868C179.524 204.929 178.901 206.264 178.901 207.873C178.901 209.226 179.276 210.342 180.028 211.22C180.797 212.097 181.933 212.673 183.435 212.948L187.145 213.633C189.344 214.054 190.443 214.968 190.443 216.377C190.443 217.254 190.086 217.958 189.371 218.489C188.657 219.001 187.548 219.257 186.046 219.257C184.672 219.257 183.545 218.919 182.666 218.242C181.805 217.565 181.374 216.761 181.374 215.828ZM196.09 218.845V210.616H193.891V208.01H196.09V204.17H198.838V208.01H201.998V210.616H198.838V218.434C198.838 218.983 199.113 219.257 199.662 219.257H201.998V221.726H199.113C198.142 221.726 197.39 221.47 196.859 220.958C196.346 220.446 196.09 219.741 196.09 218.845ZM206.415 208.01H203.666V216.239C203.666 218.013 204.161 219.421 205.15 220.464C206.158 221.488 207.496 222 209.163 222C210.262 222 211.251 221.726 212.131 221.177C212.497 220.939 212.836 220.665 213.148 220.354H213.285L213.56 221.726H216.033V208.01H213.285V216.239C213.285 217.136 212.937 217.913 212.241 218.571C211.563 219.211 210.72 219.531 209.712 219.531C208.778 219.531 207.99 219.211 207.349 218.571C206.726 217.913 206.415 217.136 206.415 216.239V208.01ZM229.089 221.726L228.814 220.08H228.677C227.706 221.36 226.286 222 224.417 222C222.585 222 221.074 221.351 219.883 220.052C218.692 218.754 218.096 217.026 218.096 214.868C218.096 212.71 218.692 210.982 219.883 209.683C221.074 208.385 222.585 207.736 224.417 207.736C225.223 207.736 225.956 207.882 226.616 208.175C227.293 208.449 227.733 208.687 227.935 208.888C228.136 209.071 228.384 209.327 228.677 209.656H228.814V202.524H231.562V221.726H229.089ZM221.971 218.242C222.741 219.101 223.693 219.531 224.829 219.531C225.965 219.531 226.909 219.101 227.66 218.242C228.429 217.382 228.814 216.258 228.814 214.868C228.814 213.478 228.429 212.353 227.66 211.494C226.909 210.634 225.965 210.205 224.829 210.205C223.693 210.205 222.741 210.634 221.971 211.494C221.22 212.353 220.845 213.478 220.845 214.868C220.845 216.258 221.22 217.382 221.971 218.242ZM237.185 208.01H234.437V221.726H237.185V208.01ZM234.3 202.524V205.404H237.323V202.524H234.3ZM243.162 218.269C243.949 219.111 244.939 219.531 246.13 219.531C247.32 219.531 248.301 219.111 249.07 218.269C249.858 217.41 250.252 216.276 250.252 214.868C250.252 213.46 249.858 212.335 249.07 211.494C248.301 210.634 247.32 210.205 246.13 210.205C244.939 210.205 243.949 210.634 243.162 211.494C242.392 212.335 242.007 213.46 242.007 214.868C242.007 216.276 242.392 217.41 243.162 218.269ZM251.049 220.025C249.766 221.342 248.127 222 246.13 222C244.133 222 242.484 221.342 241.183 220.025C239.9 218.708 239.259 216.989 239.259 214.868C239.259 212.747 239.9 211.028 241.183 209.711C242.484 208.394 244.133 207.736 246.13 207.736C248.127 207.736 249.766 208.394 251.049 209.711C252.35 211.028 253 212.747 253 214.868C253 216.989 252.35 218.708 251.049 220.025Z" fill="#A6A6A6"></path> </svg> 