<?xml version="1.0" encoding="UTF-8"?> <svg xmlns="http://www.w3.org/2000/svg" width="640" height="250" viewBox="0 0 640 250" fill="none"> <rect width="640" height="250" fill="#030303"></rect> <path d="M48.025 24.3H62.435L95.84 116H82.478L73.832 90.848H35.973L27.196 116H14.62L48.025 24.3ZM69.902 79.582L55.23 36.745H54.968L39.903 79.582H69.902ZM141.055 24.3H171.185C182.277 24.3 190.268 26.4833 195.158 30.85C200.136 35.1293 202.625 41.1117 202.625 48.797C202.625 57.6177 198.783 64.0803 191.097 68.185V68.447C200.529 72.2897 205.245 79.5383 205.245 90.193C205.245 98.4897 202.756 104.865 197.778 109.319C192.888 113.773 184.897 116 173.805 116H141.055V24.3ZM153.369 35.566V63.207H170.53C177.692 63.207 182.67 62.028 185.464 59.67C188.346 57.312 189.787 53.906 189.787 49.452C189.787 44.998 188.346 41.592 185.464 39.234C182.67 36.7887 177.692 35.566 170.53 35.566H153.369ZM153.369 74.473V104.734H173.15C180.312 104.734 185.29 103.511 188.084 101.066C190.966 98.5333 192.407 94.6907 192.407 89.538C192.407 84.4727 190.966 80.7173 188.084 78.272C185.29 75.7393 180.312 74.473 173.15 74.473H153.369ZM219.409 24.3H231.723V116H219.409V24.3ZM271.092 35.566H241.879V24.3H312.619V35.566H283.406V116H271.092V35.566Z" fill="#EBEBEB"></path> <path d="M48.025 135.3H62.435L95.84 227H82.478L73.832 201.848H35.973L27.196 227H14.62L48.025 135.3ZM69.902 190.582L55.23 147.745H54.968L39.903 190.582H69.902ZM105.03 135.3H135.16C146.252 135.3 154.243 137.483 159.133 141.85C164.111 146.129 166.6 152.112 166.6 159.797C166.6 168.618 162.758 175.08 155.072 179.185V179.447C164.504 183.29 169.22 190.538 169.22 201.193C169.22 209.49 166.731 215.865 161.753 220.319C156.863 224.773 148.872 227 137.78 227H105.03V135.3ZM117.344 146.566V174.207H134.505C141.667 174.207 146.645 173.028 149.439 170.67C152.321 168.312 153.762 164.906 153.762 160.452C153.762 155.998 152.321 152.592 149.439 150.234C146.645 147.789 141.667 146.566 134.505 146.566H117.344ZM117.344 185.473V215.734H137.125C144.287 215.734 149.265 214.511 152.059 212.066C154.941 209.533 156.382 205.691 156.382 200.538C156.382 195.473 154.941 191.717 152.059 189.272C149.265 186.739 144.287 185.473 137.125 185.473H117.344ZM218.361 228.048C212.422 228.048 207.051 227.087 202.248 225.166C197.444 223.245 193.296 220.406 189.803 216.651C186.397 212.896 183.733 208.267 181.812 202.765C179.978 197.176 179.061 190.8 179.061 183.639V177.351C179.061 170.539 179.978 164.469 181.812 159.142C183.733 153.815 186.397 149.317 189.803 145.649C193.296 141.894 197.444 139.055 202.248 137.134C207.138 135.213 212.509 134.252 218.361 134.252C224.212 134.252 229.539 135.213 234.343 137.134C239.233 139.055 243.382 141.85 246.788 145.518C250.281 149.186 252.945 153.727 254.779 159.142C256.7 164.469 257.661 170.539 257.661 177.351V183.639C257.661 190.8 256.7 197.132 254.779 202.634C252.945 208.136 250.281 212.765 246.788 216.52C243.382 220.275 239.233 223.157 234.343 225.166C229.539 227.087 224.212 228.048 218.361 228.048ZM218.361 216.782C226.221 216.782 232.596 214.075 237.487 208.66C242.377 203.158 244.823 194.818 244.823 183.639V177.351C244.823 172.111 244.168 167.526 242.858 163.596C241.548 159.579 239.714 156.26 237.356 153.64C235.085 150.933 232.334 148.924 229.103 147.614C225.871 146.217 222.291 145.518 218.361 145.518C214.431 145.518 210.85 146.173 207.619 147.483C204.387 148.793 201.593 150.802 199.235 153.509C196.877 156.129 195.043 159.448 193.733 163.465C192.51 167.395 191.899 172.024 191.899 177.351V183.639C191.899 189.228 192.554 194.119 193.864 198.311C195.174 202.416 197.008 205.865 199.366 208.66C201.724 211.367 204.518 213.42 207.75 214.817C210.981 216.127 214.518 216.782 218.361 216.782ZM306.126 228.048C300.711 228.048 295.82 227.218 291.454 225.559C287.087 223.9 283.375 221.498 280.319 218.354C277.262 215.123 274.904 211.236 273.245 206.695C271.585 202.066 270.756 196.826 270.756 190.975V135.3H283.07V190.32C283.07 199.053 285.166 205.647 289.358 210.101C293.55 214.555 299.139 216.782 306.126 216.782C313.2 216.782 318.789 214.599 322.894 210.232C327.086 205.778 329.182 199.141 329.182 190.32V135.3H341.496V190.975C341.496 196.739 340.666 201.935 339.007 206.564C337.347 211.105 334.946 214.992 331.802 218.223C328.745 221.367 325.033 223.812 320.667 225.559C316.3 227.218 311.453 228.048 306.126 228.048ZM379.28 146.566H350.067V135.3H420.807V146.566H391.594V227H379.28V146.566ZM466.012 135.3H484.352L508.849 189.272H509.111L533.608 135.3H551.162V227H538.848V149.71H538.586L515.137 201.455H502.037L478.588 149.71H478.326V227H466.012V135.3ZM568.136 135.3H625.121V146.566H580.45V174.207H617.261V185.473H580.45V215.734H625.121V227H568.136V135.3Z" fill="#FFDE59"></path> </svg> 