<?xml version="1.0" encoding="UTF-8"?> <svg xmlns="http://www.w3.org/2000/svg" width="320" height="135" viewBox="0 0 320 135" fill="none"> <rect width="320" height="4038" fill="#030303"></rect> <path d="M47.408 73V51.444H22.792V73H16.4V25.4H22.792V45.596H47.408V25.4H53.8V73H47.408ZM93.4413 73L88.8173 59.944H69.5053L64.8813 73H58.2173L75.5573 25.4H83.0373L100.377 73H93.4413ZM75.6933 42.672L71.6133 54.096H86.7093L82.6973 42.672L79.2293 32.54L75.6933 42.672ZM104.824 73V25.4H111.216V67.152H128.148V25.4H134.54V67.152H151.472V25.4H157.864V73H104.824ZM197.741 73V32.676L194.205 39.68L175.437 73H166.733V25.4H173.125V65.724L176.661 58.72L195.429 25.4H204.133V73H197.741Z" fill="#EBEBEB"></path> <path d="M25.58 131L31.428 117.604L14.36 83.4H21.568L34.828 110.6L46.184 83.4H53.12L32.516 131H25.58ZM74.2053 131.544C62.4413 131.544 54.1453 123.248 54.1453 109.172V105.228C54.1453 91.22 62.5093 82.856 74.2053 82.856C84.6773 82.856 91.5453 89.724 92.9053 97.34H85.9693C84.6093 93.056 80.5973 88.976 74.2053 88.976C66.5213 88.976 60.8093 94.688 60.8093 105.228V109.172C60.8093 119.644 66.5893 125.424 74.2053 125.424C80.5293 125.424 84.6093 121.344 85.9693 115.7H92.9053C91.5453 124.608 84.6093 131.544 74.2053 131.544ZM94.94 131.544V125.424H96.3C100.516 125.424 103.44 122.5 103.44 107.54V83.4H134.72V131H128.328V89.248H109.832V107.54C109.832 126.852 105.14 131.544 96.3 131.544H94.94ZM150.679 131L156.527 117.604L139.459 83.4H146.667L159.927 110.6L171.283 83.4H178.219L157.615 131H150.679ZM183.003 131V83.4H211.223V89.248H189.395V131H183.003ZM246.967 131V90.676L243.431 97.68L224.663 131H215.959V83.4H222.351V123.724L225.887 116.72L244.655 83.4H253.359V131H246.967Z" fill="#FFDE59"></path> </svg> 