<?xml version="1.0" encoding="UTF-8"?> <svg xmlns="http://www.w3.org/2000/svg" width="640" height="257" viewBox="0 0 640 257" fill="none"> <rect width="640" height="3381" fill="#030303"></rect> <path d="M80.648 128V82.669H28.882V128H15.44V27.9H28.882V70.371H80.648V27.9H94.09V128H80.648ZM177.453 128L167.729 100.544H127.117L117.393 128H103.379L139.844 27.9H155.574L192.039 128H177.453ZM140.13 64.222L131.55 88.246H163.296L154.859 64.222L147.566 42.915L140.13 64.222ZM201.39 128V27.9H214.832V115.702H250.439V27.9H263.881V115.702H299.488V27.9H312.93V128H201.39ZM396.79 128V43.201L389.354 57.93L349.886 128H331.582V27.9H345.024V112.699L352.46 97.97L391.928 27.9H410.232V128H396.79Z" fill="#EBEBEB"></path> <path d="M38.175 250L50.473 221.829L14.58 149.9H29.738L57.623 207.1L81.504 149.9H96.09L52.761 250H38.175ZM140.431 251.144C115.692 251.144 98.2462 233.698 98.2462 204.097V195.803C98.2462 166.345 115.835 148.756 140.431 148.756C162.453 148.756 176.896 163.199 179.756 179.215H165.17C162.31 170.206 153.873 161.626 140.431 161.626C124.272 161.626 112.26 173.638 112.26 195.803V204.097C112.26 226.119 124.415 238.274 140.431 238.274C153.73 238.274 162.31 229.694 165.17 217.825H179.756C176.896 236.558 162.31 251.144 140.431 251.144ZM184.035 251.144V238.274H186.895C195.761 238.274 201.91 232.125 201.91 200.665V149.9H267.69V250H254.248V162.198H215.352V200.665C215.352 241.277 205.485 251.144 186.895 251.144H184.035ZM301.25 250L313.548 221.829L277.655 149.9H292.813L320.698 207.1L344.579 149.9H359.165L315.836 250H301.25ZM369.226 250V149.9H428.571V162.198H382.668V250H369.226ZM503.738 250V165.201L496.302 179.93L456.834 250H438.53V149.9H451.972V234.699L459.408 219.97L498.876 149.9H517.18V250H503.738Z" fill="#FFDE59"></path> </svg> 