<?xml version="1.0" encoding="UTF-8"?> <svg xmlns="http://www.w3.org/2000/svg" width="960" height="348" viewBox="0 0 960 348" fill="none"> <rect width="960" height="2988" fill="#030303"></rect> <path d="M107.912 171V110.136H38.408V171H20.36V36.6H38.408V93.624H107.912V36.6H125.96V171H107.912ZM237.889 171L224.833 134.136H170.305L157.249 171H138.433L187.393 36.6H208.513L257.473 171H237.889ZM187.777 85.368L176.257 117.624H218.881L207.553 85.368L197.761 56.76L187.777 85.368ZM270.027 171V36.6H288.075V154.488H335.883V36.6H353.931V154.488H401.74V36.6H419.787V171H270.027ZM532.382 171V57.144L522.398 76.92L469.406 171H444.83V36.6H462.878V150.456L472.862 130.68L525.854 36.6H550.43V171H532.382Z" fill="#EBEBEB"></path> <path d="M297.2 334L313.712 296.176L265.52 199.6H285.872L323.312 276.4L355.376 199.6H374.96L316.784 334H297.2ZM434.495 335.536C401.279 335.536 377.855 312.112 377.855 272.368V261.232C377.855 221.68 401.471 198.064 434.495 198.064C464.063 198.064 483.455 217.456 487.295 238.96H467.711C463.871 226.864 452.543 215.344 434.495 215.344C412.799 215.344 396.671 231.472 396.671 261.232V272.368C396.671 301.936 412.991 318.256 434.495 318.256C452.351 318.256 463.871 306.736 467.711 290.8H487.295C483.455 315.952 463.871 335.536 434.495 335.536ZM493.04 335.536V318.256H496.88C508.784 318.256 517.04 310 517.04 267.76V199.6H605.36V334H587.312V216.112H535.088V267.76C535.088 322.288 521.84 335.536 496.88 335.536H493.04ZM650.42 334L666.932 296.176L618.74 199.6H639.092L676.532 276.4L708.596 199.6H728.18L670.004 334H650.42ZM741.688 334V199.6H821.368V216.112H759.736V334H741.688ZM922.292 334V220.144L912.308 239.92L859.316 334H834.74V199.6H852.788V313.456L862.772 293.68L915.764 199.6H940.34V334H922.292Z" fill="#FFDE59"></path> </svg> 