<?xml version="1.0" encoding="UTF-8"?> <svg xmlns="http://www.w3.org/2000/svg" width="640" height="257" viewBox="0 0 640 257" fill="none"> <rect width="640" height="3381" fill="#030303"></rect> <path d="M88.939 128L79.215 100.544H38.603L28.879 128H14.865L51.33 27.9H67.06L103.525 128H88.939ZM51.616 64.222L43.036 88.246H74.782L66.345 64.222L59.052 42.915L51.616 64.222ZM112.876 128V27.9H145.051C170.076 27.9 180.086 37.91 180.086 54.641C180.086 63.793 175.939 71.372 167.216 75.948C177.941 80.238 182.946 88.818 182.946 99.829C182.946 117.99 172.936 128 147.911 128H112.876ZM147.911 82.526H126.318V115.702H147.911C163.355 115.702 168.932 110.125 168.932 99.114C168.932 88.103 163.355 82.526 147.911 82.526ZM145.051 40.198H126.318V70.514H145.051C160.495 70.514 166.072 64.937 166.072 55.356C166.072 45.775 160.495 40.198 145.051 40.198ZM236.588 129.144C211.134 129.144 193.688 111.698 193.688 82.097V73.803C193.688 44.488 211.42 26.756 236.588 26.756C262.042 26.756 279.488 44.202 279.488 73.803V82.097C279.488 111.412 261.756 129.144 236.588 129.144ZM236.588 116.274C253.462 116.274 265.474 104.405 265.474 82.097V73.803C265.474 51.781 253.319 39.626 236.588 39.626C219.714 39.626 207.702 51.495 207.702 73.803V82.097C207.702 104.119 220 116.274 236.588 116.274ZM332.392 129.144C308.797 129.144 293.782 114.129 293.782 87.96V27.9H307.224V87.96C307.224 106.264 317.091 116.274 332.392 116.274C347.693 116.274 357.56 106.407 357.56 87.96V27.9H371.002V87.96C371.002 113.986 355.844 129.144 332.392 129.144ZM380.358 40.198V27.9H457.578V40.198H425.689V128H412.247V40.198H380.358Z" fill="#EBEBEB"></path> <path d="M53.335 251.144C29.883 251.144 18.3 240.276 16.87 217.825H31.17C32.457 232.411 38.892 238.274 53.335 238.274C68.779 238.274 75.786 231.267 75.786 222.544C75.786 197.662 18.3 212.391 18.3 175.926C18.3 160.482 30.169 148.756 53.335 148.756C76.358 148.756 86.94 159.338 88.37 179.215H74.07C72.497 166.917 67.349 161.626 53.335 161.626C38.749 161.626 32.314 167.918 32.314 175.926C32.314 199.521 89.8 184.649 89.8 222.687C89.8 239.418 78.074 251.144 53.335 251.144ZM104.15 250V149.9H166.355V162.198H117.592V192.371H157.775V204.669H117.592V237.702H166.355V250H104.15ZM237.651 250L217.917 210.675C216.201 210.818 214.485 210.818 212.769 210.818H193.321V250H179.879V149.9H212.769C238.366 149.9 249.949 161.483 249.949 180.359C249.949 193.801 243.8 203.668 230.93 208.101L252.809 250H237.651ZM212.769 162.198H193.321V198.52H212.769C229.071 198.52 235.935 191.656 235.935 180.359C235.935 169.062 229.071 162.198 212.769 162.198ZM290.788 250L252.893 149.9H267.765L298.653 233.555L327.253 149.9H341.553L306.518 250H290.788ZM352.729 250V149.9H366.171V250H352.729ZM424.448 251.144C399.709 251.144 382.263 233.698 382.263 204.097V195.803C382.263 166.345 399.852 148.756 424.448 148.756C446.47 148.756 460.913 163.199 463.773 179.215H449.187C446.327 170.206 437.89 161.626 424.448 161.626C408.289 161.626 396.277 173.638 396.277 195.803V204.097C396.277 226.119 408.432 238.274 424.448 238.274C437.747 238.274 446.327 229.694 449.187 217.825H463.773C460.913 236.558 446.327 251.144 424.448 251.144ZM477.347 250V149.9H539.552V162.198H490.789V192.371H530.972V204.669H490.789V237.702H539.552V250H477.347ZM585.25 251.144C561.798 251.144 550.215 240.276 548.785 217.825H563.085C564.372 232.411 570.807 238.274 585.25 238.274C600.694 238.274 607.701 231.267 607.701 222.544C607.701 197.662 550.215 212.391 550.215 175.926C550.215 160.482 562.084 148.756 585.25 148.756C608.273 148.756 618.855 159.338 620.285 179.215H605.985C604.412 166.917 599.264 161.626 585.25 161.626C570.664 161.626 564.229 167.918 564.229 175.926C564.229 199.521 621.715 184.649 621.715 222.687C621.715 239.418 609.989 251.144 585.25 251.144Z" fill="#FFDE59"></path> </svg> 